{"glyphs":{"0":{"ha":843,"x_min":28,"x_max":815,"o":"m 407 -11 q 250 1 319 -11 q 131 49 181 14 q 54 149 81 83 q 28 321 28 215 q 59 497 28 431 q 146 597 90 563 q 276 642 201 631 q 435 653 350 653 q 592 640 522 653 q 713 593 663 628 q 789 493 763 558 q 815 321 815 428 q 784 145 815 211 q 697 45 753 79 q 567 0 642 11 q 407 -11 493 -11 m 424 124 q 459 131 443 124 q 486 158 475 138 q 503 218 497 179 q 510 321 510 257 q 503 426 510 386 q 486 485 497 465 q 459 513 475 506 q 424 519 443 519 q 388 513 404 519 q 360 485 372 506 q 342 426 349 465 q 336 321 336 386 q 342 218 336 257 q 360 158 349 179 q 387 131 371 138 q 424 124 403 124 z "},"1":{"ha":572,"x_min":11,"x_max":522,"o":"m 203 0 l 204 431 q 189 482 204 464 q 142 500 174 500 q 90 497 117 500 q 11 485 63 494 l 11 619 q 165 633 94 629 q 290 638 235 638 q 430 623 379 638 q 501 575 481 608 q 522 485 522 542 l 522 0 l 203 0 z "},"2":{"ha":847,"x_min":33,"x_max":817,"o":"m 33 0 q 33 66 33 33 q 33 132 33 99 q 40 263 33 211 q 74 344 47 315 q 158 386 101 374 q 315 399 215 399 q 382 399 358 399 q 449 399 406 399 q 509 403 482 399 q 536 435 536 407 q 515 467 536 463 q 464 472 493 472 q 405 472 431 472 q 332 472 379 472 q 235 470 272 472 q 179 467 197 468 q 140 464 169 467 q 79 456 110 461 q 36 443 49 451 q 36 485 36 461 q 36 528 36 510 q 36 547 36 547 q 57 593 36 575 q 122 622 78 611 q 235 636 165 632 q 401 640 304 640 q 615 628 525 640 q 754 573 706 617 q 803 433 803 529 q 768 293 803 338 q 670 235 733 249 q 522 222 607 222 q 478 222 504 222 q 403 222 451 222 q 351 216 368 222 q 330 199 335 210 q 325 175 325 189 l 325 164 l 817 164 l 817 0 l 33 0 z "},"3":{"ha":824,"x_min":25,"x_max":799,"o":"m 404 -6 q 288 -4 342 -6 q 186 3 233 -3 q 94 19 139 8 q 43 51 61 31 q 25 107 25 72 l 25 201 q 203 172 111 179 q 361 164 294 164 q 442 169 414 164 q 481 185 469 175 q 492 208 492 194 q 485 233 492 225 q 469 242 479 240 q 446 244 458 244 l 128 244 l 128 406 l 453 406 q 478 413 469 406 q 486 435 486 421 q 474 458 486 450 q 440 468 463 465 q 385 471 417 471 q 357 471 371 471 q 328 471 343 471 q 242 467 294 471 q 137 454 190 463 q 43 433 83 446 l 43 526 q 65 591 43 568 q 128 624 86 614 q 233 635 156 629 q 408 640 311 640 q 628 628 547 640 q 744 576 708 617 q 779 447 779 535 q 760 374 779 406 q 696 339 742 343 l 696 338 q 778 301 758 338 q 799 201 799 265 q 759 69 799 114 q 633 10 719 25 q 404 -6 547 -6 z "},"4":{"ha":913,"x_min":21,"x_max":892,"o":"m 483 0 l 483 106 l 21 106 l 21 258 l 454 572 q 540 609 486 594 q 656 631 594 624 q 771 639 718 639 q 769 616 769 636 q 767 576 768 596 q 767 553 767 557 l 767 267 l 892 267 l 892 106 l 767 106 l 767 0 l 483 0 m 333 267 l 482 267 l 482 376 l 479 369 l 344 271 l 333 267 z "},"5":{"ha":842,"x_min":33,"x_max":811,"o":"m 811 211 q 797 102 811 144 q 743 36 782 60 q 635 3 704 13 q 458 -6 567 -6 q 235 1 324 -6 q 110 17 146 7 q 58 35 75 25 q 38 70 42 46 q 33 146 33 94 l 33 203 q 231 174 132 183 q 407 164 331 164 q 485 169 453 164 q 535 186 518 174 q 553 221 553 199 q 549 244 553 236 q 537 258 544 253 q 517 264 529 263 q 399 271 464 269 q 269 270 335 272 q 147 265 203 268 q 57 257 92 261 l 57 639 l 796 639 l 796 479 l 304 479 l 304 429 q 406 428 349 429 q 517 426 463 428 q 615 423 572 425 q 676 417 658 421 q 760 377 731 406 q 800 306 789 349 q 811 211 811 264 z "},"6":{"ha":819,"x_min":28,"x_max":794,"o":"m 407 -6 q 204 3 281 -6 q 90 42 128 11 q 40 135 53 72 q 28 308 28 199 q 36 463 28 403 q 67 557 44 522 q 133 608 90 592 q 244 632 176 625 q 329 638 281 636 q 426 640 378 640 q 545 638 488 640 q 650 629 603 635 q 724 610 694 626 q 760 559 753 594 q 749 461 768 524 q 628 470 694 467 q 492 476 561 474 q 363 478 424 478 q 326 474 346 478 q 292 460 307 469 q 272 432 278 450 q 271 419 272 429 q 268 399 269 408 q 267 385 267 389 q 326 401 286 394 q 418 413 367 408 q 524 417 469 417 q 630 413 581 417 q 716 390 679 408 q 774 333 753 372 q 794 224 794 294 q 777 110 794 154 q 717 40 760 65 q 599 5 674 15 q 407 -6 524 -6 m 411 149 q 478 151 447 149 q 530 167 510 154 q 550 211 550 181 q 533 255 550 243 q 490 267 517 267 q 432 268 463 268 q 390 268 411 268 q 349 268 369 268 q 308 268 329 268 q 267 268 288 268 q 267 246 267 258 q 269 222 268 233 q 271 203 269 211 q 294 167 276 179 q 340 152 311 156 q 411 149 369 149 z "},"7":{"ha":753,"x_min":15,"x_max":772,"o":"m 83 0 l 444 476 l 15 476 l 15 636 l 619 636 q 740 590 707 636 q 722 467 772 544 q 678 408 711 450 q 601 308 644 365 q 510 192 557 251 q 425 81 464 132 q 363 0 386 31 l 83 0 z "},"8":{"ha":861,"x_min":31,"x_max":831,"o":"m 428 -6 q 217 4 296 -6 q 97 35 138 14 q 44 94 57 57 q 31 188 31 132 q 62 288 31 247 q 154 339 93 329 q 78 383 103 344 q 54 471 54 421 q 86 574 54 536 q 199 628 118 611 q 425 644 281 644 q 618 635 543 644 q 734 606 693 626 q 791 553 775 586 q 807 471 807 519 q 783 383 807 421 q 707 340 758 344 q 799 289 768 331 q 831 188 831 247 q 817 98 831 135 q 763 38 804 61 q 642 5 722 15 q 428 -6 561 -6 m 400 146 l 450 146 q 542 159 518 146 q 567 206 567 172 q 558 239 567 226 q 524 256 549 251 q 450 261 499 261 l 400 261 q 327 256 351 261 q 295 239 303 251 q 288 206 288 226 q 310 159 288 172 q 400 146 332 146 m 425 422 q 495 426 469 422 q 532 440 521 429 q 543 469 543 450 q 533 499 543 489 q 497 512 522 508 q 425 515 471 515 q 353 512 379 515 q 317 499 328 508 q 307 469 307 489 q 317 440 307 450 q 352 426 326 429 q 425 422 378 422 z "},"9":{"ha":819,"x_min":25,"x_max":792,"o":"m 63 167 q 202 157 121 161 q 367 153 283 153 q 492 158 453 153 q 541 176 531 164 q 551 207 551 189 q 551 220 551 214 q 551 233 551 226 q 551 246 551 239 q 533 242 543 244 q 510 236 524 239 q 416 219 468 226 q 278 211 364 211 q 91 256 157 211 q 25 414 25 301 q 58 556 25 507 q 174 625 90 606 q 413 644 258 644 q 616 635 540 644 q 729 597 692 626 q 779 503 767 567 q 792 331 792 439 q 783 175 792 236 q 751 79 774 114 q 685 28 728 44 q 576 6 643 13 q 458 -1 513 1 q 356 -3 404 -3 q 263 -1 307 -3 q 169 1 218 0 q 81 32 111 7 q 57 108 51 57 l 63 167 m 546 374 q 546 406 546 389 q 546 438 546 422 q 535 468 546 457 q 494 485 524 479 q 410 490 465 490 q 319 483 350 490 q 277 463 288 476 q 267 428 267 450 q 274 394 267 407 q 301 376 282 382 q 356 371 321 371 q 442 372 401 371 q 510 373 482 372 q 546 374 538 374 z "}," ":{"ha":417,"x_min":0,"x_max":0,"o":""}," ":{"ha":417,"x_min":0,"x_max":0,"o":""},"A":{"ha":942,"x_min":-10,"x_max":936,"o":"m -10 0 l 236 519 q 315 611 264 578 q 468 644 365 644 q 605 613 549 644 q 690 519 661 582 l 936 0 l 593 0 l 533 119 l 286 119 l 231 0 l -10 0 m 335 235 l 475 235 l 411 368 q 408 376 410 372 q 407 381 407 381 q 406 376 407 381 q 401 368 404 372 l 335 235 z "},"Æ":{"ha":1344,"x_min":49,"x_max":1319,"o":"m 49 0 q 153 127 108 74 q 234 225 197 181 q 309 316 271 269 q 395 420 347 363 q 510 558 443 478 q 582 615 544 599 q 659 635 619 632 q 739 639 699 639 l 1319 639 q 1319 553 1319 596 q 1319 468 1319 511 l 871 468 l 871 403 l 1274 403 l 1274 232 q 1072 232 1172 232 q 871 232 972 232 l 871 171 l 1319 171 l 1319 0 q 944 0 1132 0 q 567 0 756 0 l 567 103 l 347 103 q 305 51 326 76 q 263 0 283 26 l 49 0 m 450 225 q 508 225 479 225 q 567 225 538 225 q 567 300 567 263 q 567 375 567 338 q 558 365 563 369 q 550 354 554 360 q 547 350 549 353 q 542 344 544 347 q 497 285 519 314 q 450 225 474 256 z "},"Ǽ":{"ha":1344,"x_min":49,"x_max":1319,"o":"m 49 0 q 153 127 108 74 q 234 225 197 181 q 309 316 271 269 q 395 420 347 363 q 510 558 443 478 q 582 615 544 599 q 659 635 619 632 q 739 639 699 639 l 1319 639 q 1319 553 1319 596 q 1319 468 1319 511 l 871 468 l 871 403 l 1274 403 l 1274 232 q 1072 232 1172 232 q 871 232 972 232 l 871 171 l 1319 171 l 1319 0 q 944 0 1132 0 q 567 0 756 0 l 567 103 l 347 103 q 305 51 326 76 q 263 0 283 26 l 49 0 m 450 225 q 508 225 479 225 q 567 225 538 225 q 567 300 567 263 q 567 375 567 338 q 558 365 563 369 q 550 354 554 360 q 547 350 549 353 q 542 344 544 347 q 497 285 519 314 q 450 225 474 256 m 860 724 l 1074 919 l 1199 851 l 974 724 l 860 724 z "},"Á":{"ha":942,"x_min":-10,"x_max":936,"o":"m -10 0 l 236 519 q 315 611 264 578 q 468 644 365 644 q 605 613 549 644 q 690 519 661 582 l 936 0 l 593 0 l 533 119 l 286 119 l 231 0 l -10 0 m 335 235 l 475 235 l 411 368 q 408 376 410 372 q 407 381 407 381 q 406 376 407 381 q 401 368 404 372 l 335 235 m 376 724 l 549 899 l 674 831 l 490 724 l 376 724 z "},"Ă":{"ha":942,"x_min":-10,"x_max":936,"o":"m -10 0 l 236 519 q 315 611 264 578 q 468 644 365 644 q 605 613 549 644 q 690 519 661 582 l 936 0 l 593 0 l 533 119 l 286 119 l 231 0 l -10 0 m 335 235 l 475 235 l 411 368 q 408 376 410 372 q 407 381 407 381 q 406 376 407 381 q 401 368 404 372 l 335 235 m 463 721 q 352 733 393 721 q 294 781 311 744 q 276 886 276 817 l 276 899 l 379 899 l 379 889 q 385 854 379 869 q 410 831 392 839 q 463 822 428 822 q 516 831 499 822 q 539 854 533 839 q 544 889 544 869 l 544 899 l 647 899 l 647 886 q 630 781 647 817 q 572 733 613 744 q 463 721 532 721 z "},"Ắ":{"ha":942,"x_min":-10,"x_max":936,"o":"m -10 0 l 236 519 q 315 611 264 578 q 468 644 365 644 q 605 613 549 644 q 690 519 661 582 l 936 0 l 593 0 l 533 119 l 286 119 l 231 0 l -10 0 m 335 235 l 475 235 l 411 368 q 408 376 410 372 q 407 381 407 381 q 406 376 407 381 q 401 368 404 372 l 335 235 m 463 721 q 352 733 393 721 q 294 781 311 744 q 276 886 276 817 l 276 899 l 379 899 l 379 889 q 385 854 379 869 q 410 831 392 839 q 463 822 428 822 q 516 831 499 822 q 539 854 533 839 q 544 889 544 869 l 544 899 l 647 899 l 647 886 q 630 781 647 817 q 572 733 613 744 q 463 721 532 721 m 376 961 l 549 1136 l 674 1068 l 490 961 l 376 961 z "},"Ặ":{"ha":942,"x_min":-10,"x_max":936,"o":"m -10 0 l 236 519 q 315 611 264 578 q 468 644 365 644 q 605 613 549 644 q 690 519 661 582 l 936 0 l 593 0 l 533 119 l 286 119 l 231 0 l -10 0 m 335 235 l 475 235 l 411 368 q 408 376 410 372 q 407 381 407 381 q 406 376 407 381 q 401 368 404 372 l 335 235 m 463 -254 q 392 -249 422 -254 q 344 -226 361 -244 q 326 -167 326 -208 q 367 -94 326 -108 q 468 -79 408 -79 q 563 -94 528 -79 q 597 -167 597 -110 q 581 -226 597 -208 q 534 -249 564 -244 q 463 -254 504 -254 m 463 721 q 352 733 393 721 q 294 781 311 744 q 276 886 276 817 l 276 899 l 379 899 l 379 889 q 385 854 379 869 q 410 831 392 839 q 463 822 428 822 q 516 831 499 822 q 539 854 533 839 q 544 889 544 869 l 544 899 l 647 899 l 647 886 q 630 781 647 817 q 572 733 613 744 q 463 721 532 721 z "},"Ằ":{"ha":942,"x_min":-10,"x_max":936,"o":"m -10 0 l 236 519 q 315 611 264 578 q 468 644 365 644 q 605 613 549 644 q 690 519 661 582 l 936 0 l 593 0 l 533 119 l 286 119 l 231 0 l -10 0 m 335 235 l 475 235 l 411 368 q 408 376 410 372 q 407 381 407 381 q 406 376 407 381 q 401 368 404 372 l 335 235 m 463 721 q 352 733 393 721 q 294 781 311 744 q 276 886 276 817 l 276 899 l 379 899 l 379 889 q 385 854 379 869 q 410 831 392 839 q 463 822 428 822 q 516 831 499 822 q 539 854 533 839 q 544 889 544 869 l 544 899 l 647 899 l 647 886 q 630 781 647 817 q 572 733 613 744 q 463 721 532 721 m 458 961 l 275 1068 l 400 1136 l 572 961 l 458 961 z "},"Ẳ":{"ha":942,"x_min":-10,"x_max":936,"o":"m -10 0 l 236 519 q 315 611 264 578 q 468 644 365 644 q 605 613 549 644 q 690 519 661 582 l 936 0 l 593 0 l 533 119 l 286 119 l 231 0 l -10 0 m 335 235 l 475 235 l 411 368 q 408 376 410 372 q 407 381 407 381 q 406 376 407 381 q 401 368 404 372 l 335 235 m 463 721 q 352 733 393 721 q 294 781 311 744 q 276 886 276 817 l 276 899 l 379 899 l 379 889 q 385 854 379 869 q 410 831 392 839 q 463 822 428 822 q 516 831 499 822 q 539 854 533 839 q 544 889 544 869 l 544 899 l 647 899 l 647 886 q 630 781 647 817 q 572 733 613 744 q 463 721 532 721 m 418 961 l 418 981 q 425 1004 418 996 q 441 1017 432 1013 q 457 1027 450 1021 q 464 1044 464 1033 l 464 1061 q 461 1082 464 1075 q 449 1089 458 1089 q 433 1061 433 1089 l 340 1075 q 372 1142 343 1119 q 458 1164 401 1164 q 553 1143 521 1164 q 585 1069 585 1122 l 585 1064 q 577 1026 585 1039 q 558 1005 569 1013 q 540 990 547 997 q 532 972 532 983 l 532 961 l 418 961 z "},"Ẵ":{"ha":942,"x_min":-10,"x_max":936,"o":"m -10 0 l 236 519 q 315 611 264 578 q 468 644 365 644 q 605 613 549 644 q 690 519 661 582 l 936 0 l 593 0 l 533 119 l 286 119 l 231 0 l -10 0 m 335 235 l 475 235 l 411 368 q 408 376 410 372 q 407 381 407 381 q 406 376 407 381 q 401 368 404 372 l 335 235 m 463 721 q 352 733 393 721 q 294 781 311 744 q 276 886 276 817 l 276 899 l 379 899 l 379 889 q 385 854 379 869 q 410 831 392 839 q 463 822 428 822 q 516 831 499 822 q 539 854 533 839 q 544 889 544 869 l 544 899 l 647 899 l 647 886 q 630 781 647 817 q 572 733 613 744 q 463 721 532 721 m 550 964 q 492 978 519 963 q 438 1011 465 994 q 381 1025 411 1028 q 335 1007 353 1025 q 313 982 318 989 l 265 1025 q 273 1042 265 1025 q 295 1081 281 1058 q 331 1120 310 1103 q 381 1138 353 1138 q 438 1124 411 1140 q 492 1092 465 1108 q 547 1076 519 1076 q 598 1095 579 1076 q 625 1126 617 1114 l 672 1089 q 664 1070 672 1089 q 640 1027 656 1051 q 602 983 625 1003 q 550 964 579 964 z "},"Â":{"ha":942,"x_min":-10,"x_max":936,"o":"m -10 0 l 236 519 q 315 611 264 578 q 468 644 365 644 q 605 613 549 644 q 690 519 661 582 l 936 0 l 593 0 l 533 119 l 286 119 l 231 0 l -10 0 m 335 235 l 475 235 l 411 368 q 408 376 410 372 q 407 381 407 381 q 406 376 407 381 q 401 368 404 372 l 335 235 m 261 724 l 425 899 l 497 899 l 664 724 l 544 724 l 461 789 l 372 724 l 261 724 z "},"Ấ":{"ha":942,"x_min":-10,"x_max":936,"o":"m -10 0 l 236 519 q 315 611 264 578 q 468 644 365 644 q 605 613 549 644 q 690 519 661 582 l 936 0 l 593 0 l 533 119 l 286 119 l 231 0 l -10 0 m 335 235 l 475 235 l 411 368 q 408 376 410 372 q 407 381 407 381 q 406 376 407 381 q 401 368 404 372 l 335 235 m 261 724 l 425 899 l 497 899 l 664 724 l 544 724 l 461 789 l 372 724 l 261 724 m 617 875 l 789 1050 l 914 982 l 731 875 l 617 875 z "},"Ậ":{"ha":942,"x_min":-10,"x_max":936,"o":"m -10 0 l 236 519 q 315 611 264 578 q 468 644 365 644 q 605 613 549 644 q 690 519 661 582 l 936 0 l 593 0 l 533 119 l 286 119 l 231 0 l -10 0 m 335 235 l 475 235 l 411 368 q 408 376 410 372 q 407 381 407 381 q 406 376 407 381 q 401 368 404 372 l 335 235 m 463 -254 q 392 -249 422 -254 q 344 -226 361 -244 q 326 -167 326 -208 q 367 -94 326 -108 q 468 -79 408 -79 q 563 -94 528 -79 q 597 -167 597 -110 q 581 -226 597 -208 q 534 -249 564 -244 q 463 -254 504 -254 m 261 724 l 425 899 l 497 899 l 664 724 l 544 724 l 461 789 l 372 724 l 261 724 z "},"Ầ":{"ha":942,"x_min":-10,"x_max":936,"o":"m -10 0 l 236 519 q 315 611 264 578 q 468 644 365 644 q 605 613 549 644 q 690 519 661 582 l 936 0 l 593 0 l 533 119 l 286 119 l 231 0 l -10 0 m 335 235 l 475 235 l 411 368 q 408 376 410 372 q 407 381 407 381 q 406 376 407 381 q 401 368 404 372 l 335 235 m 261 724 l 425 899 l 497 899 l 664 724 l 544 724 l 461 789 l 372 724 l 261 724 m 699 875 l 515 982 l 640 1050 l 813 875 l 699 875 z "},"Ẩ":{"ha":942,"x_min":-10,"x_max":936,"o":"m -10 0 l 236 519 q 315 611 264 578 q 468 644 365 644 q 605 613 549 644 q 690 519 661 582 l 936 0 l 593 0 l 533 119 l 286 119 l 231 0 l -10 0 m 335 235 l 475 235 l 411 368 q 408 376 410 372 q 407 381 407 381 q 406 376 407 381 q 401 368 404 372 l 335 235 m 261 724 l 425 899 l 497 899 l 664 724 l 544 724 l 461 789 l 372 724 l 261 724 m 589 889 l 589 908 q 596 932 589 924 q 612 944 603 940 q 628 955 621 949 q 635 972 635 961 l 635 989 q 632 1010 635 1003 q 619 1017 629 1017 q 604 989 604 1017 l 511 1003 q 543 1069 514 1047 q 629 1092 572 1092 q 724 1071 692 1092 q 756 997 756 1050 l 756 992 q 748 953 756 967 q 729 933 740 940 q 710 918 718 925 q 703 900 703 911 l 703 889 l 589 889 z "},"Ẫ":{"ha":942,"x_min":-10,"x_max":936,"o":"m -10 0 l 236 519 q 315 611 264 578 q 468 644 365 644 q 605 613 549 644 q 690 519 661 582 l 936 0 l 593 0 l 533 119 l 286 119 l 231 0 l -10 0 m 335 235 l 475 235 l 411 368 q 408 376 410 372 q 407 381 407 381 q 406 376 407 381 q 401 368 404 372 l 335 235 m 261 724 l 425 899 l 497 899 l 664 724 l 544 724 l 461 789 l 372 724 l 261 724 m 551 924 q 494 938 521 922 q 440 971 467 954 q 382 985 413 988 q 337 967 354 985 q 314 942 319 949 l 267 985 q 274 1001 267 985 q 297 1040 282 1018 q 333 1080 311 1063 q 382 1097 354 1097 q 440 1084 413 1100 q 494 1052 467 1068 q 549 1036 521 1036 q 599 1055 581 1036 q 626 1086 618 1074 l 674 1049 q 665 1030 674 1049 q 642 987 657 1011 q 603 943 626 963 q 551 924 581 924 z "},"Ȁ":{"ha":942,"x_min":-10,"x_max":936,"o":"m -10 0 l 236 519 q 315 611 264 578 q 468 644 365 644 q 605 613 549 644 q 690 519 661 582 l 936 0 l 593 0 l 533 119 l 286 119 l 231 0 l -10 0 m 335 235 l 475 235 l 411 368 q 408 376 410 372 q 407 381 407 381 q 406 376 407 381 q 401 368 404 372 l 335 235 m 346 724 l 157 851 l 301 919 l 460 724 l 346 724 m 519 724 l 374 894 l 518 961 l 621 724 l 519 724 z "},"Ä":{"ha":942,"x_min":-10,"x_max":936,"o":"m -10 0 l 236 519 q 315 611 264 578 q 468 644 365 644 q 605 613 549 644 q 690 519 661 582 l 936 0 l 593 0 l 533 119 l 286 119 l 231 0 l -10 0 m 335 235 l 475 235 l 411 368 q 408 376 410 372 q 407 381 407 381 q 406 376 407 381 q 401 368 404 372 l 335 235 m 611 721 q 541 733 568 721 q 514 792 514 744 q 543 847 514 836 q 615 857 572 857 q 682 845 657 857 q 707 792 707 833 q 681 733 707 744 q 611 721 656 721 m 314 721 q 244 733 271 721 q 217 792 217 744 q 246 847 217 836 q 318 857 275 857 q 384 845 360 857 q 408 792 408 833 q 383 733 408 744 q 314 721 357 721 z "},"Ạ":{"ha":942,"x_min":-10,"x_max":936,"o":"m -10 0 l 236 519 q 315 611 264 578 q 468 644 365 644 q 605 613 549 644 q 690 519 661 582 l 936 0 l 593 0 l 533 119 l 286 119 l 231 0 l -10 0 m 335 235 l 475 235 l 411 368 q 408 376 410 372 q 407 381 407 381 q 406 376 407 381 q 401 368 404 372 l 335 235 m 463 -254 q 392 -249 422 -254 q 344 -226 361 -244 q 326 -167 326 -208 q 367 -94 326 -108 q 468 -79 408 -79 q 563 -94 528 -79 q 597 -167 597 -110 q 581 -226 597 -208 q 534 -249 564 -244 q 463 -254 504 -254 z "},"À":{"ha":942,"x_min":-10,"x_max":936,"o":"m -10 0 l 236 519 q 315 611 264 578 q 468 644 365 644 q 605 613 549 644 q 690 519 661 582 l 936 0 l 593 0 l 533 119 l 286 119 l 231 0 l -10 0 m 335 235 l 475 235 l 411 368 q 408 376 410 372 q 407 381 407 381 q 406 376 407 381 q 401 368 404 372 l 335 235 m 458 724 l 275 831 l 400 899 l 572 724 l 458 724 z "},"Ả":{"ha":942,"x_min":-10,"x_max":936,"o":"m -10 0 l 236 519 q 315 611 264 578 q 468 644 365 644 q 605 613 549 644 q 690 519 661 582 l 936 0 l 593 0 l 533 119 l 286 119 l 231 0 l -10 0 m 335 235 l 475 235 l 411 368 q 408 376 410 372 q 407 381 407 381 q 406 376 407 381 q 401 368 404 372 l 335 235 m 418 724 l 418 743 q 425 767 418 758 q 441 779 432 775 q 457 790 450 783 q 464 807 464 796 l 464 824 q 461 844 464 838 q 449 851 458 851 q 433 824 433 851 l 340 838 q 372 904 343 882 q 458 926 401 926 q 553 906 521 926 q 585 832 585 885 l 585 826 q 577 788 585 801 q 558 767 569 775 q 540 753 547 760 q 532 735 532 746 l 532 724 l 418 724 z "},"Ȃ":{"ha":942,"x_min":-10,"x_max":936,"o":"m -10 0 l 236 519 q 315 611 264 578 q 468 644 365 644 q 605 613 549 644 q 690 519 661 582 l 936 0 l 593 0 l 533 119 l 286 119 l 231 0 l -10 0 m 335 235 l 475 235 l 411 368 q 408 376 410 372 q 407 381 407 381 q 406 376 407 381 q 401 368 404 372 l 335 235 m 276 721 l 276 733 q 294 840 276 804 q 352 887 311 875 q 463 899 393 899 q 572 887 532 899 q 630 840 613 875 q 647 733 647 804 l 647 721 l 544 721 l 544 731 q 539 765 544 750 q 516 789 533 781 q 463 797 499 797 q 410 789 428 797 q 387 766 393 781 q 379 732 381 751 l 379 721 l 276 721 z "},"Ā":{"ha":942,"x_min":-10,"x_max":936,"o":"m -10 0 l 236 519 q 315 611 264 578 q 468 644 365 644 q 605 613 549 644 q 690 519 661 582 l 936 0 l 593 0 l 533 119 l 286 119 l 231 0 l -10 0 m 335 235 l 475 235 l 411 368 q 408 376 410 372 q 407 381 407 381 q 406 376 407 381 q 401 368 404 372 l 335 235 m 242 724 l 242 832 l 682 832 l 682 724 l 242 724 z "},"Ą":{"ha":942,"x_min":-10,"x_max":936,"o":"m -10 0 l 236 519 q 315 611 264 578 q 468 644 365 644 q 605 613 549 644 q 690 519 661 582 l 936 0 l 593 0 l 533 119 l 286 119 l 231 0 l -10 0 m 335 235 l 475 235 l 411 368 q 408 376 410 372 q 407 381 407 381 q 406 376 407 381 q 401 368 404 372 l 335 235 m 726 -265 q 637 -250 667 -265 q 597 -208 607 -235 q 588 -146 588 -181 q 600 -87 588 -112 q 632 -41 613 -61 q 673 -8 651 -21 q 713 14 694 6 l 838 14 q 804 -3 825 10 q 761 -32 783 -15 q 724 -69 739 -49 q 708 -110 708 -89 q 730 -155 708 -147 q 782 -162 751 -162 q 828 -162 817 -162 q 842 -160 840 -161 q 847 -160 844 -160 q 840 -219 847 -196 q 806 -254 832 -243 q 726 -265 781 -265 z "},"Å":{"ha":942,"x_min":-10,"x_max":936,"o":"m -10 0 l 236 519 q 315 611 264 578 q 468 644 365 644 q 605 613 549 644 q 690 519 661 582 l 936 0 l 593 0 l 533 119 l 286 119 l 231 0 l -10 0 m 335 235 l 475 235 l 411 368 q 408 376 410 372 q 407 381 407 381 q 406 376 407 381 q 401 368 404 372 l 335 235 m 463 725 q 381 731 417 725 q 324 760 344 738 q 304 828 304 782 q 324 894 304 874 q 381 919 344 914 q 465 925 418 925 q 551 919 514 925 q 608 894 588 914 q 629 828 629 874 q 608 760 629 782 q 550 731 588 738 q 463 725 513 725 m 465 797 q 510 803 496 797 q 524 825 524 808 q 510 847 524 842 q 465 853 496 853 q 421 847 435 853 q 407 825 407 842 q 421 803 407 808 q 465 797 435 797 z "},"Ǻ":{"ha":942,"x_min":-10,"x_max":936,"o":"m -10 0 l 236 519 q 315 611 264 578 q 468 644 365 644 q 605 613 549 644 q 690 519 661 582 l 936 0 l 593 0 l 533 119 l 286 119 l 231 0 l -10 0 m 335 235 l 475 235 l 411 368 q 408 376 410 372 q 407 381 407 381 q 406 376 407 381 q 401 368 404 372 l 335 235 m 463 725 q 381 731 417 725 q 324 760 344 738 q 304 828 304 782 q 324 894 304 874 q 381 919 344 914 q 465 925 418 925 q 551 919 514 925 q 608 894 588 914 q 629 828 629 874 q 608 760 629 782 q 550 731 588 738 q 463 725 513 725 m 465 797 q 510 803 496 797 q 524 825 524 808 q 510 847 524 842 q 465 853 496 853 q 421 847 435 853 q 407 825 407 842 q 421 803 407 808 q 465 797 435 797 m 376 971 l 549 1146 l 674 1078 l 490 971 l 376 971 z "},"Ã":{"ha":942,"x_min":-10,"x_max":936,"o":"m -10 0 l 236 519 q 315 611 264 578 q 468 644 365 644 q 605 613 549 644 q 690 519 661 582 l 936 0 l 593 0 l 533 119 l 286 119 l 231 0 l -10 0 m 335 235 l 475 235 l 411 368 q 408 376 410 372 q 407 381 407 381 q 406 376 407 381 q 401 368 404 372 l 335 235 m 550 726 q 492 741 519 725 q 438 774 465 757 q 381 788 411 790 q 335 769 353 788 q 313 744 318 751 l 265 788 q 273 804 265 788 q 295 843 281 821 q 331 883 310 865 q 381 900 353 900 q 438 887 411 903 q 492 855 465 871 q 547 839 519 839 q 598 858 579 839 q 625 889 617 876 l 672 851 q 664 833 672 851 q 640 790 656 814 q 602 746 625 765 q 550 726 579 726 z "},"B":{"ha":950,"x_min":49,"x_max":911,"o":"m 636 -1 q 369 -2 481 -1 q 180 -3 257 -3 q 49 0 103 -3 l 49 575 q 66 627 49 615 q 114 639 83 639 q 244 640 193 639 q 331 641 296 640 q 394 642 365 642 q 461 642 424 642 q 560 641 504 642 q 665 640 617 640 q 732 639 714 640 q 848 600 807 635 q 889 483 889 565 q 870 397 889 428 q 822 353 851 365 q 760 340 792 340 q 833 333 804 340 q 879 308 863 325 q 903 261 896 290 q 911 190 911 232 q 900 93 911 131 q 860 35 889 56 q 776 6 831 14 q 636 -1 722 -1 m 531 143 q 563 144 550 143 q 582 151 575 146 q 592 169 589 156 q 596 204 596 182 q 585 249 596 236 q 532 263 574 263 l 354 263 q 316 297 324 263 q 308 397 308 331 l 522 397 q 550 400 539 397 q 567 415 561 403 q 572 458 572 428 q 562 503 572 490 q 528 517 551 517 q 501 517 517 517 q 471 517 486 517 q 437 517 454 517 q 401 517 419 517 q 376 506 386 517 q 365 478 365 496 l 365 143 q 406 143 394 143 q 427 143 418 143 q 458 143 436 143 q 531 143 479 143 z "},"C":{"ha":921,"x_min":28,"x_max":881,"o":"m 28 319 q 52 478 28 415 q 135 578 76 542 q 296 629 194 614 q 550 644 397 644 q 659 641 608 644 q 767 631 710 638 q 858 596 836 622 q 881 521 881 569 l 881 425 q 773 452 831 442 q 660 468 715 463 q 564 474 606 474 q 444 466 492 474 q 374 426 397 458 q 351 318 351 393 q 376 216 351 249 q 453 174 400 183 q 589 165 506 165 q 669 170 628 165 q 762 184 711 175 q 881 206 813 193 l 881 117 q 857 44 881 72 q 760 8 833 17 q 651 -3 706 0 q 538 -6 596 -6 q 285 10 385 -6 q 130 61 186 25 q 51 160 74 97 q 28 319 28 224 z "},"Ć":{"ha":921,"x_min":28,"x_max":881,"o":"m 28 319 q 52 478 28 415 q 135 578 76 542 q 296 629 194 614 q 550 644 397 644 q 659 641 608 644 q 767 631 710 638 q 858 596 836 622 q 881 521 881 569 l 881 425 q 773 452 831 442 q 660 468 715 463 q 564 474 606 474 q 444 466 492 474 q 374 426 397 458 q 351 318 351 393 q 376 216 351 249 q 453 174 400 183 q 589 165 506 165 q 669 170 628 165 q 762 184 711 175 q 881 206 813 193 l 881 117 q 857 44 881 72 q 760 8 833 17 q 651 -3 706 0 q 538 -6 596 -6 q 285 10 385 -6 q 130 61 186 25 q 51 160 74 97 q 28 319 28 224 m 426 724 l 599 899 l 724 831 l 540 724 l 426 724 z "},"Č":{"ha":921,"x_min":28,"x_max":881,"o":"m 311 899 l 422 899 l 511 833 l 594 899 l 714 899 l 547 724 l 475 724 l 311 899 m 28 319 q 52 478 28 415 q 135 578 76 542 q 296 629 194 614 q 550 644 397 644 q 659 641 608 644 q 767 631 710 638 q 858 596 836 622 q 881 521 881 569 l 881 425 q 773 452 831 442 q 660 468 715 463 q 564 474 606 474 q 444 466 492 474 q 374 426 397 458 q 351 318 351 393 q 376 216 351 249 q 453 174 400 183 q 589 165 506 165 q 669 170 628 165 q 762 184 711 175 q 881 206 813 193 l 881 117 q 857 44 881 72 q 760 8 833 17 q 651 -3 706 0 q 538 -6 596 -6 q 285 10 385 -6 q 130 61 186 25 q 51 160 74 97 q 28 319 28 224 z "},"Ç":{"ha":921,"x_min":28,"x_max":881,"o":"m 28 319 q 52 478 28 415 q 135 578 76 542 q 296 629 194 614 q 550 644 397 644 q 659 641 608 644 q 767 631 710 638 q 858 596 836 622 q 881 521 881 569 l 881 425 q 773 452 831 442 q 660 468 715 463 q 564 474 606 474 q 444 466 492 474 q 374 426 397 458 q 351 318 351 393 q 376 216 351 249 q 453 174 400 183 q 589 165 506 165 q 669 170 628 165 q 762 184 711 175 q 881 206 813 193 l 881 117 q 857 44 881 72 q 760 8 833 17 q 651 -3 706 0 q 538 -6 596 -6 q 285 10 385 -6 q 130 61 186 25 q 51 160 74 97 q 28 319 28 224 m 454 -244 q 385 -233 399 -244 q 372 -182 372 -221 q 388 -182 375 -182 q 431 -182 400 -182 q 480 -179 467 -182 q 493 -162 493 -176 q 480 -144 493 -147 q 432 -142 467 -142 l 365 -142 q 367 -131 367 -142 q 375 -101 367 -121 q 408 -57 383 -82 q 431 -35 421 -44 q 453 -18 442 -25 q 476 -6 464 -11 q 501 1 488 -1 l 583 1 l 508 -83 q 595 -88 567 -83 q 633 -110 624 -93 q 642 -165 642 -128 q 630 -219 642 -203 q 578 -240 618 -236 q 454 -244 539 -244 z "},"Ĉ":{"ha":921,"x_min":28,"x_max":881,"o":"m 28 319 q 52 478 28 415 q 135 578 76 542 q 296 629 194 614 q 550 644 397 644 q 659 641 608 644 q 767 631 710 638 q 858 596 836 622 q 881 521 881 569 l 881 425 q 773 452 831 442 q 660 468 715 463 q 564 474 606 474 q 444 466 492 474 q 374 426 397 458 q 351 318 351 393 q 376 216 351 249 q 453 174 400 183 q 589 165 506 165 q 669 170 628 165 q 762 184 711 175 q 881 206 813 193 l 881 117 q 857 44 881 72 q 760 8 833 17 q 651 -3 706 0 q 538 -6 596 -6 q 285 10 385 -6 q 130 61 186 25 q 51 160 74 97 q 28 319 28 224 m 311 724 l 475 899 l 547 899 l 714 724 l 594 724 l 511 789 l 422 724 l 311 724 z "},"Ċ":{"ha":921,"x_min":28,"x_max":881,"o":"m 28 319 q 52 478 28 415 q 135 578 76 542 q 296 629 194 614 q 550 644 397 644 q 659 641 608 644 q 767 631 710 638 q 858 596 836 622 q 881 521 881 569 l 881 425 q 773 452 831 442 q 660 468 715 463 q 564 474 606 474 q 444 466 492 474 q 374 426 397 458 q 351 318 351 393 q 376 216 351 249 q 453 174 400 183 q 589 165 506 165 q 669 170 628 165 q 762 184 711 175 q 881 206 813 193 l 881 117 q 857 44 881 72 q 760 8 833 17 q 651 -3 706 0 q 538 -6 596 -6 q 285 10 385 -6 q 130 61 186 25 q 51 160 74 97 q 28 319 28 224 m 513 719 q 444 728 471 719 q 418 781 418 738 q 447 831 418 821 q 517 842 475 842 q 581 831 557 842 q 606 781 606 819 q 581 728 606 738 q 513 719 556 719 z "},"D":{"ha":963,"x_min":49,"x_max":935,"o":"m 935 319 q 913 164 935 226 q 844 66 892 101 q 717 15 796 31 q 524 0 639 0 q 377 0 443 0 q 255 0 311 0 q 148 0 199 0 q 49 0 97 0 l 49 544 q 74 617 49 596 q 154 639 99 639 q 247 639 200 639 q 339 639 293 639 q 431 639 385 639 q 524 639 478 639 q 717 624 639 639 q 844 573 796 608 q 913 476 892 538 q 935 319 935 414 m 365 156 q 395 156 381 156 q 424 156 410 156 q 454 156 439 156 q 483 156 469 156 q 541 163 517 156 q 581 190 565 171 q 603 240 596 208 q 610 319 610 272 q 596 424 610 389 q 552 471 582 458 q 471 483 522 483 q 436 483 454 483 q 401 483 418 483 q 365 483 383 483 q 365 463 365 474 q 365 442 365 453 l 365 156 z "},"Ď":{"ha":963,"x_min":49,"x_max":935,"o":"m 296 899 l 407 899 l 496 833 l 579 899 l 699 899 l 532 724 l 460 724 l 296 899 m 935 319 q 913 164 935 226 q 844 66 892 101 q 717 15 796 31 q 524 0 639 0 q 377 0 443 0 q 255 0 311 0 q 148 0 199 0 q 49 0 97 0 l 49 544 q 74 617 49 596 q 154 639 99 639 q 247 639 200 639 q 339 639 293 639 q 431 639 385 639 q 524 639 478 639 q 717 624 639 639 q 844 573 796 608 q 913 476 892 538 q 935 319 935 414 m 365 156 q 395 156 381 156 q 424 156 410 156 q 454 156 439 156 q 483 156 469 156 q 541 163 517 156 q 581 190 565 171 q 603 240 596 208 q 610 319 610 272 q 596 424 610 389 q 552 471 582 458 q 471 483 522 483 q 436 483 454 483 q 401 483 418 483 q 365 483 383 483 q 365 463 365 474 q 365 442 365 453 l 365 156 z "},"Đ":{"ha":963,"x_min":-7,"x_max":935,"o":"m 935 319 q 913 164 935 226 q 844 66 892 101 q 717 15 796 31 q 524 0 639 0 q 377 0 443 0 q 255 0 311 0 q 148 0 199 0 q 49 0 97 0 l 49 544 q 74 617 49 596 q 154 639 99 639 q 247 639 200 639 q 339 639 293 639 q 431 639 385 639 q 524 639 478 639 q 717 624 639 639 q 844 573 796 608 q 913 476 892 538 q 935 319 935 414 m 365 156 q 395 156 381 156 q 424 156 410 156 q 454 156 439 156 q 483 156 469 156 q 541 163 517 156 q 581 190 565 171 q 603 240 596 208 q 610 319 610 272 q 596 424 610 389 q 552 471 582 458 q 471 483 522 483 q 436 483 454 483 q 401 483 418 483 q 365 483 383 483 q 365 463 365 474 q 365 442 365 453 l 365 156 m -7 354 l 515 354 l 515 268 l -7 268 l -7 354 z "},"∆":{"ha":850,"x_min":49,"x_max":801,"o":"m 801 0 l 49 0 l 418 781 l 801 0 m 531 135 q 492 226 511 181 q 453 319 472 272 q 414 411 433 365 q 375 503 394 457 l 197 135 l 531 135 z "},"ǅ":{"ha":1675,"x_min":49,"x_max":1654,"o":"m 1121 842 l 1232 842 l 1321 756 l 1404 842 l 1524 842 l 1357 639 l 1285 639 l 1121 842 m 935 319 q 913 164 935 226 q 844 66 892 101 q 717 15 796 31 q 524 0 639 0 q 377 0 443 0 q 255 0 311 0 q 148 0 199 0 q 49 0 97 0 l 49 544 q 74 617 49 596 q 154 639 99 639 q 247 639 200 639 q 339 639 293 639 q 431 639 385 639 q 524 639 478 639 q 717 624 639 639 q 844 573 796 608 q 913 476 892 538 q 935 319 935 414 m 365 156 q 395 156 381 156 q 424 156 410 156 q 454 156 439 156 q 483 156 469 156 q 541 163 517 156 q 581 190 565 171 q 603 240 596 208 q 610 319 610 272 q 596 424 610 389 q 552 471 582 458 q 471 483 522 483 q 436 483 454 483 q 401 483 418 483 q 365 483 383 483 q 365 463 365 474 q 365 442 365 453 l 365 156 m 1358 149 l 1654 149 l 1654 86 q 1633 17 1654 35 q 1560 0 1613 0 l 990 0 l 990 135 l 1244 406 l 999 406 l 999 479 q 1019 534 999 514 q 1064 554 1039 554 l 1638 554 q 1630 485 1646 525 q 1588 408 1614 446 q 1540 344 1563 369 l 1358 149 z "},"E":{"ha":900,"x_min":56,"x_max":865,"o":"m 56 0 l 56 546 q 76 622 56 604 q 158 639 97 639 l 865 639 l 865 478 l 372 478 l 372 401 l 817 401 l 817 242 l 372 242 l 372 161 l 865 161 l 865 0 l 56 0 z "},"É":{"ha":900,"x_min":56,"x_max":865,"o":"m 56 0 l 56 546 q 76 622 56 604 q 158 639 97 639 l 865 639 l 865 478 l 372 478 l 372 401 l 817 401 l 817 242 l 372 242 l 372 161 l 865 161 l 865 0 l 56 0 m 375 724 l 547 899 l 672 831 l 489 724 l 375 724 z "},"Ĕ":{"ha":900,"x_min":56,"x_max":865,"o":"m 56 0 l 56 546 q 76 622 56 604 q 158 639 97 639 l 865 639 l 865 478 l 372 478 l 372 401 l 817 401 l 817 242 l 372 242 l 372 161 l 865 161 l 865 0 l 56 0 m 461 721 q 351 733 392 721 q 292 781 310 744 q 275 886 275 817 l 275 899 l 378 899 l 378 889 q 384 854 378 869 q 408 831 390 839 q 461 822 426 822 q 515 831 497 822 q 538 854 532 839 q 543 889 543 869 l 543 899 l 646 899 l 646 886 q 628 781 646 817 q 571 733 611 744 q 461 721 531 721 z "},"Ě":{"ha":900,"x_min":56,"x_max":865,"o":"m 260 899 l 371 899 l 460 833 l 543 899 l 663 899 l 496 724 l 424 724 l 260 899 m 56 0 l 56 546 q 76 622 56 604 q 158 639 97 639 l 865 639 l 865 478 l 372 478 l 372 401 l 817 401 l 817 242 l 372 242 l 372 161 l 865 161 l 865 0 l 56 0 z "},"Ê":{"ha":900,"x_min":56,"x_max":865,"o":"m 56 0 l 56 546 q 76 622 56 604 q 158 639 97 639 l 865 639 l 865 478 l 372 478 l 372 401 l 817 401 l 817 242 l 372 242 l 372 161 l 865 161 l 865 0 l 56 0 m 260 724 l 424 899 l 496 899 l 663 724 l 543 724 l 460 789 l 371 724 l 260 724 z "},"Ế":{"ha":900,"x_min":56,"x_max":913,"o":"m 56 0 l 56 546 q 76 622 56 604 q 158 639 97 639 l 865 639 l 865 478 l 372 478 l 372 401 l 817 401 l 817 242 l 372 242 l 372 161 l 865 161 l 865 0 l 56 0 m 260 724 l 424 899 l 496 899 l 663 724 l 543 724 l 460 789 l 371 724 l 260 724 m 615 875 l 788 1050 l 913 982 l 729 875 l 615 875 z "},"Ệ":{"ha":900,"x_min":56,"x_max":865,"o":"m 56 0 l 56 546 q 76 622 56 604 q 158 639 97 639 l 865 639 l 865 478 l 372 478 l 372 401 l 817 401 l 817 242 l 372 242 l 372 161 l 865 161 l 865 0 l 56 0 m 461 -254 q 390 -249 421 -254 q 342 -226 360 -244 q 325 -167 325 -208 q 366 -94 325 -108 q 467 -79 407 -79 q 561 -94 526 -79 q 596 -167 596 -110 q 579 -226 596 -208 q 533 -249 563 -244 q 461 -254 503 -254 m 260 724 l 424 899 l 496 899 l 663 724 l 543 724 l 460 789 l 371 724 l 260 724 z "},"Ề":{"ha":900,"x_min":56,"x_max":865,"o":"m 56 0 l 56 546 q 76 622 56 604 q 158 639 97 639 l 865 639 l 865 478 l 372 478 l 372 401 l 817 401 l 817 242 l 372 242 l 372 161 l 865 161 l 865 0 l 56 0 m 260 724 l 424 899 l 496 899 l 663 724 l 543 724 l 460 789 l 371 724 l 260 724 m 697 875 l 514 982 l 639 1050 l 811 875 l 697 875 z "},"Ể":{"ha":900,"x_min":56,"x_max":865,"o":"m 56 0 l 56 546 q 76 622 56 604 q 158 639 97 639 l 865 639 l 865 478 l 372 478 l 372 401 l 817 401 l 817 242 l 372 242 l 372 161 l 865 161 l 865 0 l 56 0 m 260 724 l 424 899 l 496 899 l 663 724 l 543 724 l 460 789 l 371 724 l 260 724 m 588 889 l 588 908 q 594 932 588 924 q 610 944 601 940 q 626 955 619 949 q 633 972 633 961 l 633 989 q 631 1010 633 1003 q 618 1017 628 1017 q 603 989 603 1017 l 510 1003 q 542 1069 513 1047 q 628 1092 571 1092 q 722 1071 690 1092 q 754 997 754 1050 l 754 992 q 747 953 754 967 q 728 933 739 940 q 709 918 717 925 q 701 900 701 911 l 701 889 l 588 889 z "},"Ễ":{"ha":900,"x_min":56,"x_max":865,"o":"m 56 0 l 56 546 q 76 622 56 604 q 158 639 97 639 l 865 639 l 865 478 l 372 478 l 372 401 l 817 401 l 817 242 l 372 242 l 372 161 l 865 161 l 865 0 l 56 0 m 260 724 l 424 899 l 496 899 l 663 724 l 543 724 l 460 789 l 371 724 l 260 724 m 550 924 q 492 938 519 922 q 438 971 465 954 q 381 985 411 988 q 335 967 353 985 q 313 942 318 949 l 265 985 q 273 1001 265 985 q 295 1040 281 1018 q 331 1080 310 1063 q 381 1097 353 1097 q 438 1084 411 1100 q 492 1052 465 1068 q 547 1036 519 1036 q 598 1055 579 1036 q 625 1086 617 1074 l 672 1049 q 664 1030 672 1049 q 640 987 656 1011 q 602 943 625 963 q 550 924 579 924 z "},"Ȅ":{"ha":900,"x_min":56,"x_max":865,"o":"m 56 0 l 56 546 q 76 622 56 604 q 158 639 97 639 l 865 639 l 865 478 l 372 478 l 372 401 l 817 401 l 817 242 l 372 242 l 372 161 l 865 161 l 865 0 l 56 0 m 344 724 l 156 851 l 300 919 l 458 724 l 344 724 m 518 724 l 372 894 l 517 961 l 619 724 l 518 724 z "},"Ë":{"ha":900,"x_min":56,"x_max":865,"o":"m 56 0 l 56 546 q 76 622 56 604 q 158 639 97 639 l 865 639 l 865 478 l 372 478 l 372 401 l 817 401 l 817 242 l 372 242 l 372 161 l 865 161 l 865 0 l 56 0 m 610 721 q 540 733 567 721 q 513 792 513 744 q 542 847 513 836 q 614 857 571 857 q 681 845 656 857 q 706 792 706 833 q 680 733 706 744 q 610 721 654 721 m 313 721 q 242 733 269 721 q 215 792 215 744 q 244 847 215 836 q 317 857 274 857 q 383 845 358 857 q 407 792 407 833 q 381 733 407 744 q 313 721 356 721 z "},"Ė":{"ha":900,"x_min":56,"x_max":865,"o":"m 56 0 l 56 546 q 76 622 56 604 q 158 639 97 639 l 865 639 l 865 478 l 372 478 l 372 401 l 817 401 l 817 242 l 372 242 l 372 161 l 865 161 l 865 0 l 56 0 m 461 719 q 393 728 419 719 q 367 781 367 738 q 395 831 367 821 q 465 842 424 842 q 530 831 506 842 q 554 781 554 819 q 529 728 554 738 q 461 719 504 719 z "},"Ẹ":{"ha":900,"x_min":56,"x_max":865,"o":"m 56 0 l 56 546 q 76 622 56 604 q 158 639 97 639 l 865 639 l 865 478 l 372 478 l 372 401 l 817 401 l 817 242 l 372 242 l 372 161 l 865 161 l 865 0 l 56 0 m 461 -254 q 390 -249 421 -254 q 342 -226 360 -244 q 325 -167 325 -208 q 366 -94 325 -108 q 467 -79 407 -79 q 561 -94 526 -79 q 596 -167 596 -110 q 579 -226 596 -208 q 533 -249 563 -244 q 461 -254 503 -254 z "},"È":{"ha":900,"x_min":56,"x_max":865,"o":"m 56 0 l 56 546 q 76 622 56 604 q 158 639 97 639 l 865 639 l 865 478 l 372 478 l 372 401 l 817 401 l 817 242 l 372 242 l 372 161 l 865 161 l 865 0 l 56 0 m 457 724 l 274 831 l 399 899 l 571 724 l 457 724 z "},"Ẻ":{"ha":900,"x_min":56,"x_max":865,"o":"m 56 0 l 56 546 q 76 622 56 604 q 158 639 97 639 l 865 639 l 865 478 l 372 478 l 372 401 l 817 401 l 817 242 l 372 242 l 372 161 l 865 161 l 865 0 l 56 0 m 417 724 l 417 743 q 424 767 417 758 q 440 779 431 775 q 456 790 449 783 q 463 807 463 796 l 463 824 q 460 844 463 838 q 447 851 457 851 q 432 824 432 851 l 339 838 q 371 904 342 882 q 457 926 400 926 q 551 906 519 926 q 583 832 583 885 l 583 826 q 576 788 583 801 q 557 767 568 775 q 538 753 546 760 q 531 735 531 746 l 531 724 l 417 724 z "},"Ȇ":{"ha":900,"x_min":56,"x_max":865,"o":"m 56 0 l 56 546 q 76 622 56 604 q 158 639 97 639 l 865 639 l 865 478 l 372 478 l 372 401 l 817 401 l 817 242 l 372 242 l 372 161 l 865 161 l 865 0 l 56 0 m 275 721 l 275 733 q 292 840 275 804 q 351 887 310 875 q 461 899 392 899 q 571 887 531 899 q 628 840 611 875 q 646 733 646 804 l 646 721 l 543 721 l 543 731 q 538 765 543 750 q 515 789 532 781 q 461 797 497 797 q 409 789 426 797 q 385 766 392 781 q 378 732 379 751 l 378 721 l 275 721 z "},"Ē":{"ha":900,"x_min":56,"x_max":865,"o":"m 56 0 l 56 546 q 76 622 56 604 q 158 639 97 639 l 865 639 l 865 478 l 372 478 l 372 401 l 817 401 l 817 242 l 372 242 l 372 161 l 865 161 l 865 0 l 56 0 m 240 724 l 240 832 l 681 832 l 681 724 l 240 724 z "},"Ŋ":{"ha":989,"x_min":56,"x_max":933,"o":"m 56 0 q 60 26 58 4 q 63 74 63 47 q 63 310 63 192 q 63 546 63 428 q 90 620 63 601 q 186 639 118 639 q 329 639 258 639 q 472 639 400 639 q 588 472 531 556 q 704 306 646 389 q 704 472 704 389 q 704 639 704 556 q 819 639 761 639 q 933 639 876 639 q 929 617 931 636 q 928 576 928 599 q 928 536 928 553 q 928 229 928 383 q 928 -78 928 75 q 927 -122 928 -100 q 924 -158 926 -143 q 882 -236 915 -210 q 806 -272 849 -262 q 721 -285 763 -282 q 626 -287 667 -287 q 547 -283 586 -286 q 454 -275 507 -279 q 454 -185 454 -231 q 454 -94 454 -139 q 510 -110 474 -101 q 569 -119 546 -119 q 603 -103 594 -119 q 611 -65 611 -86 q 611 -33 611 -49 q 611 0 611 -17 q 571 0 592 0 q 531 0 550 0 l 288 347 q 288 174 288 261 q 288 0 288 86 q 172 0 229 0 q 56 0 114 0 z "},"Ę":{"ha":900,"x_min":56,"x_max":865,"o":"m 56 0 l 56 546 q 76 622 56 604 q 158 639 97 639 l 865 639 l 865 478 l 372 478 l 372 401 l 817 401 l 817 242 l 372 242 l 372 161 l 865 161 l 865 0 l 56 0 m 669 -265 q 580 -250 610 -265 q 540 -208 550 -235 q 531 -146 531 -181 q 543 -87 531 -112 q 575 -41 556 -61 q 616 -8 594 -21 q 656 14 638 6 l 781 14 q 747 -3 768 10 q 704 -32 726 -15 q 667 -69 682 -49 q 651 -110 651 -89 q 673 -155 651 -147 q 725 -162 694 -162 q 772 -162 760 -162 q 785 -160 783 -161 q 790 -160 788 -160 q 783 -219 790 -196 q 749 -254 775 -243 q 669 -265 724 -265 z "},"Ð":{"ha":963,"x_min":-7,"x_max":935,"o":"m 935 319 q 913 164 935 226 q 844 66 892 101 q 717 15 796 31 q 524 0 639 0 q 377 0 443 0 q 255 0 311 0 q 148 0 199 0 q 49 0 97 0 l 49 544 q 74 617 49 596 q 154 639 99 639 q 247 639 200 639 q 339 639 293 639 q 431 639 385 639 q 524 639 478 639 q 717 624 639 639 q 844 573 796 608 q 913 476 892 538 q 935 319 935 414 m 365 156 q 395 156 381 156 q 424 156 410 156 q 454 156 439 156 q 483 156 469 156 q 541 163 517 156 q 581 190 565 171 q 603 240 596 208 q 610 319 610 272 q 596 424 610 389 q 552 471 582 458 q 471 483 522 483 q 436 483 454 483 q 401 483 418 483 q 365 483 383 483 q 365 463 365 474 q 365 442 365 453 l 365 156 m -7 354 l 515 354 l 515 268 l -7 268 l -7 354 z "},"Ẽ":{"ha":900,"x_min":56,"x_max":865,"o":"m 56 0 l 56 546 q 76 622 56 604 q 158 639 97 639 l 865 639 l 865 478 l 372 478 l 372 401 l 817 401 l 817 242 l 372 242 l 372 161 l 865 161 l 865 0 l 56 0 m 549 726 q 491 741 518 725 q 437 774 464 757 q 379 788 410 790 q 334 769 351 788 q 311 744 317 751 l 264 788 q 272 804 264 788 q 294 843 279 821 q 330 883 308 865 q 379 900 351 900 q 437 887 410 903 q 491 855 464 871 q 546 839 518 839 q 597 858 578 839 q 624 889 615 876 l 671 851 q 663 833 671 851 q 639 790 654 814 q 601 746 624 765 q 549 726 578 726 z "},"€":{"ha":939,"x_min":14,"x_max":899,"o":"m 88 314 q 125 497 88 431 q 228 594 163 564 q 379 633 293 625 q 561 642 465 642 q 675 638 622 642 q 785 628 728 635 q 876 593 854 619 q 899 518 899 567 l 899 422 q 790 449 849 439 q 674 465 731 460 q 575 471 618 471 q 472 463 513 471 q 410 423 431 456 q 390 315 390 390 q 412 213 390 246 q 480 172 433 181 q 600 163 526 163 q 683 167 640 163 q 778 181 726 172 q 899 203 831 190 l 899 114 q 875 42 899 69 q 778 6 851 14 q 666 -6 724 -3 q 549 -8 608 -8 q 347 3 433 -8 q 202 49 260 15 q 116 146 144 82 q 88 314 88 210 m 39 407 l 692 407 l 669 332 l 17 332 l 39 407 m 38 296 l 685 296 l 661 221 l 14 221 l 38 296 z "},"F":{"ha":893,"x_min":56,"x_max":867,"o":"m 56 0 l 56 528 q 60 594 56 569 q 85 628 64 618 q 158 639 107 639 l 867 639 l 867 478 l 374 478 l 374 401 l 818 401 l 818 242 l 374 242 l 374 0 l 56 0 z "},"G":{"ha":982,"x_min":28,"x_max":949,"o":"m 488 -4 q 281 7 368 -4 q 138 51 194 18 q 55 148 82 85 q 28 315 28 211 q 63 494 28 428 q 160 593 97 561 q 306 635 222 625 q 488 646 390 646 q 703 642 611 646 q 829 631 796 639 q 894 603 875 622 q 919 560 914 583 q 924 514 924 536 l 924 440 q 881 461 917 453 q 794 474 844 469 q 693 481 744 479 q 601 484 642 483 q 543 485 560 485 q 432 474 474 485 q 372 428 390 464 q 353 315 353 393 q 371 212 353 246 q 424 167 389 178 q 510 157 458 157 q 592 164 564 157 q 632 185 621 171 q 643 218 643 199 q 643 231 643 225 q 643 242 643 236 l 425 242 q 433 339 425 304 q 469 388 440 374 q 564 403 499 403 l 949 403 l 947 219 q 931 119 947 161 q 868 49 915 76 q 729 9 821 22 q 488 -4 638 -4 z "},"Ğ":{"ha":982,"x_min":28,"x_max":949,"o":"m 488 -4 q 281 7 368 -4 q 138 51 194 18 q 55 148 82 85 q 28 315 28 211 q 63 494 28 428 q 160 593 97 561 q 306 635 222 625 q 488 646 390 646 q 703 642 611 646 q 829 631 796 639 q 894 603 875 622 q 919 560 914 583 q 924 514 924 536 l 924 440 q 881 461 917 453 q 794 474 844 469 q 693 481 744 479 q 601 484 642 483 q 543 485 560 485 q 432 474 474 485 q 372 428 390 464 q 353 315 353 393 q 371 212 353 246 q 424 167 389 178 q 510 157 458 157 q 592 164 564 157 q 632 185 621 171 q 643 218 643 199 q 643 231 643 225 q 643 242 643 236 l 425 242 q 433 339 425 304 q 469 388 440 374 q 564 403 499 403 l 949 403 l 947 219 q 931 119 947 161 q 868 49 915 76 q 729 9 821 22 q 488 -4 638 -4 m 497 721 q 387 733 428 721 q 328 781 346 744 q 311 886 311 817 l 311 899 l 414 899 l 414 889 q 420 854 414 869 q 444 831 426 839 q 497 822 463 822 q 551 831 533 822 q 574 854 568 839 q 579 889 579 869 l 579 899 l 682 899 l 682 886 q 665 781 682 817 q 607 733 647 744 q 497 721 567 721 z "},"Ǧ":{"ha":982,"x_min":28,"x_max":949,"o":"m 296 899 l 407 899 l 496 833 l 579 899 l 699 899 l 532 724 l 460 724 l 296 899 m 488 -4 q 281 7 368 -4 q 138 51 194 18 q 55 148 82 85 q 28 315 28 211 q 63 494 28 428 q 160 593 97 561 q 306 635 222 625 q 488 646 390 646 q 703 642 611 646 q 829 631 796 639 q 894 603 875 622 q 919 560 914 583 q 924 514 924 536 l 924 440 q 881 461 917 453 q 794 474 844 469 q 693 481 744 479 q 601 484 642 483 q 543 485 560 485 q 432 474 474 485 q 372 428 390 464 q 353 315 353 393 q 371 212 353 246 q 424 167 389 178 q 510 157 458 157 q 592 164 564 157 q 632 185 621 171 q 643 218 643 199 q 643 231 643 225 q 643 242 643 236 l 425 242 q 433 339 425 304 q 469 388 440 374 q 564 403 499 403 l 949 403 l 947 219 q 931 119 947 161 q 868 49 915 76 q 729 9 821 22 q 488 -4 638 -4 z "},"Ģ":{"ha":982,"x_min":28,"x_max":949,"o":"m 488 -4 q 281 7 368 -4 q 138 51 194 18 q 55 148 82 85 q 28 315 28 211 q 63 494 28 428 q 160 593 97 561 q 306 635 222 625 q 488 646 390 646 q 703 642 611 646 q 829 631 796 639 q 894 603 875 622 q 919 560 914 583 q 924 514 924 536 l 924 440 q 881 461 917 453 q 794 474 844 469 q 693 481 744 479 q 601 484 642 483 q 543 485 560 485 q 432 474 474 485 q 372 428 390 464 q 353 315 353 393 q 371 212 353 246 q 424 167 389 178 q 510 157 458 157 q 592 164 564 157 q 632 185 621 171 q 643 218 643 199 q 643 231 643 225 q 643 242 643 236 l 425 242 q 433 339 425 304 q 469 388 440 374 q 564 403 499 403 l 949 403 l 947 219 q 931 119 947 161 q 868 49 915 76 q 729 9 821 22 q 488 -4 638 -4 m 378 -408 q 410 -353 397 -375 q 437 -308 424 -331 q 467 -254 450 -286 q 453 -253 461 -254 q 439 -251 446 -253 q 398 -231 415 -247 q 381 -171 381 -215 q 415 -99 381 -114 q 508 -85 449 -85 q 553 -90 532 -85 q 590 -115 575 -96 q 604 -171 604 -133 q 590 -251 604 -210 q 551 -333 575 -293 q 499 -408 526 -374 l 378 -408 z "},"Ĝ":{"ha":982,"x_min":28,"x_max":949,"o":"m 488 -4 q 281 7 368 -4 q 138 51 194 18 q 55 148 82 85 q 28 315 28 211 q 63 494 28 428 q 160 593 97 561 q 306 635 222 625 q 488 646 390 646 q 703 642 611 646 q 829 631 796 639 q 894 603 875 622 q 919 560 914 583 q 924 514 924 536 l 924 440 q 881 461 917 453 q 794 474 844 469 q 693 481 744 479 q 601 484 642 483 q 543 485 560 485 q 432 474 474 485 q 372 428 390 464 q 353 315 353 393 q 371 212 353 246 q 424 167 389 178 q 510 157 458 157 q 592 164 564 157 q 632 185 621 171 q 643 218 643 199 q 643 231 643 225 q 643 242 643 236 l 425 242 q 433 339 425 304 q 469 388 440 374 q 564 403 499 403 l 949 403 l 947 219 q 931 119 947 161 q 868 49 915 76 q 729 9 821 22 q 488 -4 638 -4 m 296 724 l 460 899 l 532 899 l 699 724 l 579 724 l 496 789 l 407 724 l 296 724 z "},"Ġ":{"ha":982,"x_min":28,"x_max":949,"o":"m 488 -4 q 281 7 368 -4 q 138 51 194 18 q 55 148 82 85 q 28 315 28 211 q 63 494 28 428 q 160 593 97 561 q 306 635 222 625 q 488 646 390 646 q 703 642 611 646 q 829 631 796 639 q 894 603 875 622 q 919 560 914 583 q 924 514 924 536 l 924 440 q 881 461 917 453 q 794 474 844 469 q 693 481 744 479 q 601 484 642 483 q 543 485 560 485 q 432 474 474 485 q 372 428 390 464 q 353 315 353 393 q 371 212 353 246 q 424 167 389 178 q 510 157 458 157 q 592 164 564 157 q 632 185 621 171 q 643 218 643 199 q 643 231 643 225 q 643 242 643 236 l 425 242 q 433 339 425 304 q 469 388 440 374 q 564 403 499 403 l 949 403 l 947 219 q 931 119 947 161 q 868 49 915 76 q 729 9 821 22 q 488 -4 638 -4 m 497 719 q 429 728 456 719 q 403 781 403 738 q 431 831 403 821 q 501 842 460 842 q 566 831 542 842 q 590 781 590 819 q 565 728 590 738 q 497 719 540 719 z "},"ẞ":{"ha":1211,"x_min":208,"x_max":1143,"o":"m 208 -33 q 208 66 208 26 q 208 141 208 106 q 208 223 208 176 q 208 343 208 269 q 208 535 208 417 q 235 619 208 586 q 317 672 261 653 q 458 698 372 690 q 661 706 543 706 q 854 699 769 706 q 997 677 939 693 q 1086 633 1056 661 q 1117 563 1117 606 q 1090 495 1117 522 q 1028 453 1064 468 q 963 431 993 438 q 924 421 932 424 q 894 413 907 417 q 874 406 882 410 q 861 395 865 401 q 857 381 857 389 q 869 360 857 363 q 907 357 882 357 q 949 357 917 357 q 1001 357 981 357 q 1086 335 1056 357 q 1130 274 1117 313 q 1143 188 1143 236 q 1112 63 1143 104 q 1029 7 1081 21 q 917 -7 978 -7 q 810 -7 861 -7 q 715 -3 760 -7 q 630 10 669 0 q 558 42 590 21 l 543 149 q 610 131 568 138 q 700 121 653 124 q 785 118 747 118 q 847 124 828 118 q 869 139 865 129 q 874 163 874 149 q 865 190 874 181 q 826 199 857 199 q 797 199 814 199 q 738 199 781 199 q 643 211 682 199 q 584 251 604 224 q 564 324 564 279 q 579 390 564 360 q 624 444 594 419 q 695 488 653 468 q 790 521 738 507 q 774 566 790 550 q 734 589 757 582 q 690 597 711 596 q 661 599 669 599 q 606 593 635 599 q 552 574 576 588 q 513 536 528 561 q 497 471 497 511 l 497 -33 l 208 -33 z "},"H":{"ha":978,"x_min":56,"x_max":922,"o":"m 56 0 l 56 558 q 79 625 56 611 q 158 639 103 639 l 372 639 l 372 413 l 606 413 l 606 639 l 922 639 l 922 93 q 904 19 922 38 q 818 0 886 0 l 606 0 l 606 253 l 372 253 l 372 0 l 56 0 z "},"Ħ":{"ha":978,"x_min":11,"x_max":967,"o":"m 56 0 l 56 558 q 79 625 56 611 q 158 639 103 639 l 372 639 l 372 413 l 606 413 l 606 639 l 922 639 l 922 93 q 904 19 922 38 q 818 0 886 0 l 606 0 l 606 253 l 372 253 l 372 0 l 56 0 m 11 558 l 967 558 l 967 483 l 11 483 l 11 558 z "},"Ĥ":{"ha":978,"x_min":56,"x_max":922,"o":"m 56 0 l 56 558 q 79 625 56 611 q 158 639 103 639 l 372 639 l 372 413 l 606 413 l 606 639 l 922 639 l 922 93 q 904 19 922 38 q 818 0 886 0 l 606 0 l 606 253 l 372 253 l 372 0 l 56 0 m 288 724 l 451 899 l 524 899 l 690 724 l 571 724 l 488 789 l 399 724 l 288 724 z "},"I":{"ha":428,"x_min":56,"x_max":372,"o":"m 56 0 q 56 274 56 138 q 56 547 56 411 q 60 597 56 576 q 87 628 65 618 q 158 639 108 639 l 372 639 l 372 0 l 56 0 z "},"Ĳ":{"ha":978,"x_min":56,"x_max":929,"o":"m 56 0 q 56 274 56 138 q 56 547 56 411 q 60 597 56 576 q 87 628 65 618 q 158 639 108 639 l 372 639 l 372 0 l 56 0 m 929 206 q 928 162 929 183 q 925 125 928 140 q 883 47 917 74 q 807 11 850 21 q 722 -1 764 1 q 628 -3 668 -4 q 548 1 588 -3 q 456 8 508 4 l 456 189 q 511 173 475 182 q 571 164 547 164 q 604 181 596 164 q 613 218 613 197 l 613 639 l 826 639 q 902 626 881 639 q 926 589 924 614 q 929 526 929 564 l 929 206 z "},"Í":{"ha":428,"x_min":56,"x_max":425,"o":"m 56 0 q 56 274 56 138 q 56 547 56 411 q 60 597 56 576 q 87 628 65 618 q 158 639 108 639 l 372 639 l 372 0 l 56 0 m 128 724 l 300 899 l 425 831 l 242 724 l 128 724 z "},"Ĭ":{"ha":428,"x_min":28,"x_max":399,"o":"m 56 0 q 56 274 56 138 q 56 547 56 411 q 60 597 56 576 q 87 628 65 618 q 158 639 108 639 l 372 639 l 372 0 l 56 0 m 214 721 q 103 733 144 721 q 45 781 63 744 q 28 886 28 817 l 28 899 l 131 899 l 131 889 q 137 854 131 869 q 161 831 143 839 q 214 822 179 822 q 267 831 250 822 q 290 854 285 839 q 296 889 296 869 l 296 899 l 399 899 l 399 886 q 381 781 399 817 q 324 733 364 744 q 214 721 283 721 z "},"Î":{"ha":428,"x_min":13,"x_max":415,"o":"m 56 0 q 56 274 56 138 q 56 547 56 411 q 60 597 56 576 q 87 628 65 618 q 158 639 108 639 l 372 639 l 372 0 l 56 0 m 13 724 l 176 899 l 249 899 l 415 724 l 296 724 l 213 789 l 124 724 l 13 724 z "},"Ȉ":{"ha":428,"x_min":-92,"x_max":372,"o":"m 56 0 q 56 274 56 138 q 56 547 56 411 q 60 597 56 576 q 87 628 65 618 q 158 639 108 639 l 372 639 l 372 0 l 56 0 m 97 724 l -92 851 l 53 919 l 211 724 l 97 724 m 271 724 l 125 894 l 269 961 l 372 724 l 271 724 z "},"Ï":{"ha":428,"x_min":-32,"x_max":458,"o":"m 56 0 q 56 274 56 138 q 56 547 56 411 q 60 597 56 576 q 87 628 65 618 q 158 639 108 639 l 372 639 l 372 0 l 56 0 m 363 721 q 292 733 319 721 q 265 792 265 744 q 294 847 265 836 q 367 857 324 857 q 433 845 408 857 q 458 792 458 833 q 433 733 458 744 q 363 721 407 721 m 65 721 q -5 733 22 721 q -32 792 -32 744 q -3 847 -32 836 q 69 857 26 857 q 135 845 111 857 q 160 792 160 833 q 134 733 160 744 q 65 721 108 721 z "},"İ":{"ha":428,"x_min":56,"x_max":372,"o":"m 56 0 q 56 274 56 138 q 56 547 56 411 q 60 597 56 576 q 87 628 65 618 q 158 639 108 639 l 372 639 l 372 0 l 56 0 m 214 719 q 146 728 172 719 q 119 781 119 738 q 148 831 119 821 q 218 842 176 842 q 283 831 258 842 q 307 781 307 819 q 282 728 307 738 q 214 719 257 719 z "},"Ị":{"ha":428,"x_min":56,"x_max":372,"o":"m 56 0 q 56 274 56 138 q 56 547 56 411 q 60 597 56 576 q 87 628 65 618 q 158 639 108 639 l 372 639 l 372 0 l 56 0 m 214 -254 q 143 -249 174 -254 q 95 -226 113 -244 q 78 -167 78 -208 q 119 -94 78 -108 q 219 -79 160 -79 q 314 -94 279 -79 q 349 -167 349 -110 q 332 -226 349 -208 q 285 -249 315 -244 q 214 -254 256 -254 z "},"Ì":{"ha":428,"x_min":26,"x_max":372,"o":"m 56 0 q 56 274 56 138 q 56 547 56 411 q 60 597 56 576 q 87 628 65 618 q 158 639 108 639 l 372 639 l 372 0 l 56 0 m 210 724 l 26 831 l 151 899 l 324 724 l 210 724 z "},"Ỉ":{"ha":428,"x_min":56,"x_max":372,"o":"m 56 0 q 56 274 56 138 q 56 547 56 411 q 60 597 56 576 q 87 628 65 618 q 158 639 108 639 l 372 639 l 372 0 l 56 0 m 169 724 l 169 743 q 176 767 169 758 q 192 779 183 775 q 208 790 201 783 q 215 807 215 796 l 215 824 q 213 844 215 838 q 200 851 210 851 q 185 824 185 851 l 92 838 q 124 904 94 882 q 210 926 153 926 q 304 906 272 926 q 336 832 336 885 l 336 826 q 328 788 336 801 q 310 767 321 775 q 291 753 299 760 q 283 735 283 746 l 283 724 l 169 724 z "},"Ȋ":{"ha":428,"x_min":28,"x_max":399,"o":"m 56 0 q 56 274 56 138 q 56 547 56 411 q 60 597 56 576 q 87 628 65 618 q 158 639 108 639 l 372 639 l 372 0 l 56 0 m 28 721 l 28 733 q 45 840 28 804 q 103 887 63 875 q 214 899 144 899 q 324 887 283 899 q 381 840 364 875 q 399 733 399 804 l 399 721 l 296 721 l 296 731 q 290 765 296 750 q 267 789 285 781 q 214 797 250 797 q 162 789 179 797 q 138 766 144 781 q 131 732 132 751 l 131 721 l 28 721 z "},"Ī":{"ha":428,"x_min":-7,"x_max":433,"o":"m 56 0 q 56 274 56 138 q 56 547 56 411 q 60 597 56 576 q 87 628 65 618 q 158 639 108 639 l 372 639 l 372 0 l 56 0 m -7 724 l -7 832 l 433 832 l 433 724 l -7 724 z "},"Į":{"ha":428,"x_min":54,"x_max":372,"o":"m 56 0 q 56 274 56 138 q 56 547 56 411 q 60 597 56 576 q 87 628 65 618 q 158 639 108 639 l 372 639 l 372 0 l 56 0 m 193 -265 q 103 -250 133 -265 q 64 -208 74 -235 q 54 -146 54 -181 q 67 -87 54 -112 q 99 -41 79 -61 q 140 -8 118 -21 q 179 14 161 6 l 304 14 q 271 -3 292 10 q 228 -32 250 -15 q 190 -69 206 -49 q 175 -110 175 -89 q 197 -155 175 -147 q 249 -162 218 -162 q 295 -162 283 -162 q 309 -160 307 -161 q 314 -160 311 -160 q 306 -219 314 -196 q 273 -254 299 -243 q 193 -265 247 -265 z "},"Ĩ":{"ha":428,"x_min":17,"x_max":424,"o":"m 56 0 q 56 274 56 138 q 56 547 56 411 q 60 597 56 576 q 87 628 65 618 q 158 639 108 639 l 372 639 l 372 0 l 56 0 m 301 726 q 244 741 271 725 q 190 774 217 757 q 132 788 163 790 q 87 769 104 788 q 64 744 69 751 l 17 788 q 24 804 17 788 q 47 843 32 821 q 83 883 61 865 q 132 900 104 900 q 190 887 163 903 q 244 855 217 871 q 299 839 271 839 q 349 858 331 839 q 376 889 368 876 l 424 851 q 415 833 424 851 q 392 790 407 814 q 353 746 376 765 q 301 726 331 726 z "},"J":{"ha":550,"x_min":28,"x_max":501,"o":"m 501 206 q 501 162 501 183 q 497 125 500 140 q 456 47 489 74 q 379 11 422 21 q 294 -1 336 1 q 200 -3 240 -4 q 120 1 160 -3 q 28 8 81 4 l 28 189 q 83 173 47 182 q 143 164 119 164 q 176 181 168 164 q 185 218 185 197 l 185 639 l 399 639 q 474 626 453 639 q 499 589 496 614 q 501 526 501 564 l 501 206 z "},"Ĵ":{"ha":550,"x_min":28,"x_max":531,"o":"m 501 206 q 501 162 501 183 q 497 125 500 140 q 456 47 489 74 q 379 11 422 21 q 294 -1 336 1 q 200 -3 240 -4 q 120 1 160 -3 q 28 8 81 4 l 28 189 q 83 173 47 182 q 143 164 119 164 q 176 181 168 164 q 185 218 185 197 l 185 639 l 399 639 q 474 626 453 639 q 499 589 496 614 q 501 526 501 564 l 501 206 m 128 724 l 292 899 l 364 899 l 531 724 l 411 724 l 328 789 l 239 724 l 128 724 z "},"K":{"ha":968,"x_min":56,"x_max":967,"o":"m 757 -25 q 656 -15 703 -25 q 572 21 608 -4 q 549 37 561 29 q 525 53 538 44 q 499 72 513 63 q 472 94 486 82 q 443 119 458 106 q 413 149 425 138 q 385 176 400 161 l 371 190 l 371 0 l 56 0 l 56 546 q 60 597 56 576 q 86 628 65 617 q 157 639 107 639 q 264 639 210 639 q 371 639 318 639 q 371 592 371 618 q 371 540 371 567 q 371 489 371 514 q 371 444 371 464 l 385 457 q 401 472 392 464 q 424 492 410 479 q 457 520 432 500 q 510 563 482 540 q 554 594 539 585 q 649 638 597 626 q 776 649 701 649 q 867 644 831 649 q 946 633 903 640 q 930 620 943 632 q 901 597 917 608 q 879 579 886 585 q 754 495 821 540 q 624 403 688 450 q 511 313 561 357 l 511 407 q 613 325 560 367 q 724 240 667 283 q 843 154 782 197 q 967 69 904 111 q 929 33 957 56 q 858 -7 901 11 q 757 -25 815 -25 z "},"Ķ":{"ha":968,"x_min":56,"x_max":967,"o":"m 757 -25 q 656 -15 703 -25 q 572 21 608 -4 q 549 37 561 29 q 525 53 538 44 q 499 72 513 63 q 472 94 486 82 q 443 119 458 106 q 413 149 425 138 q 385 176 400 161 l 371 190 l 371 0 l 56 0 l 56 546 q 60 597 56 576 q 86 628 65 617 q 157 639 107 639 q 264 639 210 639 q 371 639 318 639 q 371 592 371 618 q 371 540 371 567 q 371 489 371 514 q 371 444 371 464 l 385 457 q 401 472 392 464 q 424 492 410 479 q 457 520 432 500 q 510 563 482 540 q 554 594 539 585 q 649 638 597 626 q 776 649 701 649 q 867 644 831 649 q 946 633 903 640 q 930 620 943 632 q 901 597 917 608 q 879 579 886 585 q 754 495 821 540 q 624 403 688 450 q 511 313 561 357 l 511 407 q 613 325 560 367 q 724 240 667 283 q 843 154 782 197 q 967 69 904 111 q 929 33 957 56 q 858 -7 901 11 q 757 -25 815 -25 m 365 -408 q 398 -353 385 -375 q 424 -308 411 -331 q 454 -254 438 -286 q 441 -253 449 -254 q 426 -251 433 -253 q 385 -231 403 -247 q 368 -171 368 -215 q 402 -99 368 -114 q 496 -85 436 -85 q 541 -90 519 -85 q 577 -115 563 -96 q 592 -171 592 -133 q 577 -251 592 -210 q 538 -333 563 -293 q 486 -408 514 -374 l 365 -408 z "},"L":{"ha":782,"x_min":56,"x_max":769,"o":"m 371 639 l 371 161 l 769 161 l 769 0 l 56 0 l 56 542 q 60 597 56 575 q 85 628 64 618 q 158 639 107 639 l 371 639 z "},"Ǉ":{"ha":1332,"x_min":56,"x_max":1283,"o":"m 371 639 l 371 161 l 769 161 l 769 0 l 56 0 l 56 542 q 60 597 56 575 q 85 628 64 618 q 158 639 107 639 l 371 639 m 1283 206 q 1283 162 1283 183 q 1279 125 1282 140 q 1238 47 1271 74 q 1161 11 1204 21 q 1076 -1 1118 1 q 982 -3 1022 -4 q 902 1 942 -3 q 810 8 863 4 l 810 189 q 865 173 829 182 q 925 164 901 164 q 958 181 950 164 q 967 218 967 197 l 967 639 l 1181 639 q 1256 626 1235 639 q 1281 589 1278 614 q 1283 526 1283 564 l 1283 206 z "},"Ĺ":{"ha":782,"x_min":56,"x_max":769,"o":"m 371 639 l 371 161 l 769 161 l 769 0 l 56 0 l 56 542 q 60 597 56 575 q 85 628 64 618 q 158 639 107 639 l 371 639 m 197 724 l 369 899 l 494 831 l 311 724 l 197 724 z "},"Ľ":{"ha":782,"x_min":56,"x_max":769,"o":"m 371 639 l 371 161 l 769 161 l 769 0 l 56 0 l 56 542 q 60 597 56 575 q 85 628 64 618 q 158 639 107 639 l 371 639 m 535 418 l 522 639 l 646 639 l 635 418 l 535 418 z "},"Ļ":{"ha":782,"x_min":56,"x_max":769,"o":"m 371 639 l 371 161 l 769 161 l 769 0 l 56 0 l 56 542 q 60 597 56 575 q 85 628 64 618 q 158 639 107 639 l 371 639 m 288 -408 q 320 -353 307 -375 q 347 -308 333 -331 q 376 -254 360 -286 q 363 -253 371 -254 q 349 -251 356 -253 q 308 -231 325 -247 q 290 -171 290 -215 q 324 -99 290 -114 q 418 -85 358 -85 q 463 -90 442 -85 q 499 -115 485 -96 q 514 -171 514 -133 q 499 -251 514 -210 q 460 -333 485 -293 q 408 -408 436 -374 l 288 -408 z "},"Ŀ":{"ha":832,"x_min":56,"x_max":769,"o":"m 371 639 l 371 161 l 769 161 l 769 0 l 56 0 l 56 542 q 60 597 56 575 q 85 628 64 618 q 158 639 107 639 l 371 639 m 488 328 q 528 401 488 386 q 629 415 569 415 q 724 400 689 415 q 758 328 758 385 q 742 268 758 286 q 695 245 725 250 q 624 240 665 240 q 553 245 583 240 q 505 268 522 250 q 488 328 488 286 z "},"Ł":{"ha":832,"x_min":-28,"x_max":769,"o":"m 504 358 l 526 286 l 0 110 l -28 181 l 504 358 m 371 639 l 371 161 l 769 161 l 769 0 l 56 0 l 56 542 q 60 597 56 575 q 85 628 64 618 q 158 639 107 639 l 371 639 z "},"M":{"ha":1061,"x_min":56,"x_max":1006,"o":"m 56 0 l 56 556 q 78 625 56 611 q 171 639 101 639 l 415 639 l 529 383 l 532 365 l 535 365 l 538 383 l 643 639 l 901 639 q 987 620 968 639 q 1006 546 1006 601 l 1006 92 q 996 27 1006 46 q 961 4 986 8 q 890 0 936 0 l 689 0 l 689 303 l 678 249 l 575 0 l 390 0 l 288 249 l 276 303 l 276 0 l 56 0 z "},"N":{"ha":982,"x_min":56,"x_max":926,"o":"m 56 0 l 56 546 q 74 620 56 601 q 161 639 93 639 l 465 639 l 688 319 l 697 265 l 697 639 l 926 639 q 922 617 924 636 q 921 576 921 599 q 921 536 921 553 l 921 78 q 894 13 921 25 q 799 0 867 0 l 524 0 l 290 333 l 281 388 l 281 0 l 56 0 z "},"Ǌ":{"ha":1532,"x_min":56,"x_max":1483,"o":"m 56 0 l 56 546 q 74 620 56 601 q 161 639 93 639 l 465 639 l 688 319 l 697 265 l 697 639 l 926 639 q 922 617 924 636 q 921 576 921 599 q 921 536 921 553 l 921 78 q 894 13 921 25 q 799 0 867 0 l 524 0 l 290 333 l 281 388 l 281 0 l 56 0 m 1483 206 q 1483 162 1483 183 q 1479 125 1482 140 q 1438 47 1471 74 q 1361 11 1404 21 q 1276 -1 1318 1 q 1182 -3 1222 -4 q 1102 1 1142 -3 q 1010 8 1063 4 l 1010 189 q 1065 173 1029 182 q 1125 164 1101 164 q 1158 181 1150 164 q 1167 218 1167 197 l 1167 639 l 1381 639 q 1456 626 1435 639 q 1481 589 1478 614 q 1483 526 1483 564 l 1483 206 z "},"Ń":{"ha":982,"x_min":56,"x_max":926,"o":"m 56 0 l 56 546 q 74 620 56 601 q 161 639 93 639 l 465 639 l 688 319 l 697 265 l 697 639 l 926 639 q 922 617 924 636 q 921 576 921 599 q 921 536 921 553 l 921 78 q 894 13 921 25 q 799 0 867 0 l 524 0 l 290 333 l 281 388 l 281 0 l 56 0 m 406 724 l 578 899 l 703 831 l 519 724 l 406 724 z "},"Ň":{"ha":982,"x_min":56,"x_max":926,"o":"m 290 899 l 401 899 l 490 833 l 574 899 l 693 899 l 526 724 l 454 724 l 290 899 m 56 0 l 56 546 q 74 620 56 601 q 161 639 93 639 l 465 639 l 688 319 l 697 265 l 697 639 l 926 639 q 922 617 924 636 q 921 576 921 599 q 921 536 921 553 l 921 78 q 894 13 921 25 q 799 0 867 0 l 524 0 l 290 333 l 281 388 l 281 0 l 56 0 z "},"Ņ":{"ha":982,"x_min":56,"x_max":926,"o":"m 56 0 l 56 546 q 74 620 56 601 q 161 639 93 639 l 465 639 l 688 319 l 697 265 l 697 639 l 926 639 q 922 617 924 636 q 921 576 921 599 q 921 536 921 553 l 921 78 q 894 13 921 25 q 799 0 867 0 l 524 0 l 290 333 l 281 388 l 281 0 l 56 0 m 372 -408 q 405 -353 392 -375 q 431 -308 418 -331 q 461 -254 444 -286 q 448 -253 456 -254 q 433 -251 440 -253 q 392 -231 410 -247 q 375 -171 375 -215 q 409 -99 375 -114 q 503 -85 443 -85 q 548 -90 526 -85 q 584 -115 569 -96 q 599 -171 599 -133 q 584 -251 599 -210 q 545 -333 569 -293 q 493 -408 521 -374 l 372 -408 z "},"Ñ":{"ha":982,"x_min":56,"x_max":926,"o":"m 56 0 l 56 546 q 74 620 56 601 q 161 639 93 639 l 465 639 l 688 319 l 697 265 l 697 639 l 926 639 q 922 617 924 636 q 921 576 921 599 q 921 536 921 553 l 921 78 q 894 13 921 25 q 799 0 867 0 l 524 0 l 290 333 l 281 388 l 281 0 l 56 0 m 579 726 q 522 741 549 725 q 467 774 494 757 q 410 788 440 790 q 365 769 382 788 q 342 744 347 751 l 294 788 q 302 804 294 788 q 324 843 310 821 q 360 883 339 865 q 410 900 382 900 q 467 887 440 903 q 522 855 494 871 q 576 839 549 839 q 627 858 608 839 q 654 889 646 876 l 701 851 q 693 833 701 851 q 669 790 685 814 q 631 746 654 765 q 579 726 608 726 z "},"O":{"ha":968,"x_min":28,"x_max":940,"o":"m 485 -10 q 267 8 354 -10 q 126 64 179 25 q 51 165 74 103 q 28 319 28 228 q 51 474 28 411 q 126 575 74 536 q 267 631 179 614 q 485 649 354 649 q 703 631 615 649 q 842 575 790 614 q 917 474 894 536 q 940 319 940 411 q 917 165 940 228 q 842 64 894 103 q 703 8 790 25 q 485 -10 615 -10 m 485 151 q 547 160 522 151 q 588 188 572 168 q 609 240 603 207 q 615 319 615 272 q 609 400 615 368 q 588 451 603 432 q 547 479 572 471 q 485 488 522 488 q 422 479 447 488 q 381 451 396 471 q 360 400 367 432 q 353 319 353 368 q 360 240 353 272 q 381 188 367 207 q 422 160 396 168 q 485 151 447 151 z "},"Œ":{"ha":1538,"x_min":28,"x_max":1481,"o":"m 485 -10 q 267 8 354 -10 q 126 64 179 25 q 51 165 74 103 q 28 319 28 228 q 51 474 28 411 q 126 575 74 536 q 267 631 179 614 q 485 649 354 649 q 703 631 615 649 q 842 575 790 614 q 917 474 894 536 q 940 319 940 411 q 917 165 940 228 q 842 64 894 103 q 703 8 790 25 q 485 -10 615 -10 m 485 151 q 547 160 522 151 q 588 188 572 168 q 609 240 603 207 q 615 319 615 272 q 609 400 615 368 q 588 451 603 432 q 547 479 572 471 q 485 488 522 488 q 422 479 447 488 q 381 451 396 471 q 360 400 367 432 q 353 319 353 368 q 360 240 353 272 q 381 188 367 207 q 422 160 396 168 q 485 151 447 151 m 671 0 l 671 546 q 692 622 671 604 q 774 639 713 639 l 1481 639 l 1481 478 l 988 478 l 988 401 l 1432 401 l 1432 242 l 988 242 l 988 161 l 1481 161 l 1481 0 l 671 0 z "},"Ó":{"ha":968,"x_min":28,"x_max":940,"o":"m 485 -10 q 267 8 354 -10 q 126 64 179 25 q 51 165 74 103 q 28 319 28 228 q 51 474 28 411 q 126 575 74 536 q 267 631 179 614 q 485 649 354 649 q 703 631 615 649 q 842 575 790 614 q 917 474 894 536 q 940 319 940 411 q 917 165 940 228 q 842 64 894 103 q 703 8 790 25 q 485 -10 615 -10 m 485 151 q 547 160 522 151 q 588 188 572 168 q 609 240 603 207 q 615 319 615 272 q 609 400 615 368 q 588 451 603 432 q 547 479 572 471 q 485 488 522 488 q 422 479 447 488 q 381 451 396 471 q 360 400 367 432 q 353 319 353 368 q 360 240 353 272 q 381 188 367 207 q 422 160 396 168 q 485 151 447 151 m 399 724 l 571 899 l 696 831 l 513 724 l 399 724 z "},"Ŏ":{"ha":968,"x_min":28,"x_max":940,"o":"m 485 -10 q 267 8 354 -10 q 126 64 179 25 q 51 165 74 103 q 28 319 28 228 q 51 474 28 411 q 126 575 74 536 q 267 631 179 614 q 485 649 354 649 q 703 631 615 649 q 842 575 790 614 q 917 474 894 536 q 940 319 940 411 q 917 165 940 228 q 842 64 894 103 q 703 8 790 25 q 485 -10 615 -10 m 485 151 q 547 160 522 151 q 588 188 572 168 q 609 240 603 207 q 615 319 615 272 q 609 400 615 368 q 588 451 603 432 q 547 479 572 471 q 485 488 522 488 q 422 479 447 488 q 381 451 396 471 q 360 400 367 432 q 353 319 353 368 q 360 240 353 272 q 381 188 367 207 q 422 160 396 168 q 485 151 447 151 m 485 721 q 374 733 415 721 q 316 781 333 744 q 299 886 299 817 l 299 899 l 401 899 l 401 889 q 408 854 401 869 q 432 831 414 839 q 485 822 450 822 q 538 831 521 822 q 561 854 556 839 q 567 889 567 869 l 567 899 l 669 899 l 669 886 q 652 781 669 817 q 594 733 635 744 q 485 721 554 721 z "},"Ô":{"ha":968,"x_min":28,"x_max":940,"o":"m 485 -10 q 267 8 354 -10 q 126 64 179 25 q 51 165 74 103 q 28 319 28 228 q 51 474 28 411 q 126 575 74 536 q 267 631 179 614 q 485 649 354 649 q 703 631 615 649 q 842 575 790 614 q 917 474 894 536 q 940 319 940 411 q 917 165 940 228 q 842 64 894 103 q 703 8 790 25 q 485 -10 615 -10 m 485 151 q 547 160 522 151 q 588 188 572 168 q 609 240 603 207 q 615 319 615 272 q 609 400 615 368 q 588 451 603 432 q 547 479 572 471 q 485 488 522 488 q 422 479 447 488 q 381 451 396 471 q 360 400 367 432 q 353 319 353 368 q 360 240 353 272 q 381 188 367 207 q 422 160 396 168 q 485 151 447 151 m 283 724 l 447 899 l 519 899 l 686 724 l 567 724 l 483 789 l 394 724 l 283 724 z "},"Ố":{"ha":968,"x_min":28,"x_max":940,"o":"m 485 -10 q 267 8 354 -10 q 126 64 179 25 q 51 165 74 103 q 28 319 28 228 q 51 474 28 411 q 126 575 74 536 q 267 631 179 614 q 485 649 354 649 q 703 631 615 649 q 842 575 790 614 q 917 474 894 536 q 940 319 940 411 q 917 165 940 228 q 842 64 894 103 q 703 8 790 25 q 485 -10 615 -10 m 485 151 q 547 160 522 151 q 588 188 572 168 q 609 240 603 207 q 615 319 615 272 q 609 400 615 368 q 588 451 603 432 q 547 479 572 471 q 485 488 522 488 q 422 479 447 488 q 381 451 396 471 q 360 400 367 432 q 353 319 353 368 q 360 240 353 272 q 381 188 367 207 q 422 160 396 168 q 485 151 447 151 m 283 724 l 447 899 l 519 899 l 686 724 l 567 724 l 483 789 l 394 724 l 283 724 m 639 875 l 811 1050 l 936 982 l 753 875 l 639 875 z "},"Ộ":{"ha":968,"x_min":28,"x_max":940,"o":"m 485 -10 q 267 8 354 -10 q 126 64 179 25 q 51 165 74 103 q 28 319 28 228 q 51 474 28 411 q 126 575 74 536 q 267 631 179 614 q 485 649 354 649 q 703 631 615 649 q 842 575 790 614 q 917 474 894 536 q 940 319 940 411 q 917 165 940 228 q 842 64 894 103 q 703 8 790 25 q 485 -10 615 -10 m 485 151 q 547 160 522 151 q 588 188 572 168 q 609 240 603 207 q 615 319 615 272 q 609 400 615 368 q 588 451 603 432 q 547 479 572 471 q 485 488 522 488 q 422 479 447 488 q 381 451 396 471 q 360 400 367 432 q 353 319 353 368 q 360 240 353 272 q 381 188 367 207 q 422 160 396 168 q 485 151 447 151 m 485 -254 q 414 -249 444 -254 q 366 -226 383 -244 q 349 -167 349 -208 q 390 -94 349 -108 q 490 -79 431 -79 q 585 -94 550 -79 q 619 -167 619 -110 q 603 -226 619 -208 q 556 -249 586 -244 q 485 -254 526 -254 m 283 724 l 447 899 l 519 899 l 686 724 l 567 724 l 483 789 l 394 724 l 283 724 z "},"Ồ":{"ha":968,"x_min":28,"x_max":940,"o":"m 485 -10 q 267 8 354 -10 q 126 64 179 25 q 51 165 74 103 q 28 319 28 228 q 51 474 28 411 q 126 575 74 536 q 267 631 179 614 q 485 649 354 649 q 703 631 615 649 q 842 575 790 614 q 917 474 894 536 q 940 319 940 411 q 917 165 940 228 q 842 64 894 103 q 703 8 790 25 q 485 -10 615 -10 m 485 151 q 547 160 522 151 q 588 188 572 168 q 609 240 603 207 q 615 319 615 272 q 609 400 615 368 q 588 451 603 432 q 547 479 572 471 q 485 488 522 488 q 422 479 447 488 q 381 451 396 471 q 360 400 367 432 q 353 319 353 368 q 360 240 353 272 q 381 188 367 207 q 422 160 396 168 q 485 151 447 151 m 283 724 l 447 899 l 519 899 l 686 724 l 567 724 l 483 789 l 394 724 l 283 724 m 721 875 l 538 982 l 663 1050 l 835 875 l 721 875 z "},"Ổ":{"ha":968,"x_min":28,"x_max":940,"o":"m 485 -10 q 267 8 354 -10 q 126 64 179 25 q 51 165 74 103 q 28 319 28 228 q 51 474 28 411 q 126 575 74 536 q 267 631 179 614 q 485 649 354 649 q 703 631 615 649 q 842 575 790 614 q 917 474 894 536 q 940 319 940 411 q 917 165 940 228 q 842 64 894 103 q 703 8 790 25 q 485 -10 615 -10 m 485 151 q 547 160 522 151 q 588 188 572 168 q 609 240 603 207 q 615 319 615 272 q 609 400 615 368 q 588 451 603 432 q 547 479 572 471 q 485 488 522 488 q 422 479 447 488 q 381 451 396 471 q 360 400 367 432 q 353 319 353 368 q 360 240 353 272 q 381 188 367 207 q 422 160 396 168 q 485 151 447 151 m 283 724 l 447 899 l 519 899 l 686 724 l 567 724 l 483 789 l 394 724 l 283 724 m 611 889 l 611 908 q 618 932 611 924 q 634 944 625 940 q 650 955 643 949 q 657 972 657 961 l 657 989 q 654 1010 657 1003 q 642 1017 651 1017 q 626 989 626 1017 l 533 1003 q 565 1069 536 1047 q 651 1092 594 1092 q 746 1071 714 1092 q 778 997 778 1050 l 778 992 q 770 953 778 967 q 751 933 763 940 q 733 918 740 925 q 725 900 725 911 l 725 889 l 611 889 z "},"Ỗ":{"ha":968,"x_min":28,"x_max":940,"o":"m 485 -10 q 267 8 354 -10 q 126 64 179 25 q 51 165 74 103 q 28 319 28 228 q 51 474 28 411 q 126 575 74 536 q 267 631 179 614 q 485 649 354 649 q 703 631 615 649 q 842 575 790 614 q 917 474 894 536 q 940 319 940 411 q 917 165 940 228 q 842 64 894 103 q 703 8 790 25 q 485 -10 615 -10 m 485 151 q 547 160 522 151 q 588 188 572 168 q 609 240 603 207 q 615 319 615 272 q 609 400 615 368 q 588 451 603 432 q 547 479 572 471 q 485 488 522 488 q 422 479 447 488 q 381 451 396 471 q 360 400 367 432 q 353 319 353 368 q 360 240 353 272 q 381 188 367 207 q 422 160 396 168 q 485 151 447 151 m 283 724 l 447 899 l 519 899 l 686 724 l 567 724 l 483 789 l 394 724 l 283 724 m 574 924 q 516 938 543 922 q 462 971 489 954 q 404 985 435 988 q 359 967 376 985 q 336 942 342 949 l 289 985 q 297 1001 289 985 q 319 1040 304 1018 q 355 1080 333 1063 q 404 1097 376 1097 q 462 1084 435 1100 q 516 1052 489 1068 q 571 1036 543 1036 q 622 1055 603 1036 q 649 1086 640 1074 l 696 1049 q 688 1030 696 1049 q 664 987 679 1011 q 626 943 649 963 q 574 924 603 924 z "},"Ȍ":{"ha":968,"x_min":28,"x_max":940,"o":"m 485 -10 q 267 8 354 -10 q 126 64 179 25 q 51 165 74 103 q 28 319 28 228 q 51 474 28 411 q 126 575 74 536 q 267 631 179 614 q 485 649 354 649 q 703 631 615 649 q 842 575 790 614 q 917 474 894 536 q 940 319 940 411 q 917 165 940 228 q 842 64 894 103 q 703 8 790 25 q 485 -10 615 -10 m 485 151 q 547 160 522 151 q 588 188 572 168 q 609 240 603 207 q 615 319 615 272 q 609 400 615 368 q 588 451 603 432 q 547 479 572 471 q 485 488 522 488 q 422 479 447 488 q 381 451 396 471 q 360 400 367 432 q 353 319 353 368 q 360 240 353 272 q 381 188 367 207 q 422 160 396 168 q 485 151 447 151 m 368 724 l 179 851 l 324 919 l 482 724 l 368 724 m 542 724 l 396 894 l 540 961 l 643 724 l 542 724 z "},"Ö":{"ha":968,"x_min":28,"x_max":940,"o":"m 485 -10 q 267 8 354 -10 q 126 64 179 25 q 51 165 74 103 q 28 319 28 228 q 51 474 28 411 q 126 575 74 536 q 267 631 179 614 q 485 649 354 649 q 703 631 615 649 q 842 575 790 614 q 917 474 894 536 q 940 319 940 411 q 917 165 940 228 q 842 64 894 103 q 703 8 790 25 q 485 -10 615 -10 m 485 151 q 547 160 522 151 q 588 188 572 168 q 609 240 603 207 q 615 319 615 272 q 609 400 615 368 q 588 451 603 432 q 547 479 572 471 q 485 488 522 488 q 422 479 447 488 q 381 451 396 471 q 360 400 367 432 q 353 319 353 368 q 360 240 353 272 q 381 188 367 207 q 422 160 396 168 q 485 151 447 151 m 633 721 q 563 733 590 721 q 536 792 536 744 q 565 847 536 836 q 638 857 594 857 q 704 845 679 857 q 729 792 729 833 q 703 733 729 744 q 633 721 678 721 m 336 721 q 266 733 293 721 q 239 792 239 744 q 268 847 239 836 q 340 857 297 857 q 406 845 382 857 q 431 792 431 833 q 405 733 431 744 q 336 721 379 721 z "},"Ȫ":{"ha":968,"x_min":28,"x_max":940,"o":"m 485 -10 q 267 8 354 -10 q 126 64 179 25 q 51 165 74 103 q 28 319 28 228 q 51 474 28 411 q 126 575 74 536 q 267 631 179 614 q 485 649 354 649 q 703 631 615 649 q 842 575 790 614 q 917 474 894 536 q 940 319 940 411 q 917 165 940 228 q 842 64 894 103 q 703 8 790 25 q 485 -10 615 -10 m 485 151 q 547 160 522 151 q 588 188 572 168 q 609 240 603 207 q 615 319 615 272 q 609 400 615 368 q 588 451 603 432 q 547 479 572 471 q 485 488 522 488 q 422 479 447 488 q 381 451 396 471 q 360 400 367 432 q 353 319 353 368 q 360 240 353 272 q 381 188 367 207 q 422 160 396 168 q 485 151 447 151 m 633 721 q 563 733 590 721 q 536 792 536 744 q 565 847 536 836 q 638 857 594 857 q 704 845 679 857 q 729 792 729 833 q 703 733 729 744 q 633 721 678 721 m 336 721 q 266 733 293 721 q 239 792 239 744 q 268 847 239 836 q 340 857 297 857 q 406 845 382 857 q 431 792 431 833 q 405 733 431 744 q 336 721 379 721 m 264 936 l 264 1044 l 704 1044 l 704 936 l 264 936 z "},"Ȱ":{"ha":968,"x_min":28,"x_max":940,"o":"m 485 -10 q 267 8 354 -10 q 126 64 179 25 q 51 165 74 103 q 28 319 28 228 q 51 474 28 411 q 126 575 74 536 q 267 631 179 614 q 485 649 354 649 q 703 631 615 649 q 842 575 790 614 q 917 474 894 536 q 940 319 940 411 q 917 165 940 228 q 842 64 894 103 q 703 8 790 25 q 485 -10 615 -10 m 485 151 q 547 160 522 151 q 588 188 572 168 q 609 240 603 207 q 615 319 615 272 q 609 400 615 368 q 588 451 603 432 q 547 479 572 471 q 485 488 522 488 q 422 479 447 488 q 381 451 396 471 q 360 400 367 432 q 353 319 353 368 q 360 240 353 272 q 381 188 367 207 q 422 160 396 168 q 485 151 447 151 m 485 719 q 417 728 443 719 q 390 781 390 738 q 419 831 390 821 q 489 842 447 842 q 553 831 529 842 q 578 781 578 819 q 553 728 578 738 q 485 719 528 719 m 264 931 l 264 1039 l 704 1039 l 704 931 l 264 931 z "},"Ọ":{"ha":968,"x_min":28,"x_max":940,"o":"m 485 -10 q 267 8 354 -10 q 126 64 179 25 q 51 165 74 103 q 28 319 28 228 q 51 474 28 411 q 126 575 74 536 q 267 631 179 614 q 485 649 354 649 q 703 631 615 649 q 842 575 790 614 q 917 474 894 536 q 940 319 940 411 q 917 165 940 228 q 842 64 894 103 q 703 8 790 25 q 485 -10 615 -10 m 485 151 q 547 160 522 151 q 588 188 572 168 q 609 240 603 207 q 615 319 615 272 q 609 400 615 368 q 588 451 603 432 q 547 479 572 471 q 485 488 522 488 q 422 479 447 488 q 381 451 396 471 q 360 400 367 432 q 353 319 353 368 q 360 240 353 272 q 381 188 367 207 q 422 160 396 168 q 485 151 447 151 m 485 -254 q 414 -249 444 -254 q 366 -226 383 -244 q 349 -167 349 -208 q 390 -94 349 -108 q 490 -79 431 -79 q 585 -94 550 -79 q 619 -167 619 -110 q 603 -226 619 -208 q 556 -249 586 -244 q 485 -254 526 -254 z "},"Ò":{"ha":968,"x_min":28,"x_max":940,"o":"m 485 -10 q 267 8 354 -10 q 126 64 179 25 q 51 165 74 103 q 28 319 28 228 q 51 474 28 411 q 126 575 74 536 q 267 631 179 614 q 485 649 354 649 q 703 631 615 649 q 842 575 790 614 q 917 474 894 536 q 940 319 940 411 q 917 165 940 228 q 842 64 894 103 q 703 8 790 25 q 485 -10 615 -10 m 485 151 q 547 160 522 151 q 588 188 572 168 q 609 240 603 207 q 615 319 615 272 q 609 400 615 368 q 588 451 603 432 q 547 479 572 471 q 485 488 522 488 q 422 479 447 488 q 381 451 396 471 q 360 400 367 432 q 353 319 353 368 q 360 240 353 272 q 381 188 367 207 q 422 160 396 168 q 485 151 447 151 m 481 724 l 297 831 l 422 899 l 594 724 l 481 724 z "},"Ỏ":{"ha":968,"x_min":28,"x_max":940,"o":"m 485 -10 q 267 8 354 -10 q 126 64 179 25 q 51 165 74 103 q 28 319 28 228 q 51 474 28 411 q 126 575 74 536 q 267 631 179 614 q 485 649 354 649 q 703 631 615 649 q 842 575 790 614 q 917 474 894 536 q 940 319 940 411 q 917 165 940 228 q 842 64 894 103 q 703 8 790 25 q 485 -10 615 -10 m 485 151 q 547 160 522 151 q 588 188 572 168 q 609 240 603 207 q 615 319 615 272 q 609 400 615 368 q 588 451 603 432 q 547 479 572 471 q 485 488 522 488 q 422 479 447 488 q 381 451 396 471 q 360 400 367 432 q 353 319 353 368 q 360 240 353 272 q 381 188 367 207 q 422 160 396 168 q 485 151 447 151 m 440 724 l 440 743 q 447 767 440 758 q 463 779 454 775 q 479 790 472 783 q 486 807 486 796 l 486 824 q 483 844 486 838 q 471 851 481 851 q 456 824 456 851 l 363 838 q 394 904 365 882 q 481 926 424 926 q 575 906 543 926 q 607 832 607 885 l 607 826 q 599 788 607 801 q 581 767 592 775 q 562 753 569 760 q 554 735 554 746 l 554 724 l 440 724 z "},"Ơ":{"ha":968,"x_min":28,"x_max":940,"o":"m 485 -10 q 267 8 354 -10 q 126 64 179 25 q 51 165 74 103 q 28 319 28 228 q 51 474 28 411 q 126 575 74 536 q 267 631 179 614 q 485 649 354 649 q 703 631 615 649 q 842 575 790 614 q 917 474 894 536 q 940 319 940 411 q 917 165 940 228 q 842 64 894 103 q 703 8 790 25 q 485 -10 615 -10 m 485 151 q 547 160 522 151 q 588 188 572 168 q 609 240 603 207 q 615 319 615 272 q 609 400 615 368 q 588 451 603 432 q 547 479 572 471 q 485 488 522 488 q 422 479 447 488 q 381 451 396 471 q 360 400 367 432 q 353 319 353 368 q 360 240 353 272 q 381 188 367 207 q 422 160 396 168 q 485 151 447 151 m 668 547 l 668 639 l 697 639 q 731 647 718 639 q 749 669 743 654 q 756 704 756 683 l 756 732 l 894 732 l 894 704 q 838 582 894 617 q 668 547 782 547 z "},"Ớ":{"ha":968,"x_min":28,"x_max":940,"o":"m 485 -10 q 267 8 354 -10 q 126 64 179 25 q 51 165 74 103 q 28 319 28 228 q 51 474 28 411 q 126 575 74 536 q 267 631 179 614 q 485 649 354 649 q 703 631 615 649 q 842 575 790 614 q 917 474 894 536 q 940 319 940 411 q 917 165 940 228 q 842 64 894 103 q 703 8 790 25 q 485 -10 615 -10 m 485 151 q 547 160 522 151 q 588 188 572 168 q 609 240 603 207 q 615 319 615 272 q 609 400 615 368 q 588 451 603 432 q 547 479 572 471 q 485 488 522 488 q 422 479 447 488 q 381 451 396 471 q 360 400 367 432 q 353 319 353 368 q 360 240 353 272 q 381 188 367 207 q 422 160 396 168 q 485 151 447 151 m 668 547 l 668 639 l 697 639 q 731 647 718 639 q 749 669 743 654 q 756 704 756 683 l 756 732 l 894 732 l 894 704 q 838 582 894 617 q 668 547 782 547 m 399 724 l 571 899 l 696 831 l 513 724 l 399 724 z "},"Ợ":{"ha":968,"x_min":28,"x_max":940,"o":"m 485 -10 q 267 8 354 -10 q 126 64 179 25 q 51 165 74 103 q 28 319 28 228 q 51 474 28 411 q 126 575 74 536 q 267 631 179 614 q 485 649 354 649 q 703 631 615 649 q 842 575 790 614 q 917 474 894 536 q 940 319 940 411 q 917 165 940 228 q 842 64 894 103 q 703 8 790 25 q 485 -10 615 -10 m 485 151 q 547 160 522 151 q 588 188 572 168 q 609 240 603 207 q 615 319 615 272 q 609 400 615 368 q 588 451 603 432 q 547 479 572 471 q 485 488 522 488 q 422 479 447 488 q 381 451 396 471 q 360 400 367 432 q 353 319 353 368 q 360 240 353 272 q 381 188 367 207 q 422 160 396 168 q 485 151 447 151 m 668 547 l 668 639 l 697 639 q 731 647 718 639 q 749 669 743 654 q 756 704 756 683 l 756 732 l 894 732 l 894 704 q 838 582 894 617 q 668 547 782 547 m 485 -254 q 414 -249 444 -254 q 366 -226 383 -244 q 349 -167 349 -208 q 390 -94 349 -108 q 490 -79 431 -79 q 585 -94 550 -79 q 619 -167 619 -110 q 603 -226 619 -208 q 556 -249 586 -244 q 485 -254 526 -254 z "},"Ờ":{"ha":968,"x_min":28,"x_max":940,"o":"m 485 -10 q 267 8 354 -10 q 126 64 179 25 q 51 165 74 103 q 28 319 28 228 q 51 474 28 411 q 126 575 74 536 q 267 631 179 614 q 485 649 354 649 q 703 631 615 649 q 842 575 790 614 q 917 474 894 536 q 940 319 940 411 q 917 165 940 228 q 842 64 894 103 q 703 8 790 25 q 485 -10 615 -10 m 485 151 q 547 160 522 151 q 588 188 572 168 q 609 240 603 207 q 615 319 615 272 q 609 400 615 368 q 588 451 603 432 q 547 479 572 471 q 485 488 522 488 q 422 479 447 488 q 381 451 396 471 q 360 400 367 432 q 353 319 353 368 q 360 240 353 272 q 381 188 367 207 q 422 160 396 168 q 485 151 447 151 m 668 547 l 668 639 l 697 639 q 731 647 718 639 q 749 669 743 654 q 756 704 756 683 l 756 732 l 894 732 l 894 704 q 838 582 894 617 q 668 547 782 547 m 481 724 l 297 831 l 422 899 l 594 724 l 481 724 z "},"Ở":{"ha":968,"x_min":28,"x_max":940,"o":"m 485 -10 q 267 8 354 -10 q 126 64 179 25 q 51 165 74 103 q 28 319 28 228 q 51 474 28 411 q 126 575 74 536 q 267 631 179 614 q 485 649 354 649 q 703 631 615 649 q 842 575 790 614 q 917 474 894 536 q 940 319 940 411 q 917 165 940 228 q 842 64 894 103 q 703 8 790 25 q 485 -10 615 -10 m 485 151 q 547 160 522 151 q 588 188 572 168 q 609 240 603 207 q 615 319 615 272 q 609 400 615 368 q 588 451 603 432 q 547 479 572 471 q 485 488 522 488 q 422 479 447 488 q 381 451 396 471 q 360 400 367 432 q 353 319 353 368 q 360 240 353 272 q 381 188 367 207 q 422 160 396 168 q 485 151 447 151 m 668 547 l 668 639 l 697 639 q 731 647 718 639 q 749 669 743 654 q 756 704 756 683 l 756 732 l 894 732 l 894 704 q 838 582 894 617 q 668 547 782 547 m 440 724 l 440 743 q 447 767 440 758 q 463 779 454 775 q 479 790 472 783 q 486 807 486 796 l 486 824 q 483 844 486 838 q 471 851 481 851 q 456 824 456 851 l 363 838 q 394 904 365 882 q 481 926 424 926 q 575 906 543 926 q 607 832 607 885 l 607 826 q 599 788 607 801 q 581 767 592 775 q 562 753 569 760 q 554 735 554 746 l 554 724 l 440 724 z "},"Ỡ":{"ha":968,"x_min":28,"x_max":940,"o":"m 485 -10 q 267 8 354 -10 q 126 64 179 25 q 51 165 74 103 q 28 319 28 228 q 51 474 28 411 q 126 575 74 536 q 267 631 179 614 q 485 649 354 649 q 703 631 615 649 q 842 575 790 614 q 917 474 894 536 q 940 319 940 411 q 917 165 940 228 q 842 64 894 103 q 703 8 790 25 q 485 -10 615 -10 m 485 151 q 547 160 522 151 q 588 188 572 168 q 609 240 603 207 q 615 319 615 272 q 609 400 615 368 q 588 451 603 432 q 547 479 572 471 q 485 488 522 488 q 422 479 447 488 q 381 451 396 471 q 360 400 367 432 q 353 319 353 368 q 360 240 353 272 q 381 188 367 207 q 422 160 396 168 q 485 151 447 151 m 668 547 l 668 639 l 697 639 q 731 647 718 639 q 749 669 743 654 q 756 704 756 683 l 756 732 l 894 732 l 894 704 q 838 582 894 617 q 668 547 782 547 m 572 726 q 515 741 542 725 q 460 774 488 757 q 403 788 433 790 q 358 769 375 788 q 335 744 340 751 l 288 788 q 295 804 288 788 q 317 843 303 821 q 353 883 332 865 q 403 900 375 900 q 460 887 433 903 q 515 855 488 871 q 569 839 542 839 q 620 858 601 839 q 647 889 639 876 l 694 851 q 686 833 694 851 q 663 790 678 814 q 624 746 647 765 q 572 726 601 726 z "},"Ő":{"ha":968,"x_min":28,"x_max":940,"o":"m 485 -10 q 267 8 354 -10 q 126 64 179 25 q 51 165 74 103 q 28 319 28 228 q 51 474 28 411 q 126 575 74 536 q 267 631 179 614 q 485 649 354 649 q 703 631 615 649 q 842 575 790 614 q 917 474 894 536 q 940 319 940 411 q 917 165 940 228 q 842 64 894 103 q 703 8 790 25 q 485 -10 615 -10 m 485 151 q 547 160 522 151 q 588 188 572 168 q 609 240 603 207 q 615 319 615 272 q 609 400 615 368 q 588 451 603 432 q 547 479 572 471 q 485 488 522 488 q 422 479 447 488 q 381 451 396 471 q 360 400 367 432 q 353 319 353 368 q 360 240 353 272 q 381 188 367 207 q 422 160 396 168 q 485 151 447 151 m 538 724 l 606 899 l 760 896 l 656 724 l 538 724 m 328 724 l 396 899 l 550 896 l 446 724 l 328 724 z "},"Ȏ":{"ha":968,"x_min":28,"x_max":940,"o":"m 485 -10 q 267 8 354 -10 q 126 64 179 25 q 51 165 74 103 q 28 319 28 228 q 51 474 28 411 q 126 575 74 536 q 267 631 179 614 q 485 649 354 649 q 703 631 615 649 q 842 575 790 614 q 917 474 894 536 q 940 319 940 411 q 917 165 940 228 q 842 64 894 103 q 703 8 790 25 q 485 -10 615 -10 m 485 151 q 547 160 522 151 q 588 188 572 168 q 609 240 603 207 q 615 319 615 272 q 609 400 615 368 q 588 451 603 432 q 547 479 572 471 q 485 488 522 488 q 422 479 447 488 q 381 451 396 471 q 360 400 367 432 q 353 319 353 368 q 360 240 353 272 q 381 188 367 207 q 422 160 396 168 q 485 151 447 151 m 299 721 l 299 733 q 316 840 299 804 q 374 887 333 875 q 485 899 415 899 q 594 887 554 899 q 652 840 635 875 q 669 733 669 804 l 669 721 l 567 721 l 567 731 q 561 765 567 750 q 538 789 556 781 q 485 797 521 797 q 433 789 450 797 q 409 766 415 781 q 401 732 403 751 l 401 721 l 299 721 z "},"Ō":{"ha":968,"x_min":28,"x_max":940,"o":"m 485 -10 q 267 8 354 -10 q 126 64 179 25 q 51 165 74 103 q 28 319 28 228 q 51 474 28 411 q 126 575 74 536 q 267 631 179 614 q 485 649 354 649 q 703 631 615 649 q 842 575 790 614 q 917 474 894 536 q 940 319 940 411 q 917 165 940 228 q 842 64 894 103 q 703 8 790 25 q 485 -10 615 -10 m 485 151 q 547 160 522 151 q 588 188 572 168 q 609 240 603 207 q 615 319 615 272 q 609 400 615 368 q 588 451 603 432 q 547 479 572 471 q 485 488 522 488 q 422 479 447 488 q 381 451 396 471 q 360 400 367 432 q 353 319 353 368 q 360 240 353 272 q 381 188 367 207 q 422 160 396 168 q 485 151 447 151 m 264 724 l 264 832 l 704 832 l 704 724 l 264 724 z "},"Ω":{"ha":1028,"x_min":49,"x_max":979,"o":"m 107 0 q 78 40 93 19 q 49 81 64 61 q 181 67 115 74 q 314 53 247 60 q 235 140 271 94 q 175 233 200 186 q 137 328 150 281 q 124 419 124 375 q 163 550 124 492 q 289 643 203 608 q 514 678 375 678 q 740 643 654 678 q 865 550 825 608 q 904 419 904 492 q 890 328 904 375 q 851 233 876 281 q 788 140 825 185 q 707 53 751 94 q 843 67 775 60 q 979 81 911 74 q 951 40 965 61 q 922 0 938 19 q 744 0 833 0 q 567 0 656 0 q 639 75 615 33 q 671 162 663 117 q 678 249 679 207 q 678 322 678 290 q 669 389 678 351 q 640 461 660 426 q 590 519 621 496 q 514 542 558 542 q 438 519 469 542 q 388 461 407 496 q 360 389 369 426 q 351 322 351 351 q 351 248 351 290 q 359 161 351 206 q 391 74 367 117 q 465 0 415 32 q 287 0 376 0 q 107 0 197 0 z "},"Ǫ":{"ha":968,"x_min":28,"x_max":940,"o":"m 485 -10 q 267 8 354 -10 q 126 64 179 25 q 51 165 74 103 q 28 319 28 228 q 51 474 28 411 q 126 575 74 536 q 267 631 179 614 q 485 649 354 649 q 703 631 615 649 q 842 575 790 614 q 917 474 894 536 q 940 319 940 411 q 917 165 940 228 q 842 64 894 103 q 703 8 790 25 q 485 -10 615 -10 m 485 151 q 547 160 522 151 q 588 188 572 168 q 609 240 603 207 q 615 319 615 272 q 609 400 615 368 q 588 451 603 432 q 547 479 572 471 q 485 488 522 488 q 422 479 447 488 q 381 451 396 471 q 360 400 367 432 q 353 319 353 368 q 360 240 353 272 q 381 188 367 207 q 422 160 396 168 q 485 151 447 151 m 490 -265 q 401 -250 431 -265 q 361 -208 371 -235 q 351 -146 351 -181 q 364 -87 351 -112 q 396 -41 376 -61 q 437 -8 415 -21 q 476 14 458 6 l 601 14 q 568 -3 589 10 q 525 -32 547 -15 q 488 -69 503 -49 q 472 -110 472 -89 q 494 -155 472 -147 q 546 -162 515 -162 q 592 -162 581 -162 q 606 -160 604 -161 q 611 -160 608 -160 q 603 -219 611 -196 q 570 -254 596 -243 q 490 -265 544 -265 z "},"Ø":{"ha":968,"x_min":28,"x_max":940,"o":"m 28 319 q 65 501 28 435 q 169 599 103 568 q 319 640 235 631 q 494 649 403 649 q 668 639 588 649 q 810 597 749 629 q 906 498 871 564 q 940 319 940 432 q 903 138 940 204 q 800 40 865 71 q 651 -1 735 8 q 474 -10 567 -10 q 298 0 379 -10 q 156 42 217 10 q 62 141 96 75 q 28 319 28 207 m 628 317 q 618 407 628 374 q 590 458 608 440 q 544 482 571 476 q 485 488 518 488 q 423 482 450 488 q 377 458 396 476 q 349 407 358 440 q 339 317 339 374 q 349 227 339 261 q 377 175 358 193 q 423 151 396 157 q 485 146 450 146 q 544 151 518 146 q 590 175 571 157 q 618 227 608 193 q 628 317 628 261 m 272 -119 l 599 729 l 679 729 l 351 -119 l 272 -119 z "},"Ǿ":{"ha":968,"x_min":28,"x_max":940,"o":"m 28 319 q 65 501 28 435 q 169 599 103 568 q 319 640 235 631 q 494 649 403 649 q 668 639 588 649 q 810 597 749 629 q 906 498 871 564 q 940 319 940 432 q 903 138 940 204 q 800 40 865 71 q 651 -1 735 8 q 474 -10 567 -10 q 298 0 379 -10 q 156 42 217 10 q 62 141 96 75 q 28 319 28 207 m 628 317 q 618 407 628 374 q 590 458 608 440 q 544 482 571 476 q 485 488 518 488 q 423 482 450 488 q 377 458 396 476 q 349 407 358 440 q 339 317 339 374 q 349 227 339 261 q 377 175 358 193 q 423 151 396 157 q 485 146 450 146 q 544 151 518 146 q 590 175 571 157 q 618 227 608 193 q 628 317 628 261 m 272 -119 l 599 729 l 679 729 l 351 -119 l 272 -119 m 399 724 l 571 899 l 696 831 l 513 724 l 399 724 z "},"Õ":{"ha":968,"x_min":28,"x_max":940,"o":"m 485 -10 q 267 8 354 -10 q 126 64 179 25 q 51 165 74 103 q 28 319 28 228 q 51 474 28 411 q 126 575 74 536 q 267 631 179 614 q 485 649 354 649 q 703 631 615 649 q 842 575 790 614 q 917 474 894 536 q 940 319 940 411 q 917 165 940 228 q 842 64 894 103 q 703 8 790 25 q 485 -10 615 -10 m 485 151 q 547 160 522 151 q 588 188 572 168 q 609 240 603 207 q 615 319 615 272 q 609 400 615 368 q 588 451 603 432 q 547 479 572 471 q 485 488 522 488 q 422 479 447 488 q 381 451 396 471 q 360 400 367 432 q 353 319 353 368 q 360 240 353 272 q 381 188 367 207 q 422 160 396 168 q 485 151 447 151 m 572 726 q 515 741 542 725 q 460 774 488 757 q 403 788 433 790 q 358 769 375 788 q 335 744 340 751 l 288 788 q 295 804 288 788 q 317 843 303 821 q 353 883 332 865 q 403 900 375 900 q 460 887 433 903 q 515 855 488 871 q 569 839 542 839 q 620 858 601 839 q 647 889 639 876 l 694 851 q 686 833 694 851 q 663 790 678 814 q 624 746 647 765 q 572 726 601 726 z "},"Ȭ":{"ha":968,"x_min":28,"x_max":940,"o":"m 485 -10 q 267 8 354 -10 q 126 64 179 25 q 51 165 74 103 q 28 319 28 228 q 51 474 28 411 q 126 575 74 536 q 267 631 179 614 q 485 649 354 649 q 703 631 615 649 q 842 575 790 614 q 917 474 894 536 q 940 319 940 411 q 917 165 940 228 q 842 64 894 103 q 703 8 790 25 q 485 -10 615 -10 m 485 151 q 547 160 522 151 q 588 188 572 168 q 609 240 603 207 q 615 319 615 272 q 609 400 615 368 q 588 451 603 432 q 547 479 572 471 q 485 488 522 488 q 422 479 447 488 q 381 451 396 471 q 360 400 367 432 q 353 319 353 368 q 360 240 353 272 q 381 188 367 207 q 422 160 396 168 q 485 151 447 151 m 572 726 q 515 741 542 725 q 460 774 488 757 q 403 788 433 790 q 358 769 375 788 q 335 744 340 751 l 288 788 q 295 804 288 788 q 317 843 303 821 q 353 883 332 865 q 403 900 375 900 q 460 887 433 903 q 515 855 488 871 q 569 839 542 839 q 620 858 601 839 q 647 889 639 876 l 694 851 q 686 833 694 851 q 663 790 678 814 q 624 746 647 765 q 572 726 601 726 m 264 953 l 264 1061 l 704 1061 l 704 953 l 264 953 z "},"P":{"ha":944,"x_min":49,"x_max":914,"o":"m 50 0 q 49 261 50 131 q 49 522 49 392 q 67 610 49 581 q 153 639 85 639 q 322 639 238 639 q 492 639 407 639 q 661 639 576 639 q 786 621 729 639 q 878 556 843 603 q 914 421 914 508 q 885 274 914 328 q 804 197 856 219 q 685 175 753 175 q 494 176 594 176 q 303 178 393 176 q 303 281 303 249 q 310 323 303 314 q 340 332 318 332 q 409 332 375 332 q 478 332 443 332 q 547 332 513 332 q 574 341 564 332 q 590 368 585 350 q 596 411 596 386 q 585 463 596 447 q 547 478 574 478 q 492 478 517 478 q 443 478 468 478 q 388 478 418 478 q 372 470 378 478 q 365 458 365 463 q 365 229 365 343 q 365 0 365 115 l 50 0 z "},"Q":{"ha":971,"x_min":28,"x_max":944,"o":"m 485 -10 q 267 8 354 -10 q 126 64 179 25 q 51 165 74 103 q 28 319 28 228 q 51 474 28 411 q 126 575 74 536 q 267 631 179 614 q 485 649 354 649 q 703 631 615 649 q 842 575 790 614 q 917 474 894 536 q 940 319 940 411 q 917 165 940 228 q 842 64 894 103 q 703 8 790 25 q 485 -10 615 -10 m 485 151 q 547 160 522 151 q 588 188 572 168 q 609 240 603 207 q 615 319 615 272 q 609 400 615 368 q 588 451 603 432 q 547 479 572 471 q 485 488 522 488 q 422 479 447 488 q 381 451 396 471 q 360 400 367 432 q 353 319 353 368 q 360 240 353 272 q 381 188 367 207 q 422 160 396 168 q 485 151 447 151 m 819 -131 q 747 -114 785 -131 q 669 -58 710 -97 q 631 -16 651 -40 q 586 36 610 8 q 538 93 563 64 q 485 149 513 122 q 426 197 457 175 q 456 238 435 225 q 500 250 478 250 q 555 241 531 250 q 615 203 579 232 q 688 142 656 171 q 747 88 719 114 q 803 40 775 63 q 866 -5 832 17 q 944 -46 900 -26 q 893 -111 925 -92 q 819 -131 861 -131 z "},"R":{"ha":965,"x_min":49,"x_max":940,"o":"m 469 181 q 451 181 469 181 q 408 180 432 181 q 365 179 383 179 l 365 0 l 49 0 l 49 544 q 67 612 49 585 q 151 639 85 639 q 220 640 172 639 q 331 640 268 640 q 461 641 393 640 q 591 641 529 642 q 698 640 653 640 q 761 638 743 639 q 878 594 838 631 q 918 468 918 558 q 910 346 918 381 q 882 293 903 311 q 847 277 869 283 q 796 271 824 271 l 796 264 q 824 264 808 264 q 850 263 839 264 q 913 224 903 253 q 924 161 924 194 l 924 64 q 931 15 924 29 q 940 0 939 1 l 700 0 q 626 14 653 0 q 600 71 600 28 l 600 122 q 581 173 600 165 q 515 181 563 181 l 469 181 m 365 326 q 399 326 375 326 q 452 325 424 325 q 505 325 481 325 q 539 325 529 325 q 581 342 563 325 q 599 404 599 358 q 588 454 599 436 q 554 475 578 472 q 515 478 540 478 q 463 478 490 478 q 414 477 436 478 q 382 476 392 476 q 373 474 381 476 q 365 458 365 471 l 365 326 z "},"Ŕ":{"ha":965,"x_min":49,"x_max":940,"o":"m 469 181 q 451 181 469 181 q 408 180 432 181 q 365 179 383 179 l 365 0 l 49 0 l 49 544 q 67 612 49 585 q 151 639 85 639 q 220 640 172 639 q 331 640 268 640 q 461 641 393 640 q 591 641 529 642 q 698 640 653 640 q 761 638 743 639 q 878 594 838 631 q 918 468 918 558 q 910 346 918 381 q 882 293 903 311 q 847 277 869 283 q 796 271 824 271 l 796 264 q 824 264 808 264 q 850 263 839 264 q 913 224 903 253 q 924 161 924 194 l 924 64 q 931 15 924 29 q 940 0 939 1 l 700 0 q 626 14 653 0 q 600 71 600 28 l 600 122 q 581 173 600 165 q 515 181 563 181 l 469 181 m 365 326 q 399 326 375 326 q 452 325 424 325 q 505 325 481 325 q 539 325 529 325 q 581 342 563 325 q 599 404 599 358 q 588 454 599 436 q 554 475 578 472 q 515 478 540 478 q 463 478 490 478 q 414 477 436 478 q 382 476 392 476 q 373 474 381 476 q 365 458 365 471 l 365 326 m 408 724 l 581 899 l 706 831 l 522 724 l 408 724 z "},"Ř":{"ha":965,"x_min":49,"x_max":940,"o":"m 293 899 l 404 899 l 493 833 l 576 899 l 696 899 l 529 724 l 457 724 l 293 899 m 469 181 q 451 181 469 181 q 408 180 432 181 q 365 179 383 179 l 365 0 l 49 0 l 49 544 q 67 612 49 585 q 151 639 85 639 q 220 640 172 639 q 331 640 268 640 q 461 641 393 640 q 591 641 529 642 q 698 640 653 640 q 761 638 743 639 q 878 594 838 631 q 918 468 918 558 q 910 346 918 381 q 882 293 903 311 q 847 277 869 283 q 796 271 824 271 l 796 264 q 824 264 808 264 q 850 263 839 264 q 913 224 903 253 q 924 161 924 194 l 924 64 q 931 15 924 29 q 940 0 939 1 l 700 0 q 626 14 653 0 q 600 71 600 28 l 600 122 q 581 173 600 165 q 515 181 563 181 l 469 181 m 365 326 q 399 326 375 326 q 452 325 424 325 q 505 325 481 325 q 539 325 529 325 q 581 342 563 325 q 599 404 599 358 q 588 454 599 436 q 554 475 578 472 q 515 478 540 478 q 463 478 490 478 q 414 477 436 478 q 382 476 392 476 q 373 474 381 476 q 365 458 365 471 l 365 326 z "},"Ŗ":{"ha":965,"x_min":49,"x_max":940,"o":"m 469 181 q 451 181 469 181 q 408 180 432 181 q 365 179 383 179 l 365 0 l 49 0 l 49 544 q 67 612 49 585 q 151 639 85 639 q 220 640 172 639 q 331 640 268 640 q 461 641 393 640 q 591 641 529 642 q 698 640 653 640 q 761 638 743 639 q 878 594 838 631 q 918 468 918 558 q 910 346 918 381 q 882 293 903 311 q 847 277 869 283 q 796 271 824 271 l 796 264 q 824 264 808 264 q 850 263 839 264 q 913 224 903 253 q 924 161 924 194 l 924 64 q 931 15 924 29 q 940 0 939 1 l 700 0 q 626 14 653 0 q 600 71 600 28 l 600 122 q 581 173 600 165 q 515 181 563 181 l 469 181 m 365 326 q 399 326 375 326 q 452 325 424 325 q 505 325 481 325 q 539 325 529 325 q 581 342 563 325 q 599 404 599 358 q 588 454 599 436 q 554 475 578 472 q 515 478 540 478 q 463 478 490 478 q 414 477 436 478 q 382 476 392 476 q 373 474 381 476 q 365 458 365 471 l 365 326 m 375 -408 q 408 -353 394 -375 q 434 -308 421 -331 q 464 -254 447 -286 q 451 -253 458 -254 q 436 -251 443 -253 q 395 -231 413 -247 q 378 -171 378 -215 q 412 -99 378 -114 q 506 -85 446 -85 q 551 -90 529 -85 q 587 -115 572 -96 q 601 -171 601 -133 q 587 -251 601 -210 q 548 -333 572 -293 q 496 -408 524 -374 l 375 -408 z "},"Ȑ":{"ha":965,"x_min":49,"x_max":940,"o":"m 469 181 q 451 181 469 181 q 408 180 432 181 q 365 179 383 179 l 365 0 l 49 0 l 49 544 q 67 612 49 585 q 151 639 85 639 q 220 640 172 639 q 331 640 268 640 q 461 641 393 640 q 591 641 529 642 q 698 640 653 640 q 761 638 743 639 q 878 594 838 631 q 918 468 918 558 q 910 346 918 381 q 882 293 903 311 q 847 277 869 283 q 796 271 824 271 l 796 264 q 824 264 808 264 q 850 263 839 264 q 913 224 903 253 q 924 161 924 194 l 924 64 q 931 15 924 29 q 940 0 939 1 l 700 0 q 626 14 653 0 q 600 71 600 28 l 600 122 q 581 173 600 165 q 515 181 563 181 l 469 181 m 365 326 q 399 326 375 326 q 452 325 424 325 q 505 325 481 325 q 539 325 529 325 q 581 342 563 325 q 599 404 599 358 q 588 454 599 436 q 554 475 578 472 q 515 478 540 478 q 463 478 490 478 q 414 477 436 478 q 382 476 392 476 q 373 474 381 476 q 365 458 365 471 l 365 326 m 378 724 l 189 851 l 333 919 l 492 724 l 378 724 m 551 724 l 406 894 l 550 961 l 653 724 l 551 724 z "},"Ȓ":{"ha":965,"x_min":49,"x_max":940,"o":"m 469 181 q 451 181 469 181 q 408 180 432 181 q 365 179 383 179 l 365 0 l 49 0 l 49 544 q 67 612 49 585 q 151 639 85 639 q 220 640 172 639 q 331 640 268 640 q 461 641 393 640 q 591 641 529 642 q 698 640 653 640 q 761 638 743 639 q 878 594 838 631 q 918 468 918 558 q 910 346 918 381 q 882 293 903 311 q 847 277 869 283 q 796 271 824 271 l 796 264 q 824 264 808 264 q 850 263 839 264 q 913 224 903 253 q 924 161 924 194 l 924 64 q 931 15 924 29 q 940 0 939 1 l 700 0 q 626 14 653 0 q 600 71 600 28 l 600 122 q 581 173 600 165 q 515 181 563 181 l 469 181 m 365 326 q 399 326 375 326 q 452 325 424 325 q 505 325 481 325 q 539 325 529 325 q 581 342 563 325 q 599 404 599 358 q 588 454 599 436 q 554 475 578 472 q 515 478 540 478 q 463 478 490 478 q 414 477 436 478 q 382 476 392 476 q 373 474 381 476 q 365 458 365 471 l 365 326 m 308 721 l 308 733 q 326 840 308 804 q 384 887 343 875 q 494 899 425 899 q 604 887 564 899 q 662 840 644 875 q 679 733 679 804 l 679 721 l 576 721 l 576 731 q 571 765 576 750 q 548 789 565 781 q 494 797 531 797 q 442 789 460 797 q 419 766 425 781 q 411 732 413 751 l 411 721 l 308 721 z "},"S":{"ha":919,"x_min":42,"x_max":878,"o":"m 42 192 q 140 172 81 178 q 263 164 199 165 q 376 163 326 163 q 427 163 396 163 q 476 164 458 164 q 516 169 501 164 q 537 182 531 174 q 543 203 543 190 q 531 226 543 218 q 492 233 519 233 q 461 233 479 233 q 410 233 443 233 q 319 233 378 233 q 222 238 269 233 q 135 259 174 242 q 74 314 97 276 q 51 418 51 351 q 77 542 51 497 q 151 610 103 588 q 269 638 200 632 q 426 644 339 644 q 538 644 479 644 q 649 642 597 643 q 726 639 700 640 q 827 606 792 636 q 863 529 863 575 q 863 506 863 524 q 863 473 863 489 q 863 456 863 457 q 824 467 854 463 q 751 473 793 471 q 668 476 710 475 q 594 476 626 476 l 438 476 q 396 472 408 476 q 381 459 383 467 q 378 443 378 451 q 379 429 378 436 q 389 417 381 422 q 415 413 397 413 q 581 413 522 413 q 644 413 639 413 q 769 400 717 413 q 849 347 821 388 q 878 221 878 306 q 849 96 878 143 q 769 26 821 49 q 647 0 717 4 q 477 -6 557 -6 q 307 -6 397 -7 q 185 0 236 -4 q 103 15 135 4 q 56 43 71 25 q 42 90 42 61 l 42 192 z "},"Ś":{"ha":919,"x_min":42,"x_max":878,"o":"m 42 192 q 140 172 81 178 q 263 164 199 165 q 376 163 326 163 q 427 163 396 163 q 476 164 458 164 q 516 169 501 164 q 537 182 531 174 q 543 203 543 190 q 531 226 543 218 q 492 233 519 233 q 461 233 479 233 q 410 233 443 233 q 319 233 378 233 q 222 238 269 233 q 135 259 174 242 q 74 314 97 276 q 51 418 51 351 q 77 542 51 497 q 151 610 103 588 q 269 638 200 632 q 426 644 339 644 q 538 644 479 644 q 649 642 597 643 q 726 639 700 640 q 827 606 792 636 q 863 529 863 575 q 863 506 863 524 q 863 473 863 489 q 863 456 863 457 q 824 467 854 463 q 751 473 793 471 q 668 476 710 475 q 594 476 626 476 l 438 476 q 396 472 408 476 q 381 459 383 467 q 378 443 378 451 q 379 429 378 436 q 389 417 381 422 q 415 413 397 413 q 581 413 522 413 q 644 413 639 413 q 769 400 717 413 q 849 347 821 388 q 878 221 878 306 q 849 96 878 143 q 769 26 821 49 q 647 0 717 4 q 477 -6 557 -6 q 307 -6 397 -7 q 185 0 236 -4 q 103 15 135 4 q 56 43 71 25 q 42 90 42 61 l 42 192 m 372 724 l 544 899 l 669 831 l 486 724 l 372 724 z "},"Š":{"ha":919,"x_min":42,"x_max":878,"o":"m 257 899 l 368 899 l 457 833 l 540 899 l 660 899 l 493 724 l 421 724 l 257 899 m 42 192 q 140 172 81 178 q 263 164 199 165 q 376 163 326 163 q 427 163 396 163 q 476 164 458 164 q 516 169 501 164 q 537 182 531 174 q 543 203 543 190 q 531 226 543 218 q 492 233 519 233 q 461 233 479 233 q 410 233 443 233 q 319 233 378 233 q 222 238 269 233 q 135 259 174 242 q 74 314 97 276 q 51 418 51 351 q 77 542 51 497 q 151 610 103 588 q 269 638 200 632 q 426 644 339 644 q 538 644 479 644 q 649 642 597 643 q 726 639 700 640 q 827 606 792 636 q 863 529 863 575 q 863 506 863 524 q 863 473 863 489 q 863 456 863 457 q 824 467 854 463 q 751 473 793 471 q 668 476 710 475 q 594 476 626 476 l 438 476 q 396 472 408 476 q 381 459 383 467 q 378 443 378 451 q 379 429 378 436 q 389 417 381 422 q 415 413 397 413 q 581 413 522 413 q 644 413 639 413 q 769 400 717 413 q 849 347 821 388 q 878 221 878 306 q 849 96 878 143 q 769 26 821 49 q 647 0 717 4 q 477 -6 557 -6 q 307 -6 397 -7 q 185 0 236 -4 q 103 15 135 4 q 56 43 71 25 q 42 90 42 61 l 42 192 z "},"Ş":{"ha":919,"x_min":42,"x_max":878,"o":"m 42 192 q 140 172 81 178 q 263 164 199 165 q 376 163 326 163 q 427 163 396 163 q 476 164 458 164 q 516 169 501 164 q 537 182 531 174 q 543 203 543 190 q 531 226 543 218 q 492 233 519 233 q 461 233 479 233 q 410 233 443 233 q 319 233 378 233 q 222 238 269 233 q 135 259 174 242 q 74 314 97 276 q 51 418 51 351 q 77 542 51 497 q 151 610 103 588 q 269 638 200 632 q 426 644 339 644 q 538 644 479 644 q 649 642 597 643 q 726 639 700 640 q 827 606 792 636 q 863 529 863 575 q 863 506 863 524 q 863 473 863 489 q 863 456 863 457 q 824 467 854 463 q 751 473 793 471 q 668 476 710 475 q 594 476 626 476 l 438 476 q 396 472 408 476 q 381 459 383 467 q 378 443 378 451 q 379 429 378 436 q 389 417 381 422 q 415 413 397 413 q 581 413 522 413 q 644 413 639 413 q 769 400 717 413 q 849 347 821 388 q 878 221 878 306 q 849 96 878 143 q 769 26 821 49 q 647 0 717 4 q 477 -6 557 -6 q 307 -6 397 -7 q 185 0 236 -4 q 103 15 135 4 q 56 43 71 25 q 42 90 42 61 l 42 192 m 408 -244 q 340 -233 353 -244 q 326 -182 326 -221 q 342 -182 329 -182 q 385 -182 354 -182 q 434 -179 421 -182 q 447 -162 447 -176 q 434 -144 447 -147 q 386 -142 421 -142 l 319 -142 q 321 -131 321 -142 q 329 -101 321 -121 q 363 -57 338 -82 q 385 -35 375 -44 q 407 -18 396 -25 q 430 -6 418 -11 q 456 1 442 -1 l 538 1 l 463 -83 q 549 -88 521 -83 q 587 -110 578 -93 q 596 -165 596 -128 q 584 -219 596 -203 q 533 -240 572 -236 q 408 -244 493 -244 z "},"Ə":{"ha":924,"x_min":69,"x_max":882,"o":"m 475 643 q 679 631 600 643 q 803 585 758 618 q 865 493 847 553 q 882 339 882 433 q 843 135 882 210 q 707 28 804 60 q 436 -4 610 -4 q 222 21 301 -4 q 107 98 142 46 q 72 231 72 150 q 79 326 72 294 q 112 367 86 357 q 193 378 138 378 l 621 378 q 601 303 621 333 q 529 274 582 274 l 393 274 q 376 269 383 274 q 368 249 368 264 q 383 184 368 208 q 451 160 399 160 q 514 173 493 160 q 542 224 535 186 q 549 333 549 261 q 538 416 549 389 q 497 451 528 443 q 400 460 465 460 q 341 459 379 460 q 259 458 303 458 q 174 456 215 457 q 103 453 132 454 q 69 453 75 453 l 69 490 q 76 551 69 518 q 99 600 83 583 q 213 636 122 629 q 475 643 303 643 z "},"Ŝ":{"ha":919,"x_min":42,"x_max":878,"o":"m 42 192 q 140 172 81 178 q 263 164 199 165 q 376 163 326 163 q 427 163 396 163 q 476 164 458 164 q 516 169 501 164 q 537 182 531 174 q 543 203 543 190 q 531 226 543 218 q 492 233 519 233 q 461 233 479 233 q 410 233 443 233 q 319 233 378 233 q 222 238 269 233 q 135 259 174 242 q 74 314 97 276 q 51 418 51 351 q 77 542 51 497 q 151 610 103 588 q 269 638 200 632 q 426 644 339 644 q 538 644 479 644 q 649 642 597 643 q 726 639 700 640 q 827 606 792 636 q 863 529 863 575 q 863 506 863 524 q 863 473 863 489 q 863 456 863 457 q 824 467 854 463 q 751 473 793 471 q 668 476 710 475 q 594 476 626 476 l 438 476 q 396 472 408 476 q 381 459 383 467 q 378 443 378 451 q 379 429 378 436 q 389 417 381 422 q 415 413 397 413 q 581 413 522 413 q 644 413 639 413 q 769 400 717 413 q 849 347 821 388 q 878 221 878 306 q 849 96 878 143 q 769 26 821 49 q 647 0 717 4 q 477 -6 557 -6 q 307 -6 397 -7 q 185 0 236 -4 q 103 15 135 4 q 56 43 71 25 q 42 90 42 61 l 42 192 m 257 724 l 421 899 l 493 899 l 660 724 l 540 724 l 457 789 l 368 724 l 257 724 z "},"Ș":{"ha":919,"x_min":42,"x_max":878,"o":"m 42 192 q 140 172 81 178 q 263 164 199 165 q 376 163 326 163 q 427 163 396 163 q 476 164 458 164 q 516 169 501 164 q 537 182 531 174 q 543 203 543 190 q 531 226 543 218 q 492 233 519 233 q 461 233 479 233 q 410 233 443 233 q 319 233 378 233 q 222 238 269 233 q 135 259 174 242 q 74 314 97 276 q 51 418 51 351 q 77 542 51 497 q 151 610 103 588 q 269 638 200 632 q 426 644 339 644 q 538 644 479 644 q 649 642 597 643 q 726 639 700 640 q 827 606 792 636 q 863 529 863 575 q 863 506 863 524 q 863 473 863 489 q 863 456 863 457 q 824 467 854 463 q 751 473 793 471 q 668 476 710 475 q 594 476 626 476 l 438 476 q 396 472 408 476 q 381 459 383 467 q 378 443 378 451 q 379 429 378 436 q 389 417 381 422 q 415 413 397 413 q 581 413 522 413 q 644 413 639 413 q 769 400 717 413 q 849 347 821 388 q 878 221 878 306 q 849 96 878 143 q 769 26 821 49 q 647 0 717 4 q 477 -6 557 -6 q 307 -6 397 -7 q 185 0 236 -4 q 103 15 135 4 q 56 43 71 25 q 42 90 42 61 l 42 192 m 339 -408 q 372 -353 358 -375 q 398 -308 385 -331 q 428 -254 411 -286 q 415 -253 422 -254 q 400 -251 407 -253 q 359 -231 376 -247 q 342 -171 342 -215 q 376 -99 342 -114 q 469 -85 410 -85 q 515 -90 493 -85 q 551 -115 536 -96 q 565 -171 565 -133 q 551 -251 565 -210 q 512 -333 536 -293 q 460 -408 488 -374 l 339 -408 z "},"T":{"ha":906,"x_min":21,"x_max":885,"o":"m 21 639 l 885 639 l 885 475 l 613 475 l 613 97 q 594 19 613 38 q 510 0 575 0 l 296 0 l 296 475 l 21 475 l 21 639 z "},"Ŧ":{"ha":906,"x_min":21,"x_max":885,"o":"m 138 369 l 296 369 l 296 475 l 21 475 l 21 639 l 885 639 l 885 475 l 613 475 l 613 369 l 779 369 l 779 286 l 613 286 l 613 97 q 594 19 613 38 q 510 0 575 0 l 296 0 l 296 286 l 138 286 l 138 369 z "},"Ť":{"ha":906,"x_min":21,"x_max":885,"o":"m 251 899 l 363 899 l 451 833 l 535 899 l 654 899 l 488 724 l 415 724 l 251 899 m 21 639 l 885 639 l 885 475 l 613 475 l 613 97 q 594 19 613 38 q 510 0 575 0 l 296 0 l 296 475 l 21 475 l 21 639 z "},"Ţ":{"ha":906,"x_min":21,"x_max":885,"o":"m 21 639 l 885 639 l 885 475 l 613 475 l 613 97 q 594 19 613 38 q 510 0 575 0 l 296 0 l 296 475 l 21 475 l 21 639 m 403 -244 q 334 -233 347 -244 q 321 -182 321 -221 q 336 -182 324 -182 q 379 -182 349 -182 q 428 -179 415 -182 q 442 -162 442 -176 q 428 -144 442 -147 q 381 -142 415 -142 l 314 -142 q 315 -131 315 -142 q 324 -101 315 -121 q 357 -57 332 -82 q 380 -35 369 -44 q 401 -18 390 -25 q 424 -6 413 -11 q 450 1 436 -1 l 532 1 l 457 -83 q 544 -88 515 -83 q 581 -110 572 -93 q 590 -165 590 -128 q 578 -219 590 -203 q 527 -240 567 -236 q 403 -244 488 -244 z "},"Ț":{"ha":906,"x_min":21,"x_max":885,"o":"m 21 639 l 885 639 l 885 475 l 613 475 l 613 97 q 594 19 613 38 q 510 0 575 0 l 296 0 l 296 475 l 21 475 l 21 639 m 333 -408 q 366 -353 353 -375 q 392 -308 379 -331 q 422 -254 406 -286 q 409 -253 417 -254 q 394 -251 401 -253 q 353 -231 371 -247 q 336 -171 336 -215 q 370 -99 336 -114 q 464 -85 404 -85 q 509 -90 488 -85 q 545 -115 531 -96 q 560 -171 560 -133 q 545 -251 560 -210 q 506 -333 531 -293 q 454 -408 482 -374 l 333 -408 z "},"Þ":{"ha":950,"x_min":38,"x_max":861,"o":"m 38 606 q 58 674 38 661 q 138 688 78 688 l 292 688 l 292 579 l 615 579 q 777 556 725 579 q 845 487 829 533 q 861 367 861 440 q 840 250 861 299 q 760 176 818 201 q 596 150 703 150 l 293 150 l 293 0 l 38 0 l 38 606 m 293 425 l 293 306 l 579 306 q 597 310 590 306 q 605 328 603 315 q 607 367 607 342 q 604 405 607 393 q 594 421 601 417 q 575 425 588 425 l 293 425 z "},"U":{"ha":950,"x_min":42,"x_max":908,"o":"m 908 347 q 897 183 908 250 q 844 74 886 115 q 715 15 803 33 q 472 -3 626 -3 q 263 9 344 -3 q 135 46 181 21 q 70 110 90 71 q 46 203 50 149 q 42 328 42 257 l 42 503 q 45 589 42 560 q 73 628 49 618 q 157 639 97 639 l 358 639 l 358 285 q 370 204 358 229 q 408 173 382 179 q 474 167 433 167 q 566 191 540 167 q 592 282 592 215 l 592 639 l 790 639 q 876 628 851 639 q 904 589 900 618 q 908 503 908 560 l 908 347 z "},"Ú":{"ha":950,"x_min":42,"x_max":908,"o":"m 908 347 q 897 183 908 250 q 844 74 886 115 q 715 15 803 33 q 472 -3 626 -3 q 263 9 344 -3 q 135 46 181 21 q 70 110 90 71 q 46 203 50 149 q 42 328 42 257 l 42 503 q 45 589 42 560 q 73 628 49 618 q 157 639 97 639 l 358 639 l 358 285 q 370 204 358 229 q 408 173 382 179 q 474 167 433 167 q 566 191 540 167 q 592 282 592 215 l 592 639 l 790 639 q 876 628 851 639 q 904 589 900 618 q 908 503 908 560 l 908 347 m 389 724 l 561 899 l 686 831 l 503 724 l 389 724 z "},"Ŭ":{"ha":950,"x_min":42,"x_max":908,"o":"m 908 347 q 897 183 908 250 q 844 74 886 115 q 715 15 803 33 q 472 -3 626 -3 q 263 9 344 -3 q 135 46 181 21 q 70 110 90 71 q 46 203 50 149 q 42 328 42 257 l 42 503 q 45 589 42 560 q 73 628 49 618 q 157 639 97 639 l 358 639 l 358 285 q 370 204 358 229 q 408 173 382 179 q 474 167 433 167 q 566 191 540 167 q 592 282 592 215 l 592 639 l 790 639 q 876 628 851 639 q 904 589 900 618 q 908 503 908 560 l 908 347 m 475 721 q 365 733 406 721 q 306 781 324 744 q 289 886 289 817 l 289 899 l 392 899 l 392 889 q 398 854 392 869 q 422 831 404 839 q 475 822 440 822 q 528 831 511 822 q 551 854 546 839 q 557 889 557 869 l 557 899 l 660 899 l 660 886 q 642 781 660 817 q 585 733 625 744 q 475 721 544 721 z "},"Û":{"ha":950,"x_min":42,"x_max":908,"o":"m 908 347 q 897 183 908 250 q 844 74 886 115 q 715 15 803 33 q 472 -3 626 -3 q 263 9 344 -3 q 135 46 181 21 q 70 110 90 71 q 46 203 50 149 q 42 328 42 257 l 42 503 q 45 589 42 560 q 73 628 49 618 q 157 639 97 639 l 358 639 l 358 285 q 370 204 358 229 q 408 173 382 179 q 474 167 433 167 q 566 191 540 167 q 592 282 592 215 l 592 639 l 790 639 q 876 628 851 639 q 904 589 900 618 q 908 503 908 560 l 908 347 m 274 724 l 438 899 l 510 899 l 676 724 l 557 724 l 474 789 l 385 724 l 274 724 z "},"Ȕ":{"ha":950,"x_min":42,"x_max":908,"o":"m 908 347 q 897 183 908 250 q 844 74 886 115 q 715 15 803 33 q 472 -3 626 -3 q 263 9 344 -3 q 135 46 181 21 q 70 110 90 71 q 46 203 50 149 q 42 328 42 257 l 42 503 q 45 589 42 560 q 73 628 49 618 q 157 639 97 639 l 358 639 l 358 285 q 370 204 358 229 q 408 173 382 179 q 474 167 433 167 q 566 191 540 167 q 592 282 592 215 l 592 639 l 790 639 q 876 628 851 639 q 904 589 900 618 q 908 503 908 560 l 908 347 m 358 724 l 169 851 l 314 919 l 472 724 l 358 724 m 532 724 l 386 894 l 531 961 l 633 724 l 532 724 z "},"Ü":{"ha":950,"x_min":42,"x_max":908,"o":"m 908 347 q 897 183 908 250 q 844 74 886 115 q 715 15 803 33 q 472 -3 626 -3 q 263 9 344 -3 q 135 46 181 21 q 70 110 90 71 q 46 203 50 149 q 42 328 42 257 l 42 503 q 45 589 42 560 q 73 628 49 618 q 157 639 97 639 l 358 639 l 358 285 q 370 204 358 229 q 408 173 382 179 q 474 167 433 167 q 566 191 540 167 q 592 282 592 215 l 592 639 l 790 639 q 876 628 851 639 q 904 589 900 618 q 908 503 908 560 l 908 347 m 624 721 q 553 733 581 721 q 526 792 526 744 q 556 847 526 836 q 628 857 585 857 q 694 845 669 857 q 719 792 719 833 q 694 733 719 744 q 624 721 668 721 m 326 721 q 256 733 283 721 q 229 792 229 744 q 258 847 229 836 q 331 857 288 857 q 397 845 372 857 q 421 792 421 833 q 395 733 421 744 q 326 721 369 721 z "},"Ụ":{"ha":950,"x_min":42,"x_max":908,"o":"m 908 347 q 897 183 908 250 q 844 74 886 115 q 715 15 803 33 q 472 -3 626 -3 q 263 9 344 -3 q 135 46 181 21 q 70 110 90 71 q 46 203 50 149 q 42 328 42 257 l 42 503 q 45 589 42 560 q 73 628 49 618 q 157 639 97 639 l 358 639 l 358 285 q 370 204 358 229 q 408 173 382 179 q 474 167 433 167 q 566 191 540 167 q 592 282 592 215 l 592 639 l 790 639 q 876 628 851 639 q 904 589 900 618 q 908 503 908 560 l 908 347 m 475 -254 q 404 -249 435 -254 q 356 -226 374 -244 q 339 -167 339 -208 q 380 -94 339 -108 q 481 -79 421 -79 q 575 -94 540 -79 q 610 -167 610 -110 q 593 -226 610 -208 q 547 -249 576 -244 q 475 -254 517 -254 z "},"Ù":{"ha":950,"x_min":42,"x_max":908,"o":"m 908 347 q 897 183 908 250 q 844 74 886 115 q 715 15 803 33 q 472 -3 626 -3 q 263 9 344 -3 q 135 46 181 21 q 70 110 90 71 q 46 203 50 149 q 42 328 42 257 l 42 503 q 45 589 42 560 q 73 628 49 618 q 157 639 97 639 l 358 639 l 358 285 q 370 204 358 229 q 408 173 382 179 q 474 167 433 167 q 566 191 540 167 q 592 282 592 215 l 592 639 l 790 639 q 876 628 851 639 q 904 589 900 618 q 908 503 908 560 l 908 347 m 471 724 l 288 831 l 413 899 l 585 724 l 471 724 z "},"Ủ":{"ha":950,"x_min":42,"x_max":908,"o":"m 908 347 q 897 183 908 250 q 844 74 886 115 q 715 15 803 33 q 472 -3 626 -3 q 263 9 344 -3 q 135 46 181 21 q 70 110 90 71 q 46 203 50 149 q 42 328 42 257 l 42 503 q 45 589 42 560 q 73 628 49 618 q 157 639 97 639 l 358 639 l 358 285 q 370 204 358 229 q 408 173 382 179 q 474 167 433 167 q 566 191 540 167 q 592 282 592 215 l 592 639 l 790 639 q 876 628 851 639 q 904 589 900 618 q 908 503 908 560 l 908 347 m 431 724 l 431 743 q 438 767 431 758 q 453 779 444 775 q 469 790 463 783 q 476 807 476 796 l 476 824 q 474 844 476 838 q 461 851 471 851 q 446 824 446 851 l 353 838 q 385 904 356 882 q 471 926 414 926 q 565 906 533 926 q 597 832 597 885 l 597 826 q 590 788 597 801 q 571 767 582 775 q 552 753 560 760 q 544 735 544 746 l 544 724 l 431 724 z "},"Ư":{"ha":950,"x_min":42,"x_max":985,"o":"m 908 347 q 897 183 908 250 q 844 74 886 115 q 715 15 803 33 q 472 -3 626 -3 q 263 9 344 -3 q 135 46 181 21 q 70 110 90 71 q 46 203 50 149 q 42 328 42 257 l 42 503 q 45 589 42 560 q 73 628 49 618 q 157 639 97 639 l 358 639 l 358 285 q 370 204 358 229 q 408 173 382 179 q 474 167 433 167 q 566 191 540 167 q 592 282 592 215 l 592 639 l 790 639 q 876 628 851 639 q 904 589 900 618 q 908 503 908 560 l 908 347 m 758 547 l 758 639 l 788 639 q 821 647 808 639 q 840 669 833 654 q 846 704 846 683 l 846 732 l 985 732 l 985 704 q 928 582 985 617 q 758 547 872 547 z "},"Ứ":{"ha":950,"x_min":42,"x_max":985,"o":"m 908 347 q 897 183 908 250 q 844 74 886 115 q 715 15 803 33 q 472 -3 626 -3 q 263 9 344 -3 q 135 46 181 21 q 70 110 90 71 q 46 203 50 149 q 42 328 42 257 l 42 503 q 45 589 42 560 q 73 628 49 618 q 157 639 97 639 l 358 639 l 358 285 q 370 204 358 229 q 408 173 382 179 q 474 167 433 167 q 566 191 540 167 q 592 282 592 215 l 592 639 l 790 639 q 876 628 851 639 q 904 589 900 618 q 908 503 908 560 l 908 347 m 758 547 l 758 639 l 788 639 q 821 647 808 639 q 840 669 833 654 q 846 704 846 683 l 846 732 l 985 732 l 985 704 q 928 582 985 617 q 758 547 872 547 m 389 724 l 561 899 l 686 831 l 503 724 l 389 724 z "},"Ự":{"ha":950,"x_min":42,"x_max":985,"o":"m 908 347 q 897 183 908 250 q 844 74 886 115 q 715 15 803 33 q 472 -3 626 -3 q 263 9 344 -3 q 135 46 181 21 q 70 110 90 71 q 46 203 50 149 q 42 328 42 257 l 42 503 q 45 589 42 560 q 73 628 49 618 q 157 639 97 639 l 358 639 l 358 285 q 370 204 358 229 q 408 173 382 179 q 474 167 433 167 q 566 191 540 167 q 592 282 592 215 l 592 639 l 790 639 q 876 628 851 639 q 904 589 900 618 q 908 503 908 560 l 908 347 m 758 547 l 758 639 l 788 639 q 821 647 808 639 q 840 669 833 654 q 846 704 846 683 l 846 732 l 985 732 l 985 704 q 928 582 985 617 q 758 547 872 547 m 475 -254 q 404 -249 435 -254 q 356 -226 374 -244 q 339 -167 339 -208 q 380 -94 339 -108 q 481 -79 421 -79 q 575 -94 540 -79 q 610 -167 610 -110 q 593 -226 610 -208 q 547 -249 576 -244 q 475 -254 517 -254 z "},"Ừ":{"ha":950,"x_min":42,"x_max":985,"o":"m 908 347 q 897 183 908 250 q 844 74 886 115 q 715 15 803 33 q 472 -3 626 -3 q 263 9 344 -3 q 135 46 181 21 q 70 110 90 71 q 46 203 50 149 q 42 328 42 257 l 42 503 q 45 589 42 560 q 73 628 49 618 q 157 639 97 639 l 358 639 l 358 285 q 370 204 358 229 q 408 173 382 179 q 474 167 433 167 q 566 191 540 167 q 592 282 592 215 l 592 639 l 790 639 q 876 628 851 639 q 904 589 900 618 q 908 503 908 560 l 908 347 m 758 547 l 758 639 l 788 639 q 821 647 808 639 q 840 669 833 654 q 846 704 846 683 l 846 732 l 985 732 l 985 704 q 928 582 985 617 q 758 547 872 547 m 471 724 l 288 831 l 413 899 l 585 724 l 471 724 z "},"Ử":{"ha":950,"x_min":42,"x_max":985,"o":"m 908 347 q 897 183 908 250 q 844 74 886 115 q 715 15 803 33 q 472 -3 626 -3 q 263 9 344 -3 q 135 46 181 21 q 70 110 90 71 q 46 203 50 149 q 42 328 42 257 l 42 503 q 45 589 42 560 q 73 628 49 618 q 157 639 97 639 l 358 639 l 358 285 q 370 204 358 229 q 408 173 382 179 q 474 167 433 167 q 566 191 540 167 q 592 282 592 215 l 592 639 l 790 639 q 876 628 851 639 q 904 589 900 618 q 908 503 908 560 l 908 347 m 758 547 l 758 639 l 788 639 q 821 647 808 639 q 840 669 833 654 q 846 704 846 683 l 846 732 l 985 732 l 985 704 q 928 582 985 617 q 758 547 872 547 m 431 724 l 431 743 q 438 767 431 758 q 453 779 444 775 q 469 790 463 783 q 476 807 476 796 l 476 824 q 474 844 476 838 q 461 851 471 851 q 446 824 446 851 l 353 838 q 385 904 356 882 q 471 926 414 926 q 565 906 533 926 q 597 832 597 885 l 597 826 q 590 788 597 801 q 571 767 582 775 q 552 753 560 760 q 544 735 544 746 l 544 724 l 431 724 z "},"Ữ":{"ha":950,"x_min":42,"x_max":985,"o":"m 908 347 q 897 183 908 250 q 844 74 886 115 q 715 15 803 33 q 472 -3 626 -3 q 263 9 344 -3 q 135 46 181 21 q 70 110 90 71 q 46 203 50 149 q 42 328 42 257 l 42 503 q 45 589 42 560 q 73 628 49 618 q 157 639 97 639 l 358 639 l 358 285 q 370 204 358 229 q 408 173 382 179 q 474 167 433 167 q 566 191 540 167 q 592 282 592 215 l 592 639 l 790 639 q 876 628 851 639 q 904 589 900 618 q 908 503 908 560 l 908 347 m 758 547 l 758 639 l 788 639 q 821 647 808 639 q 840 669 833 654 q 846 704 846 683 l 846 732 l 985 732 l 985 704 q 928 582 985 617 q 758 547 872 547 m 563 726 q 505 741 532 725 q 451 774 478 757 q 393 788 424 790 q 348 769 365 788 q 325 744 331 751 l 278 788 q 285 804 278 788 q 308 843 293 821 q 344 883 322 865 q 393 900 365 900 q 451 887 424 903 q 505 855 478 871 q 560 839 532 839 q 610 858 592 839 q 638 889 629 876 l 685 851 q 676 833 685 851 q 653 790 668 814 q 615 746 638 765 q 563 726 592 726 z "},"Ű":{"ha":950,"x_min":42,"x_max":908,"o":"m 908 347 q 897 183 908 250 q 844 74 886 115 q 715 15 803 33 q 472 -3 626 -3 q 263 9 344 -3 q 135 46 181 21 q 70 110 90 71 q 46 203 50 149 q 42 328 42 257 l 42 503 q 45 589 42 560 q 73 628 49 618 q 157 639 97 639 l 358 639 l 358 285 q 370 204 358 229 q 408 173 382 179 q 474 167 433 167 q 566 191 540 167 q 592 282 592 215 l 592 639 l 790 639 q 876 628 851 639 q 904 589 900 618 q 908 503 908 560 l 908 347 m 528 724 l 596 899 l 750 896 l 646 724 l 528 724 m 318 724 l 386 899 l 540 896 l 436 724 l 318 724 z "},"Ȗ":{"ha":950,"x_min":42,"x_max":908,"o":"m 908 347 q 897 183 908 250 q 844 74 886 115 q 715 15 803 33 q 472 -3 626 -3 q 263 9 344 -3 q 135 46 181 21 q 70 110 90 71 q 46 203 50 149 q 42 328 42 257 l 42 503 q 45 589 42 560 q 73 628 49 618 q 157 639 97 639 l 358 639 l 358 285 q 370 204 358 229 q 408 173 382 179 q 474 167 433 167 q 566 191 540 167 q 592 282 592 215 l 592 639 l 790 639 q 876 628 851 639 q 904 589 900 618 q 908 503 908 560 l 908 347 m 289 721 l 289 733 q 306 840 289 804 q 365 887 324 875 q 475 899 406 899 q 585 887 544 899 q 642 840 625 875 q 660 733 660 804 l 660 721 l 557 721 l 557 731 q 551 765 557 750 q 528 789 546 781 q 475 797 511 797 q 423 789 440 797 q 399 766 406 781 q 392 732 393 751 l 392 721 l 289 721 z "},"Ū":{"ha":950,"x_min":42,"x_max":908,"o":"m 908 347 q 897 183 908 250 q 844 74 886 115 q 715 15 803 33 q 472 -3 626 -3 q 263 9 344 -3 q 135 46 181 21 q 70 110 90 71 q 46 203 50 149 q 42 328 42 257 l 42 503 q 45 589 42 560 q 73 628 49 618 q 157 639 97 639 l 358 639 l 358 285 q 370 204 358 229 q 408 173 382 179 q 474 167 433 167 q 566 191 540 167 q 592 282 592 215 l 592 639 l 790 639 q 876 628 851 639 q 904 589 900 618 q 908 503 908 560 l 908 347 m 254 724 l 254 832 l 694 832 l 694 724 l 254 724 z "},"Ų":{"ha":950,"x_min":42,"x_max":908,"o":"m 908 347 q 897 183 908 250 q 844 74 886 115 q 715 15 803 33 q 472 -3 626 -3 q 263 9 344 -3 q 135 46 181 21 q 70 110 90 71 q 46 203 50 149 q 42 328 42 257 l 42 503 q 45 589 42 560 q 73 628 49 618 q 157 639 97 639 l 358 639 l 358 285 q 370 204 358 229 q 408 173 382 179 q 474 167 433 167 q 566 191 540 167 q 592 282 592 215 l 592 639 l 790 639 q 876 628 851 639 q 904 589 900 618 q 908 503 908 560 l 908 347 m 442 -265 q 352 -250 382 -265 q 313 -208 322 -235 q 303 -146 303 -181 q 315 -87 303 -112 q 347 -41 328 -61 q 388 -8 367 -21 q 428 14 410 6 l 553 14 q 519 -3 540 10 q 476 -32 499 -15 q 439 -69 454 -49 q 424 -110 424 -89 q 445 -155 424 -147 q 497 -162 467 -162 q 544 -162 532 -162 q 558 -160 556 -161 q 563 -160 560 -160 q 555 -219 563 -196 q 522 -254 547 -243 q 442 -265 496 -265 z "},"Ů":{"ha":950,"x_min":42,"x_max":908,"o":"m 908 347 q 897 183 908 250 q 844 74 886 115 q 715 15 803 33 q 472 -3 626 -3 q 263 9 344 -3 q 135 46 181 21 q 70 110 90 71 q 46 203 50 149 q 42 328 42 257 l 42 503 q 45 589 42 560 q 73 628 49 618 q 157 639 97 639 l 358 639 l 358 285 q 370 204 358 229 q 408 173 382 179 q 474 167 433 167 q 566 191 540 167 q 592 282 592 215 l 592 639 l 790 639 q 876 628 851 639 q 904 589 900 618 q 908 503 908 560 l 908 347 m 475 725 q 393 731 429 725 q 337 760 357 738 q 317 828 317 782 q 337 894 317 874 q 394 919 357 914 q 478 925 431 925 q 563 919 526 925 q 621 894 600 914 q 642 828 642 874 q 621 760 642 782 q 563 731 600 738 q 475 725 525 725 m 478 797 q 522 803 508 797 q 536 825 536 808 q 522 847 536 842 q 478 853 508 853 q 433 847 447 853 q 419 825 419 842 q 433 803 419 808 q 478 797 447 797 z "},"Ũ":{"ha":950,"x_min":42,"x_max":908,"o":"m 908 347 q 897 183 908 250 q 844 74 886 115 q 715 15 803 33 q 472 -3 626 -3 q 263 9 344 -3 q 135 46 181 21 q 70 110 90 71 q 46 203 50 149 q 42 328 42 257 l 42 503 q 45 589 42 560 q 73 628 49 618 q 157 639 97 639 l 358 639 l 358 285 q 370 204 358 229 q 408 173 382 179 q 474 167 433 167 q 566 191 540 167 q 592 282 592 215 l 592 639 l 790 639 q 876 628 851 639 q 904 589 900 618 q 908 503 908 560 l 908 347 m 563 726 q 505 741 532 725 q 451 774 478 757 q 393 788 424 790 q 348 769 365 788 q 325 744 331 751 l 278 788 q 285 804 278 788 q 308 843 293 821 q 344 883 322 865 q 393 900 365 900 q 451 887 424 903 q 505 855 478 871 q 560 839 532 839 q 610 858 592 839 q 638 889 629 876 l 685 851 q 676 833 685 851 q 653 790 668 814 q 615 746 638 765 q 563 726 592 726 z "},"V":{"ha":922,"x_min":10,"x_max":924,"o":"m 433 0 q 327 21 363 0 q 263 103 292 42 l 10 639 l 358 639 l 507 292 q 515 276 511 282 q 524 271 519 271 l 528 271 l 690 639 l 924 639 l 622 0 l 433 0 z "},"W":{"ha":1197,"x_min":26,"x_max":1175,"o":"m 267 0 q 195 19 225 0 q 147 64 165 38 q 125 114 129 90 l 26 639 l 317 638 l 385 278 q 390 260 388 265 q 399 254 393 254 l 406 254 l 496 639 l 797 639 l 907 254 l 917 254 q 921 259 921 254 q 922 271 921 264 l 963 639 l 1175 639 l 1099 114 q 1074 53 1094 79 q 1015 14 1053 28 q 919 0 978 0 l 715 0 l 647 250 l 629 333 l 617 250 l 561 0 l 267 0 z "},"Ẃ":{"ha":1197,"x_min":26,"x_max":1175,"o":"m 267 0 q 195 19 225 0 q 147 64 165 38 q 125 114 129 90 l 26 639 l 317 638 l 385 278 q 390 260 388 265 q 399 254 393 254 l 406 254 l 496 639 l 797 639 l 907 254 l 917 254 q 921 259 921 254 q 922 271 921 264 l 963 639 l 1175 639 l 1099 114 q 1074 53 1094 79 q 1015 14 1053 28 q 919 0 978 0 l 715 0 l 647 250 l 629 333 l 617 250 l 561 0 l 267 0 m 564 724 l 736 899 l 861 831 l 678 724 l 564 724 z "},"Ŵ":{"ha":1197,"x_min":26,"x_max":1175,"o":"m 267 0 q 195 19 225 0 q 147 64 165 38 q 125 114 129 90 l 26 639 l 317 638 l 385 278 q 390 260 388 265 q 399 254 393 254 l 406 254 l 496 639 l 797 639 l 907 254 l 917 254 q 921 259 921 254 q 922 271 921 264 l 963 639 l 1175 639 l 1099 114 q 1074 53 1094 79 q 1015 14 1053 28 q 919 0 978 0 l 715 0 l 647 250 l 629 333 l 617 250 l 561 0 l 267 0 m 449 724 l 613 899 l 685 899 l 851 724 l 732 724 l 649 789 l 560 724 l 449 724 z "},"Ẅ":{"ha":1197,"x_min":26,"x_max":1175,"o":"m 267 0 q 195 19 225 0 q 147 64 165 38 q 125 114 129 90 l 26 639 l 317 638 l 385 278 q 390 260 388 265 q 399 254 393 254 l 406 254 l 496 639 l 797 639 l 907 254 l 917 254 q 921 259 921 254 q 922 271 921 264 l 963 639 l 1175 639 l 1099 114 q 1074 53 1094 79 q 1015 14 1053 28 q 919 0 978 0 l 715 0 l 647 250 l 629 333 l 617 250 l 561 0 l 267 0 m 799 721 q 728 733 756 721 q 701 792 701 744 q 731 847 701 836 q 803 857 760 857 q 869 845 844 857 q 894 792 894 833 q 869 733 894 744 q 799 721 843 721 m 501 721 q 431 733 458 721 q 404 792 404 744 q 433 847 404 836 q 506 857 463 857 q 572 845 547 857 q 596 792 596 833 q 570 733 596 744 q 501 721 544 721 z "},"Ẁ":{"ha":1197,"x_min":26,"x_max":1175,"o":"m 267 0 q 195 19 225 0 q 147 64 165 38 q 125 114 129 90 l 26 639 l 317 638 l 385 278 q 390 260 388 265 q 399 254 393 254 l 406 254 l 496 639 l 797 639 l 907 254 l 917 254 q 921 259 921 254 q 922 271 921 264 l 963 639 l 1175 639 l 1099 114 q 1074 53 1094 79 q 1015 14 1053 28 q 919 0 978 0 l 715 0 l 647 250 l 629 333 l 617 250 l 561 0 l 267 0 m 646 724 l 463 831 l 588 899 l 760 724 l 646 724 z "},"X":{"ha":957,"x_min":-21,"x_max":975,"o":"m 674 0 q 599 5 632 0 q 537 27 567 10 q 475 83 507 44 l 346 239 l 1 639 l 418 639 l 567 444 l 886 90 q 934 35 914 60 q 975 0 954 11 l 674 0 m 163 0 l -21 1 q 42 55 10 22 q 100 113 75 88 l 378 393 l 624 639 l 907 639 l 540 272 l 346 67 q 274 15 313 32 q 163 0 236 -1 z "},"Y":{"ha":942,"x_min":-11,"x_max":961,"o":"m 319 0 l 319 250 l 19 604 l -11 639 l 431 639 l 563 458 l 676 639 l 961 639 l 919 599 l 635 250 l 636 108 q 625 38 638 61 q 583 8 613 15 q 499 0 553 0 l 319 0 z "},"Ý":{"ha":942,"x_min":-11,"x_max":961,"o":"m 319 0 l 319 250 l 19 604 l -11 639 l 431 639 l 563 458 l 676 639 l 961 639 l 919 599 l 635 250 l 636 108 q 625 38 638 61 q 583 8 613 15 q 499 0 553 0 l 319 0 m 476 724 l 649 899 l 774 831 l 590 724 l 476 724 z "},"Ŷ":{"ha":942,"x_min":-11,"x_max":961,"o":"m 319 0 l 319 250 l 19 604 l -11 639 l 431 639 l 563 458 l 676 639 l 961 639 l 919 599 l 635 250 l 636 108 q 625 38 638 61 q 583 8 613 15 q 499 0 553 0 l 319 0 m 361 724 l 525 899 l 597 899 l 764 724 l 644 724 l 561 789 l 472 724 l 361 724 z "},"Ÿ":{"ha":942,"x_min":-11,"x_max":961,"o":"m 319 0 l 319 250 l 19 604 l -11 639 l 431 639 l 563 458 l 676 639 l 961 639 l 919 599 l 635 250 l 636 108 q 625 38 638 61 q 583 8 613 15 q 499 0 553 0 l 319 0 m 711 721 q 641 733 668 721 q 614 792 614 744 q 643 847 614 836 q 715 857 672 857 q 782 845 757 857 q 807 792 807 833 q 781 733 807 744 q 711 721 756 721 m 414 721 q 344 733 371 721 q 317 792 317 744 q 346 847 317 836 q 418 857 375 857 q 484 845 460 857 q 508 792 508 833 q 483 733 508 744 q 414 721 457 721 z "},"Ỵ":{"ha":942,"x_min":-11,"x_max":961,"o":"m 319 0 l 319 250 l 19 604 l -11 639 l 431 639 l 563 458 l 676 639 l 961 639 l 919 599 l 635 250 l 636 108 q 625 38 638 61 q 583 8 613 15 q 499 0 553 0 l 319 0 m 476 -254 q 406 -249 436 -254 q 358 -226 375 -244 q 340 -167 340 -208 q 381 -94 340 -108 q 482 -79 422 -79 q 576 -94 542 -79 q 611 -167 611 -110 q 594 -226 611 -208 q 548 -249 578 -244 q 476 -254 518 -254 z "},"Ỳ":{"ha":942,"x_min":-11,"x_max":961,"o":"m 319 0 l 319 250 l 19 604 l -11 639 l 431 639 l 563 458 l 676 639 l 961 639 l 919 599 l 635 250 l 636 108 q 625 38 638 61 q 583 8 613 15 q 499 0 553 0 l 319 0 m 558 724 l 375 831 l 500 899 l 672 724 l 558 724 z "},"Ỷ":{"ha":942,"x_min":-11,"x_max":961,"o":"m 319 0 l 319 250 l 19 604 l -11 639 l 431 639 l 563 458 l 676 639 l 961 639 l 919 599 l 635 250 l 636 108 q 625 38 638 61 q 583 8 613 15 q 499 0 553 0 l 319 0 m 518 724 l 518 743 q 525 767 518 758 q 541 779 532 775 q 557 790 550 783 q 564 807 564 796 l 564 824 q 561 844 564 838 q 549 851 558 851 q 533 824 533 851 l 440 838 q 472 904 443 882 q 558 926 501 926 q 653 906 621 926 q 685 832 685 885 l 685 826 q 677 788 685 801 q 658 767 669 775 q 640 753 647 760 q 632 735 632 746 l 632 724 l 518 724 z "},"Ȳ":{"ha":942,"x_min":-11,"x_max":961,"o":"m 319 0 l 319 250 l 19 604 l -11 639 l 431 639 l 563 458 l 676 639 l 961 639 l 919 599 l 635 250 l 636 108 q 625 38 638 61 q 583 8 613 15 q 499 0 553 0 l 319 0 m 342 724 l 342 832 l 782 832 l 782 724 l 342 724 z "},"Ỹ":{"ha":942,"x_min":-11,"x_max":961,"o":"m 319 0 l 319 250 l 19 604 l -11 639 l 431 639 l 563 458 l 676 639 l 961 639 l 919 599 l 635 250 l 636 108 q 625 38 638 61 q 583 8 613 15 q 499 0 553 0 l 319 0 m 650 726 q 592 741 619 725 q 538 774 565 757 q 481 788 511 790 q 435 769 453 788 q 413 744 418 751 l 365 788 q 373 804 365 788 q 395 843 381 821 q 431 883 410 865 q 481 900 453 900 q 538 887 511 903 q 592 855 565 871 q 647 839 619 839 q 698 858 679 839 q 725 889 717 876 l 772 851 q 764 833 772 851 q 740 790 756 814 q 702 746 725 765 q 650 726 679 726 z "},"Z":{"ha":875,"x_min":14,"x_max":861,"o":"m 453 164 l 861 164 q 859 72 861 106 q 845 24 857 39 q 808 4 833 8 q 733 0 782 0 l 14 0 l 14 164 q 37 185 17 167 q 90 231 57 203 q 161 293 122 260 q 240 360 200 326 q 315 423 281 394 q 375 469 350 451 q 388 472 378 471 q 401 475 397 474 l 32 475 q 35 574 32 539 q 59 624 39 610 q 129 639 79 639 l 846 639 q 845 611 846 638 q 835 545 844 585 q 803 462 826 506 q 733 381 779 418 l 479 169 l 453 164 z "},"Ź":{"ha":875,"x_min":14,"x_max":861,"o":"m 453 164 l 861 164 q 859 72 861 106 q 845 24 857 39 q 808 4 833 8 q 733 0 782 0 l 14 0 l 14 164 q 37 185 17 167 q 90 231 57 203 q 161 293 122 260 q 240 360 200 326 q 315 423 281 394 q 375 469 350 451 q 388 472 378 471 q 401 475 397 474 l 32 475 q 35 574 32 539 q 59 624 39 610 q 129 639 79 639 l 846 639 q 845 611 846 638 q 835 545 844 585 q 803 462 826 506 q 733 381 779 418 l 479 169 l 453 164 m 351 724 l 524 899 l 649 831 l 465 724 l 351 724 z "},"Ž":{"ha":875,"x_min":14,"x_max":861,"o":"m 236 899 l 347 899 l 436 833 l 519 899 l 639 899 l 472 724 l 400 724 l 236 899 m 453 164 l 861 164 q 859 72 861 106 q 845 24 857 39 q 808 4 833 8 q 733 0 782 0 l 14 0 l 14 164 q 37 185 17 167 q 90 231 57 203 q 161 293 122 260 q 240 360 200 326 q 315 423 281 394 q 375 469 350 451 q 388 472 378 471 q 401 475 397 474 l 32 475 q 35 574 32 539 q 59 624 39 610 q 129 639 79 639 l 846 639 q 845 611 846 638 q 835 545 844 585 q 803 462 826 506 q 733 381 779 418 l 479 169 l 453 164 z "},"Ż":{"ha":875,"x_min":14,"x_max":861,"o":"m 453 164 l 861 164 q 859 72 861 106 q 845 24 857 39 q 808 4 833 8 q 733 0 782 0 l 14 0 l 14 164 q 37 185 17 167 q 90 231 57 203 q 161 293 122 260 q 240 360 200 326 q 315 423 281 394 q 375 469 350 451 q 388 472 378 471 q 401 475 397 474 l 32 475 q 35 574 32 539 q 59 624 39 610 q 129 639 79 639 l 846 639 q 845 611 846 638 q 835 545 844 585 q 803 462 826 506 q 733 381 779 418 l 479 169 l 453 164 m 438 719 q 369 728 396 719 q 343 781 343 738 q 372 831 343 821 q 442 842 400 842 q 506 831 482 842 q 531 781 531 819 q 506 728 531 738 q 438 719 481 719 z "},"a":{"ha":793,"x_min":38,"x_max":761,"o":"m 375 -4 q 200 0 267 -4 q 98 21 133 4 q 50 71 63 38 q 38 160 38 104 q 50 267 38 231 q 92 317 63 304 q 171 331 122 331 q 255 331 207 331 q 350 330 303 331 q 434 326 397 329 q 483 319 471 324 q 479 364 483 347 q 462 390 475 381 q 426 403 449 400 q 365 407 403 407 q 267 406 317 407 q 167 404 217 406 q 69 401 118 403 l 69 454 q 85 520 69 497 q 135 549 100 543 q 242 558 171 556 q 401 560 314 561 q 583 549 513 560 q 693 512 654 539 q 747 433 732 485 q 761 297 761 381 l 760 28 q 624 3 728 11 q 375 -4 519 -4 m 374 110 q 412 110 392 110 q 451 113 432 111 q 483 117 469 114 l 483 236 q 445 240 468 239 q 402 242 422 242 q 374 243 382 243 q 350 238 360 243 q 336 219 340 233 q 332 179 332 206 q 336 136 332 151 q 349 115 340 121 q 374 110 358 110 z "},"á":{"ha":793,"x_min":38,"x_max":761,"o":"m 375 -4 q 200 0 267 -4 q 98 21 133 4 q 50 71 63 38 q 38 160 38 104 q 50 267 38 231 q 92 317 63 304 q 171 331 122 331 q 255 331 207 331 q 350 330 303 331 q 434 326 397 329 q 483 319 471 324 q 479 364 483 347 q 462 390 475 381 q 426 403 449 400 q 365 407 403 407 q 267 406 317 407 q 167 404 217 406 q 69 401 118 403 l 69 454 q 85 520 69 497 q 135 549 100 543 q 242 558 171 556 q 401 560 314 561 q 583 549 513 560 q 693 512 654 539 q 747 433 732 485 q 761 297 761 381 l 760 28 q 624 3 728 11 q 375 -4 519 -4 m 374 110 q 412 110 392 110 q 451 113 432 111 q 483 117 469 114 l 483 236 q 445 240 468 239 q 402 242 422 242 q 374 243 382 243 q 350 238 360 243 q 336 219 340 233 q 332 179 332 206 q 336 136 332 151 q 349 115 340 121 q 374 110 358 110 m 328 639 l 542 835 l 667 767 l 442 639 l 328 639 z "},"ă":{"ha":793,"x_min":38,"x_max":761,"o":"m 375 -4 q 200 0 267 -4 q 98 21 133 4 q 50 71 63 38 q 38 160 38 104 q 50 267 38 231 q 92 317 63 304 q 171 331 122 331 q 255 331 207 331 q 350 330 303 331 q 434 326 397 329 q 483 319 471 324 q 479 364 483 347 q 462 390 475 381 q 426 403 449 400 q 365 407 403 407 q 267 406 317 407 q 167 404 217 406 q 69 401 118 403 l 69 454 q 85 520 69 497 q 135 549 100 543 q 242 558 171 556 q 401 560 314 561 q 583 549 513 560 q 693 512 654 539 q 747 433 732 485 q 761 297 761 381 l 760 28 q 624 3 728 11 q 375 -4 519 -4 m 374 110 q 412 110 392 110 q 451 113 432 111 q 483 117 469 114 l 483 236 q 445 240 468 239 q 402 242 422 242 q 374 243 382 243 q 350 238 360 243 q 336 219 340 233 q 332 179 332 206 q 336 136 332 151 q 349 115 340 121 q 374 110 358 110 m 400 636 q 281 653 321 636 q 227 714 240 669 q 214 840 214 758 l 317 840 q 333 760 317 782 q 400 738 349 738 q 469 761 456 738 q 482 840 482 785 l 585 840 q 571 713 585 757 q 517 652 557 668 q 400 636 478 636 z "},"ắ":{"ha":793,"x_min":38,"x_max":761,"o":"m 375 -4 q 200 0 267 -4 q 98 21 133 4 q 50 71 63 38 q 38 160 38 104 q 50 267 38 231 q 92 317 63 304 q 171 331 122 331 q 255 331 207 331 q 350 330 303 331 q 434 326 397 329 q 483 319 471 324 q 479 364 483 347 q 462 390 475 381 q 426 403 449 400 q 365 407 403 407 q 267 406 317 407 q 167 404 217 406 q 69 401 118 403 l 69 454 q 85 520 69 497 q 135 549 100 543 q 242 558 171 556 q 401 560 314 561 q 583 549 513 560 q 693 512 654 539 q 747 433 732 485 q 761 297 761 381 l 760 28 q 624 3 728 11 q 375 -4 519 -4 m 374 110 q 412 110 392 110 q 451 113 432 111 q 483 117 469 114 l 483 236 q 445 240 468 239 q 402 242 422 242 q 374 243 382 243 q 350 238 360 243 q 336 219 340 233 q 332 179 332 206 q 336 136 332 151 q 349 115 340 121 q 374 110 358 110 m 400 636 q 281 653 321 636 q 227 714 240 669 q 214 840 214 758 l 317 840 q 333 760 317 782 q 400 738 349 738 q 469 761 456 738 q 482 840 482 785 l 585 840 q 571 713 585 757 q 517 652 557 668 q 400 636 478 636 m 328 876 l 542 1072 l 667 1004 l 442 876 l 328 876 z "},"ặ":{"ha":793,"x_min":38,"x_max":761,"o":"m 375 -4 q 200 0 267 -4 q 98 21 133 4 q 50 71 63 38 q 38 160 38 104 q 50 267 38 231 q 92 317 63 304 q 171 331 122 331 q 255 331 207 331 q 350 330 303 331 q 434 326 397 329 q 483 319 471 324 q 479 364 483 347 q 462 390 475 381 q 426 403 449 400 q 365 407 403 407 q 267 406 317 407 q 167 404 217 406 q 69 401 118 403 l 69 454 q 85 520 69 497 q 135 549 100 543 q 242 558 171 556 q 401 560 314 561 q 583 549 513 560 q 693 512 654 539 q 747 433 732 485 q 761 297 761 381 l 760 28 q 624 3 728 11 q 375 -4 519 -4 m 374 110 q 412 110 392 110 q 451 113 432 111 q 483 117 469 114 l 483 236 q 445 240 468 239 q 402 242 422 242 q 374 243 382 243 q 350 238 360 243 q 336 219 340 233 q 332 179 332 206 q 336 136 332 151 q 349 115 340 121 q 374 110 358 110 m 400 -254 q 329 -249 360 -254 q 281 -226 299 -244 q 264 -167 264 -208 q 305 -94 264 -108 q 406 -79 346 -79 q 500 -94 465 -79 q 535 -167 535 -110 q 518 -226 535 -208 q 472 -249 501 -244 q 400 -254 442 -254 m 400 636 q 281 653 321 636 q 227 714 240 669 q 214 840 214 758 l 317 840 q 333 760 317 782 q 400 738 349 738 q 469 761 456 738 q 482 840 482 785 l 585 840 q 571 713 585 757 q 517 652 557 668 q 400 636 478 636 z "},"ằ":{"ha":793,"x_min":38,"x_max":761,"o":"m 375 -4 q 200 0 267 -4 q 98 21 133 4 q 50 71 63 38 q 38 160 38 104 q 50 267 38 231 q 92 317 63 304 q 171 331 122 331 q 255 331 207 331 q 350 330 303 331 q 434 326 397 329 q 483 319 471 324 q 479 364 483 347 q 462 390 475 381 q 426 403 449 400 q 365 407 403 407 q 267 406 317 407 q 167 404 217 406 q 69 401 118 403 l 69 454 q 85 520 69 497 q 135 549 100 543 q 242 558 171 556 q 401 560 314 561 q 583 549 513 560 q 693 512 654 539 q 747 433 732 485 q 761 297 761 381 l 760 28 q 624 3 728 11 q 375 -4 519 -4 m 374 110 q 412 110 392 110 q 451 113 432 111 q 483 117 469 114 l 483 236 q 445 240 468 239 q 402 242 422 242 q 374 243 382 243 q 350 238 360 243 q 336 219 340 233 q 332 179 332 206 q 336 136 332 151 q 349 115 340 121 q 374 110 358 110 m 400 636 q 281 653 321 636 q 227 714 240 669 q 214 840 214 758 l 317 840 q 333 760 317 782 q 400 738 349 738 q 469 761 456 738 q 482 840 482 785 l 585 840 q 571 713 585 757 q 517 652 557 668 q 400 636 478 636 m 396 876 l 171 1004 l 296 1072 l 510 876 l 396 876 z "},"ẳ":{"ha":793,"x_min":38,"x_max":761,"o":"m 375 -4 q 200 0 267 -4 q 98 21 133 4 q 50 71 63 38 q 38 160 38 104 q 50 267 38 231 q 92 317 63 304 q 171 331 122 331 q 255 331 207 331 q 350 330 303 331 q 434 326 397 329 q 483 319 471 324 q 479 364 483 347 q 462 390 475 381 q 426 403 449 400 q 365 407 403 407 q 267 406 317 407 q 167 404 217 406 q 69 401 118 403 l 69 454 q 85 520 69 497 q 135 549 100 543 q 242 558 171 556 q 401 560 314 561 q 583 549 513 560 q 693 512 654 539 q 747 433 732 485 q 761 297 761 381 l 760 28 q 624 3 728 11 q 375 -4 519 -4 m 374 110 q 412 110 392 110 q 451 113 432 111 q 483 117 469 114 l 483 236 q 445 240 468 239 q 402 242 422 242 q 374 243 382 243 q 350 238 360 243 q 336 219 340 233 q 332 179 332 206 q 336 136 332 151 q 349 115 340 121 q 374 110 358 110 m 400 636 q 281 653 321 636 q 227 714 240 669 q 214 840 214 758 l 317 840 q 333 760 317 782 q 400 738 349 738 q 469 761 456 738 q 482 840 482 785 l 585 840 q 571 713 585 757 q 517 652 557 668 q 400 636 478 636 m 356 876 l 356 896 q 367 924 356 917 q 390 938 379 932 q 401 960 401 944 l 401 976 q 399 997 401 990 q 386 1004 396 1004 q 374 997 378 1004 q 371 976 371 990 l 278 990 q 396 1079 282 1079 q 490 1058 458 1079 q 522 985 522 1038 l 522 979 q 509 933 522 947 q 483 910 496 918 q 469 888 469 903 l 469 876 l 356 876 z "},"ẵ":{"ha":793,"x_min":38,"x_max":761,"o":"m 375 -4 q 200 0 267 -4 q 98 21 133 4 q 50 71 63 38 q 38 160 38 104 q 50 267 38 231 q 92 317 63 304 q 171 331 122 331 q 255 331 207 331 q 350 330 303 331 q 434 326 397 329 q 483 319 471 324 q 479 364 483 347 q 462 390 475 381 q 426 403 449 400 q 365 407 403 407 q 267 406 317 407 q 167 404 217 406 q 69 401 118 403 l 69 454 q 85 520 69 497 q 135 549 100 543 q 242 558 171 556 q 401 560 314 561 q 583 549 513 560 q 693 512 654 539 q 747 433 732 485 q 761 297 761 381 l 760 28 q 624 3 728 11 q 375 -4 519 -4 m 374 110 q 412 110 392 110 q 451 113 432 111 q 483 117 469 114 l 483 236 q 445 240 468 239 q 402 242 422 242 q 374 243 382 243 q 350 238 360 243 q 336 219 340 233 q 332 179 332 206 q 336 136 332 151 q 349 115 340 121 q 374 110 358 110 m 400 636 q 281 653 321 636 q 227 714 240 669 q 214 840 214 758 l 317 840 q 333 760 317 782 q 400 738 349 738 q 469 761 456 738 q 482 840 482 785 l 585 840 q 571 713 585 757 q 517 652 557 668 q 400 636 478 636 m 488 879 q 430 894 457 878 q 376 926 403 910 q 318 940 349 943 q 273 922 290 940 q 250 897 256 904 l 203 940 q 210 957 203 940 q 233 996 218 974 q 269 1035 247 1018 q 318 1053 290 1053 q 376 1040 349 1056 q 430 1008 403 1024 q 485 992 457 992 q 535 1010 517 992 q 563 1042 554 1029 l 610 1004 q 601 985 610 1004 q 578 942 593 967 q 540 899 563 918 q 488 879 517 879 z "},"â":{"ha":793,"x_min":38,"x_max":761,"o":"m 375 -4 q 200 0 267 -4 q 98 21 133 4 q 50 71 63 38 q 38 160 38 104 q 50 267 38 231 q 92 317 63 304 q 171 331 122 331 q 255 331 207 331 q 350 330 303 331 q 434 326 397 329 q 483 319 471 324 q 479 364 483 347 q 462 390 475 381 q 426 403 449 400 q 365 407 403 407 q 267 406 317 407 q 167 404 217 406 q 69 401 118 403 l 69 454 q 85 520 69 497 q 135 549 100 543 q 242 558 171 556 q 401 560 314 561 q 583 549 513 560 q 693 512 654 539 q 747 433 732 485 q 761 297 761 381 l 760 28 q 624 3 728 11 q 375 -4 519 -4 m 374 110 q 412 110 392 110 q 451 113 432 111 q 483 117 469 114 l 483 236 q 445 240 468 239 q 402 242 422 242 q 374 243 382 243 q 350 238 360 243 q 336 219 340 233 q 332 179 332 206 q 336 136 332 151 q 349 115 340 121 q 374 110 358 110 m 199 639 l 363 842 l 435 842 l 601 639 l 482 639 l 399 725 l 310 639 l 199 639 z "},"ấ":{"ha":793,"x_min":38,"x_max":907,"o":"m 375 -4 q 200 0 267 -4 q 98 21 133 4 q 50 71 63 38 q 38 160 38 104 q 50 267 38 231 q 92 317 63 304 q 171 331 122 331 q 255 331 207 331 q 350 330 303 331 q 434 326 397 329 q 483 319 471 324 q 479 364 483 347 q 462 390 475 381 q 426 403 449 400 q 365 407 403 407 q 267 406 317 407 q 167 404 217 406 q 69 401 118 403 l 69 454 q 85 520 69 497 q 135 549 100 543 q 242 558 171 556 q 401 560 314 561 q 583 549 513 560 q 693 512 654 539 q 747 433 732 485 q 761 297 761 381 l 760 28 q 624 3 728 11 q 375 -4 519 -4 m 374 110 q 412 110 392 110 q 451 113 432 111 q 483 117 469 114 l 483 236 q 445 240 468 239 q 402 242 422 242 q 374 243 382 243 q 350 238 360 243 q 336 219 340 233 q 332 179 332 206 q 336 136 332 151 q 349 115 340 121 q 374 110 358 110 m 199 639 l 363 842 l 435 842 l 601 639 l 482 639 l 399 725 l 310 639 l 199 639 m 568 790 l 782 986 l 907 918 l 682 790 l 568 790 z "},"ậ":{"ha":793,"x_min":38,"x_max":761,"o":"m 375 -4 q 200 0 267 -4 q 98 21 133 4 q 50 71 63 38 q 38 160 38 104 q 50 267 38 231 q 92 317 63 304 q 171 331 122 331 q 255 331 207 331 q 350 330 303 331 q 434 326 397 329 q 483 319 471 324 q 479 364 483 347 q 462 390 475 381 q 426 403 449 400 q 365 407 403 407 q 267 406 317 407 q 167 404 217 406 q 69 401 118 403 l 69 454 q 85 520 69 497 q 135 549 100 543 q 242 558 171 556 q 401 560 314 561 q 583 549 513 560 q 693 512 654 539 q 747 433 732 485 q 761 297 761 381 l 760 28 q 624 3 728 11 q 375 -4 519 -4 m 374 110 q 412 110 392 110 q 451 113 432 111 q 483 117 469 114 l 483 236 q 445 240 468 239 q 402 242 422 242 q 374 243 382 243 q 350 238 360 243 q 336 219 340 233 q 332 179 332 206 q 336 136 332 151 q 349 115 340 121 q 374 110 358 110 m 400 -254 q 329 -249 360 -254 q 281 -226 299 -244 q 264 -167 264 -208 q 305 -94 264 -108 q 406 -79 346 -79 q 500 -94 465 -79 q 535 -167 535 -110 q 518 -226 535 -208 q 472 -249 501 -244 q 400 -254 442 -254 m 199 639 l 363 842 l 435 842 l 601 639 l 482 639 l 399 725 l 310 639 l 199 639 z "},"ầ":{"ha":793,"x_min":38,"x_max":761,"o":"m 375 -4 q 200 0 267 -4 q 98 21 133 4 q 50 71 63 38 q 38 160 38 104 q 50 267 38 231 q 92 317 63 304 q 171 331 122 331 q 255 331 207 331 q 350 330 303 331 q 434 326 397 329 q 483 319 471 324 q 479 364 483 347 q 462 390 475 381 q 426 403 449 400 q 365 407 403 407 q 267 406 317 407 q 167 404 217 406 q 69 401 118 403 l 69 454 q 85 520 69 497 q 135 549 100 543 q 242 558 171 556 q 401 560 314 561 q 583 549 513 560 q 693 512 654 539 q 747 433 732 485 q 761 297 761 381 l 760 28 q 624 3 728 11 q 375 -4 519 -4 m 374 110 q 412 110 392 110 q 451 113 432 111 q 483 117 469 114 l 483 236 q 445 240 468 239 q 402 242 422 242 q 374 243 382 243 q 350 238 360 243 q 336 219 340 233 q 332 179 332 206 q 336 136 332 151 q 349 115 340 121 q 374 110 358 110 m 199 639 l 363 842 l 435 842 l 601 639 l 482 639 l 399 725 l 310 639 l 199 639 m 636 790 l 411 918 l 536 986 l 750 790 l 636 790 z "},"ẩ":{"ha":793,"x_min":38,"x_max":763,"o":"m 375 -4 q 200 0 267 -4 q 98 21 133 4 q 50 71 63 38 q 38 160 38 104 q 50 267 38 231 q 92 317 63 304 q 171 331 122 331 q 255 331 207 331 q 350 330 303 331 q 434 326 397 329 q 483 319 471 324 q 479 364 483 347 q 462 390 475 381 q 426 403 449 400 q 365 407 403 407 q 267 406 317 407 q 167 404 217 406 q 69 401 118 403 l 69 454 q 85 520 69 497 q 135 549 100 543 q 242 558 171 556 q 401 560 314 561 q 583 549 513 560 q 693 512 654 539 q 747 433 732 485 q 761 297 761 381 l 760 28 q 624 3 728 11 q 375 -4 519 -4 m 374 110 q 412 110 392 110 q 451 113 432 111 q 483 117 469 114 l 483 236 q 445 240 468 239 q 402 242 422 242 q 374 243 382 243 q 350 238 360 243 q 336 219 340 233 q 332 179 332 206 q 336 136 332 151 q 349 115 340 121 q 374 110 358 110 m 199 639 l 363 842 l 435 842 l 601 639 l 482 639 l 399 725 l 310 639 l 199 639 m 596 790 l 596 810 q 608 838 596 831 q 631 852 619 846 q 642 874 642 858 l 642 890 q 639 911 642 904 q 626 918 636 918 q 615 911 618 918 q 611 890 611 904 l 518 904 q 636 993 522 993 q 731 972 699 993 q 763 899 763 951 l 763 893 q 749 847 763 861 q 723 824 736 832 q 710 801 710 817 l 710 790 l 596 790 z "},"ẫ":{"ha":793,"x_min":38,"x_max":761,"o":"m 375 -4 q 200 0 267 -4 q 98 21 133 4 q 50 71 63 38 q 38 160 38 104 q 50 267 38 231 q 92 317 63 304 q 171 331 122 331 q 255 331 207 331 q 350 330 303 331 q 434 326 397 329 q 483 319 471 324 q 479 364 483 347 q 462 390 475 381 q 426 403 449 400 q 365 407 403 407 q 267 406 317 407 q 167 404 217 406 q 69 401 118 403 l 69 454 q 85 520 69 497 q 135 549 100 543 q 242 558 171 556 q 401 560 314 561 q 583 549 513 560 q 693 512 654 539 q 747 433 732 485 q 761 297 761 381 l 760 28 q 624 3 728 11 q 375 -4 519 -4 m 374 110 q 412 110 392 110 q 451 113 432 111 q 483 117 469 114 l 483 236 q 445 240 468 239 q 402 242 422 242 q 374 243 382 243 q 350 238 360 243 q 336 219 340 233 q 332 179 332 206 q 336 136 332 151 q 349 115 340 121 q 374 110 358 110 m 199 639 l 363 842 l 435 842 l 601 639 l 482 639 l 399 725 l 310 639 l 199 639 m 489 867 q 431 881 458 865 q 377 914 404 897 q 319 928 350 931 q 274 910 292 928 q 251 885 257 892 l 204 928 q 212 944 204 928 q 234 983 219 961 q 270 1023 249 1006 q 319 1040 292 1040 q 377 1027 350 1043 q 431 995 404 1011 q 486 979 458 979 q 537 998 518 979 q 564 1029 556 1017 l 611 992 q 603 973 611 992 q 579 930 594 954 q 541 886 564 906 q 489 867 518 867 z "},"´":{"ha":339,"x_min":0,"x_max":339,"o":"m 0 639 l 214 835 l 339 767 l 114 639 l 0 639 z "},"́":{"ha":0,"x_min":0,"x_max":339,"o":"m 0 639 l 214 835 l 339 767 l 114 639 l 0 639 z "},"ȁ":{"ha":793,"x_min":38,"x_max":761,"o":"m 375 -4 q 200 0 267 -4 q 98 21 133 4 q 50 71 63 38 q 38 160 38 104 q 50 267 38 231 q 92 317 63 304 q 171 331 122 331 q 255 331 207 331 q 350 330 303 331 q 434 326 397 329 q 483 319 471 324 q 479 364 483 347 q 462 390 475 381 q 426 403 449 400 q 365 407 403 407 q 267 406 317 407 q 167 404 217 406 q 69 401 118 403 l 69 454 q 85 520 69 497 q 135 549 100 543 q 242 558 171 556 q 401 560 314 561 q 583 549 513 560 q 693 512 654 539 q 747 433 732 485 q 761 297 761 381 l 760 28 q 624 3 728 11 q 375 -4 519 -4 m 374 110 q 412 110 392 110 q 451 113 432 111 q 483 117 469 114 l 483 236 q 445 240 468 239 q 402 242 422 242 q 374 243 382 243 q 350 238 360 243 q 336 219 340 233 q 332 179 332 206 q 336 136 332 151 q 349 115 340 121 q 374 110 358 110 m 283 639 l 94 767 l 239 835 l 397 639 l 283 639 m 457 639 l 311 810 l 456 876 l 558 639 l 457 639 z "},"ä":{"ha":793,"x_min":38,"x_max":761,"o":"m 375 -4 q 200 0 267 -4 q 98 21 133 4 q 50 71 63 38 q 38 160 38 104 q 50 267 38 231 q 92 317 63 304 q 171 331 122 331 q 255 331 207 331 q 350 330 303 331 q 434 326 397 329 q 483 319 471 324 q 479 364 483 347 q 462 390 475 381 q 426 403 449 400 q 365 407 403 407 q 267 406 317 407 q 167 404 217 406 q 69 401 118 403 l 69 454 q 85 520 69 497 q 135 549 100 543 q 242 558 171 556 q 401 560 314 561 q 583 549 513 560 q 693 512 654 539 q 747 433 732 485 q 761 297 761 381 l 760 28 q 624 3 728 11 q 375 -4 519 -4 m 374 110 q 412 110 392 110 q 451 113 432 111 q 483 117 469 114 l 483 236 q 445 240 468 239 q 402 242 422 242 q 374 243 382 243 q 350 238 360 243 q 336 219 340 233 q 332 179 332 206 q 336 136 332 151 q 349 115 340 121 q 374 110 358 110 m 549 636 q 478 648 506 636 q 451 707 451 660 q 481 762 451 751 q 553 772 510 772 q 619 760 594 772 q 644 707 644 749 q 619 648 644 660 q 549 636 593 636 m 251 636 q 181 648 208 636 q 154 707 154 660 q 183 762 154 751 q 256 772 213 772 q 322 760 297 772 q 346 707 346 749 q 320 648 346 660 q 251 636 294 636 z "},"ạ":{"ha":793,"x_min":38,"x_max":761,"o":"m 375 -4 q 200 0 267 -4 q 98 21 133 4 q 50 71 63 38 q 38 160 38 104 q 50 267 38 231 q 92 317 63 304 q 171 331 122 331 q 255 331 207 331 q 350 330 303 331 q 434 326 397 329 q 483 319 471 324 q 479 364 483 347 q 462 390 475 381 q 426 403 449 400 q 365 407 403 407 q 267 406 317 407 q 167 404 217 406 q 69 401 118 403 l 69 454 q 85 520 69 497 q 135 549 100 543 q 242 558 171 556 q 401 560 314 561 q 583 549 513 560 q 693 512 654 539 q 747 433 732 485 q 761 297 761 381 l 760 28 q 624 3 728 11 q 375 -4 519 -4 m 374 110 q 412 110 392 110 q 451 113 432 111 q 483 117 469 114 l 483 236 q 445 240 468 239 q 402 242 422 242 q 374 243 382 243 q 350 238 360 243 q 336 219 340 233 q 332 179 332 206 q 336 136 332 151 q 349 115 340 121 q 374 110 358 110 m 400 -254 q 329 -249 360 -254 q 281 -226 299 -244 q 264 -167 264 -208 q 305 -94 264 -108 q 406 -79 346 -79 q 500 -94 465 -79 q 535 -167 535 -110 q 518 -226 535 -208 q 472 -249 501 -244 q 400 -254 442 -254 z "},"æ":{"ha":1253,"x_min":38,"x_max":1186,"o":"m 375 -4 q 200 0 267 -4 q 98 21 133 4 q 50 71 63 38 q 38 160 38 104 q 50 267 38 231 q 92 317 63 304 q 171 331 122 331 q 255 331 207 331 q 350 330 303 331 q 434 326 397 329 q 483 319 471 324 q 479 364 483 347 q 462 390 475 381 q 426 403 449 400 q 365 407 403 407 q 267 406 317 407 q 167 404 217 406 q 69 401 118 403 l 69 454 q 85 520 69 497 q 135 549 100 543 q 242 558 171 556 q 401 560 314 561 q 583 549 513 560 q 693 512 654 539 q 747 433 732 485 q 761 297 761 381 l 760 28 q 624 3 728 11 q 375 -4 519 -4 m 374 110 q 412 110 392 110 q 451 113 432 111 q 483 117 469 114 l 483 236 q 445 240 468 239 q 402 242 422 242 q 374 243 382 243 q 350 238 360 243 q 336 219 340 233 q 332 179 332 206 q 336 136 332 151 q 349 115 340 121 q 374 110 358 110 m 835 -7 q 658 4 726 -7 q 551 44 589 15 q 497 124 513 72 q 482 257 482 175 q 516 435 482 371 q 634 528 550 500 q 868 556 718 556 q 1055 534 986 556 q 1153 467 1124 513 q 1183 351 1183 422 l 1183 224 l 801 224 q 818 288 801 263 q 881 314 835 314 l 928 314 l 928 336 q 915 392 928 372 q 856 413 901 413 q 801 401 819 413 q 777 358 783 390 q 771 263 771 326 q 780 190 771 214 q 817 160 789 167 q 900 153 844 153 q 967 153 922 153 q 1060 155 1011 154 q 1144 157 1108 156 q 1186 158 1181 158 l 1186 126 q 1181 74 1186 103 q 1161 31 1175 46 q 1063 -1 1140 6 q 835 -7 985 -7 z "},"ǽ":{"ha":1253,"x_min":38,"x_max":1186,"o":"m 375 -4 q 200 0 267 -4 q 98 21 133 4 q 50 71 63 38 q 38 160 38 104 q 50 267 38 231 q 92 317 63 304 q 171 331 122 331 q 255 331 207 331 q 350 330 303 331 q 434 326 397 329 q 483 319 471 324 q 479 364 483 347 q 462 390 475 381 q 426 403 449 400 q 365 407 403 407 q 267 406 317 407 q 167 404 217 406 q 69 401 118 403 l 69 454 q 85 520 69 497 q 135 549 100 543 q 242 558 171 556 q 401 560 314 561 q 583 549 513 560 q 693 512 654 539 q 747 433 732 485 q 761 297 761 381 l 760 28 q 624 3 728 11 q 375 -4 519 -4 m 374 110 q 412 110 392 110 q 451 113 432 111 q 483 117 469 114 l 483 236 q 445 240 468 239 q 402 242 422 242 q 374 243 382 243 q 350 238 360 243 q 336 219 340 233 q 332 179 332 206 q 336 136 332 151 q 349 115 340 121 q 374 110 358 110 m 835 -7 q 658 4 726 -7 q 551 44 589 15 q 497 124 513 72 q 482 257 482 175 q 516 435 482 371 q 634 528 550 500 q 868 556 718 556 q 1055 534 986 556 q 1153 467 1124 513 q 1183 351 1183 422 l 1183 224 l 801 224 q 818 288 801 263 q 881 314 835 314 l 928 314 l 928 336 q 915 392 928 372 q 856 413 901 413 q 801 401 819 413 q 777 358 783 390 q 771 263 771 326 q 780 190 771 214 q 817 160 789 167 q 900 153 844 153 q 967 153 922 153 q 1060 155 1011 154 q 1144 157 1108 156 q 1186 158 1181 158 l 1186 126 q 1181 74 1186 103 q 1161 31 1175 46 q 1063 -1 1140 6 q 835 -7 985 -7 m 554 639 l 768 835 l 893 767 l 668 639 l 554 639 z "},"à":{"ha":793,"x_min":38,"x_max":761,"o":"m 375 -4 q 200 0 267 -4 q 98 21 133 4 q 50 71 63 38 q 38 160 38 104 q 50 267 38 231 q 92 317 63 304 q 171 331 122 331 q 255 331 207 331 q 350 330 303 331 q 434 326 397 329 q 483 319 471 324 q 479 364 483 347 q 462 390 475 381 q 426 403 449 400 q 365 407 403 407 q 267 406 317 407 q 167 404 217 406 q 69 401 118 403 l 69 454 q 85 520 69 497 q 135 549 100 543 q 242 558 171 556 q 401 560 314 561 q 583 549 513 560 q 693 512 654 539 q 747 433 732 485 q 761 297 761 381 l 760 28 q 624 3 728 11 q 375 -4 519 -4 m 374 110 q 412 110 392 110 q 451 113 432 111 q 483 117 469 114 l 483 236 q 445 240 468 239 q 402 242 422 242 q 374 243 382 243 q 350 238 360 243 q 336 219 340 233 q 332 179 332 206 q 336 136 332 151 q 349 115 340 121 q 374 110 358 110 m 396 639 l 171 767 l 296 835 l 510 639 l 396 639 z "},"ả":{"ha":793,"x_min":38,"x_max":761,"o":"m 375 -4 q 200 0 267 -4 q 98 21 133 4 q 50 71 63 38 q 38 160 38 104 q 50 267 38 231 q 92 317 63 304 q 171 331 122 331 q 255 331 207 331 q 350 330 303 331 q 434 326 397 329 q 483 319 471 324 q 479 364 483 347 q 462 390 475 381 q 426 403 449 400 q 365 407 403 407 q 267 406 317 407 q 167 404 217 406 q 69 401 118 403 l 69 454 q 85 520 69 497 q 135 549 100 543 q 242 558 171 556 q 401 560 314 561 q 583 549 513 560 q 693 512 654 539 q 747 433 732 485 q 761 297 761 381 l 760 28 q 624 3 728 11 q 375 -4 519 -4 m 374 110 q 412 110 392 110 q 451 113 432 111 q 483 117 469 114 l 483 236 q 445 240 468 239 q 402 242 422 242 q 374 243 382 243 q 350 238 360 243 q 336 219 340 233 q 332 179 332 206 q 336 136 332 151 q 349 115 340 121 q 374 110 358 110 m 356 639 l 356 658 q 367 687 356 679 q 390 701 379 694 q 401 722 401 707 l 401 739 q 399 760 401 753 q 386 767 396 767 q 374 760 378 767 q 371 739 371 753 l 278 753 q 396 842 282 842 q 490 821 458 842 q 522 747 522 800 l 522 742 q 509 695 522 710 q 483 673 496 681 q 469 650 469 665 l 469 639 l 356 639 z "},"ȃ":{"ha":793,"x_min":38,"x_max":761,"o":"m 400 839 q 517 823 478 839 q 571 763 557 807 q 585 635 585 719 l 482 635 q 469 715 482 692 q 400 738 456 738 q 333 715 349 738 q 317 635 317 693 l 214 635 q 227 761 214 717 q 281 822 240 806 q 400 839 321 839 m 375 -4 q 200 0 267 -4 q 98 21 133 4 q 50 71 63 38 q 38 160 38 104 q 50 267 38 231 q 92 317 63 304 q 171 331 122 331 q 255 331 207 331 q 350 330 303 331 q 434 326 397 329 q 483 319 471 324 q 479 364 483 347 q 462 390 475 381 q 426 403 449 400 q 365 407 403 407 q 267 406 317 407 q 167 404 217 406 q 69 401 118 403 l 69 454 q 85 520 69 497 q 135 549 100 543 q 242 558 171 556 q 401 560 314 561 q 583 549 513 560 q 693 512 654 539 q 747 433 732 485 q 761 297 761 381 l 760 28 q 624 3 728 11 q 375 -4 519 -4 m 374 110 q 412 110 392 110 q 451 113 432 111 q 483 117 469 114 l 483 236 q 445 240 468 239 q 402 242 422 242 q 374 243 382 243 q 350 238 360 243 q 336 219 340 233 q 332 179 332 206 q 336 136 332 151 q 349 115 340 121 q 374 110 358 110 z "},"ā":{"ha":793,"x_min":38,"x_max":761,"o":"m 375 -4 q 200 0 267 -4 q 98 21 133 4 q 50 71 63 38 q 38 160 38 104 q 50 267 38 231 q 92 317 63 304 q 171 331 122 331 q 255 331 207 331 q 350 330 303 331 q 434 326 397 329 q 483 319 471 324 q 479 364 483 347 q 462 390 475 381 q 426 403 449 400 q 365 407 403 407 q 267 406 317 407 q 167 404 217 406 q 69 401 118 403 l 69 454 q 85 520 69 497 q 135 549 100 543 q 242 558 171 556 q 401 560 314 561 q 583 549 513 560 q 693 512 654 539 q 747 433 732 485 q 761 297 761 381 l 760 28 q 624 3 728 11 q 375 -4 519 -4 m 374 110 q 412 110 392 110 q 451 113 432 111 q 483 117 469 114 l 483 236 q 445 240 468 239 q 402 242 422 242 q 374 243 382 243 q 350 238 360 243 q 336 219 340 233 q 332 179 332 206 q 336 136 332 151 q 349 115 340 121 q 374 110 358 110 m 179 639 l 179 747 l 619 747 l 619 639 l 179 639 z "},"&":{"ha":1017,"x_min":50,"x_max":968,"o":"m 968 -29 q 892 9 931 -10 q 817 46 854 28 q 758 14 796 24 q 664 1 721 4 q 501 -5 582 -3 q 347 -5 419 -7 q 218 1 274 -3 q 122 25 158 7 q 67 81 85 43 q 50 183 50 118 q 60 267 50 228 q 95 334 71 307 q 161 367 119 361 q 108 406 124 374 q 93 500 93 438 q 101 557 93 533 q 123 596 108 581 q 161 620 138 611 q 215 633 185 629 q 353 644 278 643 q 504 644 429 646 q 635 639 579 642 q 737 626 696 636 q 799 583 778 615 q 821 479 821 550 q 749 497 792 492 q 667 502 707 501 q 601 503 626 503 q 544 502 581 503 q 472 496 508 501 q 410 477 435 490 q 385 439 385 464 q 406 390 385 413 q 489 339 428 368 l 540 315 l 540 383 q 676 379 614 383 q 781 354 739 375 q 838 285 824 333 q 842 255 840 274 q 846 215 844 236 q 847 172 847 194 l 968 117 l 968 -29 m 389 264 q 389 244 389 254 q 389 226 389 235 q 389 207 389 217 q 399 160 389 176 q 439 138 410 143 q 447 137 443 138 q 454 136 450 136 q 463 136 458 136 q 490 139 474 136 q 520 152 506 142 q 539 188 535 163 q 464 226 501 207 q 389 264 426 246 z "},"ą":{"ha":793,"x_min":38,"x_max":761,"o":"m 375 -4 q 200 0 267 -4 q 98 21 133 4 q 50 71 63 38 q 38 160 38 104 q 50 267 38 231 q 92 317 63 304 q 171 331 122 331 q 255 331 207 331 q 350 330 303 331 q 434 326 397 329 q 483 319 471 324 q 479 364 483 347 q 462 390 475 381 q 426 403 449 400 q 365 407 403 407 q 267 406 317 407 q 167 404 217 406 q 69 401 118 403 l 69 454 q 85 520 69 497 q 135 549 100 543 q 242 558 171 556 q 401 560 314 561 q 583 549 513 560 q 693 512 654 539 q 747 433 732 485 q 761 297 761 381 l 760 28 q 624 3 728 11 q 375 -4 519 -4 m 374 110 q 412 110 392 110 q 451 113 432 111 q 483 117 469 114 l 483 236 q 445 240 468 239 q 402 242 422 242 q 374 243 382 243 q 350 238 360 243 q 336 219 340 233 q 332 179 332 206 q 336 136 332 151 q 349 115 340 121 q 374 110 358 110 m 603 -265 q 513 -250 543 -265 q 474 -208 483 -235 q 464 -146 464 -181 q 476 -87 464 -112 q 508 -41 489 -61 q 549 -8 528 -21 q 589 14 571 6 l 714 14 q 681 -3 701 10 q 638 -32 660 -15 q 600 -69 615 -49 q 585 -110 585 -89 q 606 -155 585 -147 q 658 -162 628 -162 q 705 -162 693 -162 q 719 -160 717 -161 q 724 -160 721 -160 q 716 -219 724 -196 q 683 -254 708 -243 q 603 -265 657 -265 z "},"ʼ":{"ha":218,"x_min":0,"x_max":218,"o":"m 60 767 l 218 767 l 124 554 l 0 554 l 60 767 z "},"":{"ha":549,"x_min":72,"x_max":481,"o":"m 385 464 q 380 442 383 453 q 369 422 376 432 q 336 389 356 400 q 286 375 314 375 q 285 389 285 381 q 286 410 285 397 q 306 456 290 435 q 344 490 321 478 q 376 497 368 501 q 385 464 388 485 m 481 133 q 474 112 478 124 q 464 89 469 100 q 436 47 453 64 q 403 15 421 26 q 385 6 394 10 q 367 3 376 3 q 338 8 347 3 q 329 13 333 11 q 322 17 325 15 q 283 25 308 25 q 244 17 260 25 q 229 8 240 13 q 200 3 219 3 q 165 18 181 3 q 151 33 160 25 q 132 53 142 42 q 114 79 122 65 q 99 110 106 93 q 76 181 83 142 q 74 216 75 197 q 74 253 72 235 q 93 317 76 286 q 108 340 100 331 q 126 358 117 350 q 161 378 147 374 q 177 382 169 381 q 192 383 185 383 q 210 381 207 383 q 221 378 214 381 q 233 374 228 376 l 263 364 q 286 361 276 360 q 294 362 290 361 q 304 364 299 363 l 333 374 q 347 378 342 376 q 356 381 351 381 l 374 385 q 403 381 386 385 q 419 376 411 379 q 438 365 428 372 q 468 332 453 356 q 431 296 447 319 q 414 228 410 268 q 435 171 414 199 q 481 133 454 146 z "},"≈":{"ha":499,"x_min":49,"x_max":468,"o":"m 49 121 q 71 160 60 140 q 92 200 82 181 q 115 230 104 217 q 146 250 126 243 q 185 250 158 254 q 242 239 213 246 q 290 228 265 233 q 338 215 314 222 q 367 210 354 213 q 386 208 379 208 q 417 217 406 208 q 431 242 428 225 q 449 242 440 242 q 468 242 458 242 q 454 217 464 235 q 437 185 444 200 q 426 165 429 169 q 404 135 415 147 q 374 115 393 122 q 346 113 364 113 q 307 118 328 114 q 253 132 281 125 q 199 144 226 139 q 132 156 150 156 q 90 122 93 156 q 73 123 83 124 q 49 121 63 122 m 49 306 q 71 345 60 325 q 92 385 82 365 q 115 415 104 401 q 146 435 126 428 q 185 435 158 439 q 242 424 213 431 q 290 413 265 418 q 338 400 314 407 q 367 395 354 397 q 386 393 379 393 q 417 401 406 393 q 431 426 428 410 q 449 426 440 426 q 468 426 458 426 q 454 402 464 419 q 437 369 444 385 q 426 350 429 354 q 404 319 415 332 q 374 300 393 307 q 346 298 364 297 q 307 303 328 299 q 253 317 281 310 q 199 329 226 324 q 132 340 150 340 q 90 307 93 340 q 73 308 83 308 q 49 306 63 307 z "},"å":{"ha":793,"x_min":38,"x_max":761,"o":"m 375 -4 q 200 0 267 -4 q 98 21 133 4 q 50 71 63 38 q 38 160 38 104 q 50 267 38 231 q 92 317 63 304 q 171 331 122 331 q 255 331 207 331 q 350 330 303 331 q 434 326 397 329 q 483 319 471 324 q 479 364 483 347 q 462 390 475 381 q 426 403 449 400 q 365 407 403 407 q 267 406 317 407 q 167 404 217 406 q 69 401 118 403 l 69 454 q 85 520 69 497 q 135 549 100 543 q 242 558 171 556 q 401 560 314 561 q 583 549 513 560 q 693 512 654 539 q 747 433 732 485 q 761 297 761 381 l 760 28 q 624 3 728 11 q 375 -4 519 -4 m 374 110 q 412 110 392 110 q 451 113 432 111 q 483 117 469 114 l 483 236 q 445 240 468 239 q 402 242 422 242 q 374 243 382 243 q 350 238 360 243 q 336 219 340 233 q 332 179 332 206 q 336 136 332 151 q 349 115 340 121 q 374 110 358 110 m 400 626 q 286 651 331 626 q 242 743 242 675 q 286 833 242 811 q 403 854 331 854 q 521 833 475 854 q 567 743 567 811 q 520 651 567 675 q 400 626 474 626 m 403 699 q 446 707 431 699 q 461 743 461 715 q 446 774 461 767 q 403 782 431 782 q 360 774 376 782 q 344 743 344 767 q 360 707 344 715 q 403 699 375 699 z "},"ǻ":{"ha":793,"x_min":38,"x_max":761,"o":"m 375 -4 q 200 0 267 -4 q 98 21 133 4 q 50 71 63 38 q 38 160 38 104 q 50 267 38 231 q 92 317 63 304 q 171 331 122 331 q 255 331 207 331 q 350 330 303 331 q 434 326 397 329 q 483 319 471 324 q 479 364 483 347 q 462 390 475 381 q 426 403 449 400 q 365 407 403 407 q 267 406 317 407 q 167 404 217 406 q 69 401 118 403 l 69 454 q 85 520 69 497 q 135 549 100 543 q 242 558 171 556 q 401 560 314 561 q 583 549 513 560 q 693 512 654 539 q 747 433 732 485 q 761 297 761 381 l 760 28 q 624 3 728 11 q 375 -4 519 -4 m 374 110 q 412 110 392 110 q 451 113 432 111 q 483 117 469 114 l 483 236 q 445 240 468 239 q 402 242 422 242 q 374 243 382 243 q 350 238 360 243 q 336 219 340 233 q 332 179 332 206 q 336 136 332 151 q 349 115 340 121 q 374 110 358 110 m 400 626 q 286 651 331 626 q 242 743 242 675 q 286 833 242 811 q 403 854 331 854 q 521 833 475 854 q 567 743 567 811 q 520 651 567 675 q 400 626 474 626 m 403 699 q 446 707 431 699 q 461 743 461 715 q 446 774 461 767 q 403 782 431 782 q 360 774 376 782 q 344 743 344 767 q 360 707 344 715 q 403 699 375 699 m 328 899 l 542 1094 l 667 1026 l 442 899 l 328 899 z "},"^":{"ha":606,"x_min":49,"x_max":557,"o":"m 165 318 l 49 318 l 236 639 l 368 639 l 557 318 l 433 318 l 304 500 l 165 318 z "},"~":{"ha":625,"x_min":49,"x_max":576,"o":"m 49 672 q 60 688 49 672 q 90 723 71 703 q 135 760 110 743 q 188 779 160 776 q 247 772 217 782 q 310 747 278 761 q 373 723 342 733 q 432 715 404 713 q 466 730 446 718 q 505 756 486 742 q 529 776 524 769 l 576 701 q 565 687 576 701 q 535 652 554 672 q 490 615 515 632 q 436 594 464 599 q 377 601 408 590 q 314 625 346 611 q 251 649 282 639 q 192 657 221 660 q 159 643 179 656 q 121 617 139 631 q 96 597 103 604 l 49 672 z "},"*":{"ha":710,"x_min":49,"x_max":661,"o":"m 468 147 l 356 343 l 242 147 l 118 238 l 269 404 l 49 450 l 96 597 l 303 503 l 279 729 l 432 729 l 407 504 l 615 597 l 661 450 l 440 404 l 592 238 l 468 147 z "},"@":{"ha":1140,"x_min":49,"x_max":1092,"o":"m 564 571 q 379 561 453 571 q 262 521 306 551 q 200 428 218 490 q 182 264 182 367 q 199 131 182 181 q 251 56 215 82 q 340 22 286 31 q 468 14 393 14 q 643 17 550 13 q 826 33 736 22 q 985 59 915 43 q 1092 97 1056 75 q 1092 40 1092 68 q 1092 -18 1092 11 q 985 -47 1044 -35 q 859 -67 926 -60 q 721 -79 792 -75 q 600 -86 674 -82 q 443 -88 526 -90 q 281 -72 360 -86 q 145 -24 203 -57 q 68 69 88 10 q 52 151 56 106 q 49 251 49 197 q 74 476 49 393 q 158 598 100 558 q 312 649 215 638 q 551 661 408 661 q 763 656 668 661 q 925 625 857 650 q 1031 541 993 600 q 1072 374 1068 482 q 1066 254 1075 306 q 1033 168 1057 203 q 968 115 1008 133 q 868 93 928 96 q 808 96 839 93 q 750 118 776 99 q 707 182 724 138 q 693 142 707 160 q 660 118 679 124 q 583 105 628 108 q 493 101 538 101 q 368 115 417 101 q 297 169 319 128 q 274 294 274 210 q 309 415 274 375 q 417 467 344 454 q 597 481 489 481 q 654 478 618 481 q 730 474 690 476 q 800 469 769 472 q 840 465 831 467 q 838 441 839 460 q 836 399 836 422 q 836 309 836 354 q 836 219 836 264 q 849 189 836 199 q 878 181 863 179 q 918 206 906 182 q 934 271 931 231 q 938 357 938 311 q 910 476 938 433 q 832 540 882 519 q 714 565 782 560 q 564 571 646 571 m 619 360 q 604 361 614 360 q 583 363 594 363 q 561 364 572 364 q 531 359 546 364 q 506 341 515 354 q 497 303 497 328 q 504 244 497 261 q 525 223 511 226 q 558 219 539 219 q 577 222 567 219 q 597 231 588 224 q 613 251 607 238 q 619 286 619 264 l 619 360 z "},"ã":{"ha":793,"x_min":38,"x_max":761,"o":"m 375 -4 q 200 0 267 -4 q 98 21 133 4 q 50 71 63 38 q 38 160 38 104 q 50 267 38 231 q 92 317 63 304 q 171 331 122 331 q 255 331 207 331 q 350 330 303 331 q 434 326 397 329 q 483 319 471 324 q 479 364 483 347 q 462 390 475 381 q 426 403 449 400 q 365 407 403 407 q 267 406 317 407 q 167 404 217 406 q 69 401 118 403 l 69 454 q 85 520 69 497 q 135 549 100 543 q 242 558 171 556 q 401 560 314 561 q 583 549 513 560 q 693 512 654 539 q 747 433 732 485 q 761 297 761 381 l 760 28 q 624 3 728 11 q 375 -4 519 -4 m 374 110 q 412 110 392 110 q 451 113 432 111 q 483 117 469 114 l 483 236 q 445 240 468 239 q 402 242 422 242 q 374 243 382 243 q 350 238 360 243 q 336 219 340 233 q 332 179 332 206 q 336 136 332 151 q 349 115 340 121 q 374 110 358 110 m 488 642 q 430 656 457 640 q 376 689 403 672 q 318 703 349 706 q 273 685 290 703 q 250 660 256 667 l 203 703 q 210 719 203 703 q 233 758 218 736 q 269 798 247 781 q 318 815 290 815 q 376 802 349 818 q 430 770 403 786 q 485 754 457 754 q 535 773 517 754 q 563 804 554 792 l 610 767 q 601 748 610 767 q 578 705 593 729 q 540 661 563 681 q 488 642 517 642 z "},"b":{"ha":789,"x_min":47,"x_max":756,"o":"m 396 -7 q 221 3 289 -7 q 115 42 153 14 q 63 125 78 71 q 49 268 49 179 l 47 701 l 332 701 l 332 553 q 356 553 342 553 q 387 554 369 554 q 426 555 404 554 q 475 556 449 556 q 648 529 588 556 q 732 440 708 503 q 756 268 756 378 q 735 123 756 178 q 673 40 715 68 q 562 3 631 13 q 396 -7 493 -7 m 399 142 q 446 150 432 142 q 463 188 460 158 q 467 282 467 218 q 459 360 465 335 q 436 395 453 386 q 386 404 419 404 q 372 404 379 404 q 359 404 365 404 q 346 404 353 404 q 332 404 339 404 l 332 229 q 335 183 332 200 q 347 156 339 165 q 367 144 354 147 q 399 142 379 142 z "},"\\":{"ha":729,"x_min":49,"x_max":618,"o":"m 421 -53 l 49 776 l 247 776 l 618 -53 l 421 -53 z "},"|":{"ha":517,"x_min":125,"x_max":392,"o":"m 392 639 l 392 -221 l 125 -221 l 125 639 l 392 639 z "},"{":{"ha":672,"x_min":49,"x_max":624,"o":"m 474 144 q 505 62 474 83 q 581 40 536 40 q 601 40 590 40 q 624 40 611 40 q 624 15 624 38 q 624 -28 624 -7 q 624 -53 624 -49 q 395 -49 488 -53 q 249 -28 303 -46 q 171 30 194 -11 q 147 144 147 71 q 142 242 147 211 q 117 281 138 272 q 49 289 96 289 q 49 312 49 292 q 49 351 49 332 q 49 374 49 371 q 122 385 101 374 q 144 428 142 396 q 147 528 147 461 q 180 642 147 601 q 274 701 213 683 q 423 722 335 718 q 624 725 511 725 q 624 701 624 722 q 624 658 624 679 q 624 632 624 636 l 563 632 q 497 613 519 632 q 474 528 474 594 l 474 501 q 456 411 474 449 q 408 353 438 374 q 347 333 379 333 q 408 315 379 333 q 456 263 438 296 q 474 185 474 229 l 474 144 z "},"}":{"ha":672,"x_min":49,"x_max":624,"o":"m 199 144 l 199 185 q 219 263 199 229 q 269 315 239 296 q 332 333 300 333 q 269 353 300 333 q 219 411 239 374 q 199 501 199 449 l 199 528 q 176 613 199 594 q 110 632 154 632 l 49 632 q 49 658 49 636 q 49 701 49 679 q 49 725 49 722 q 249 722 161 725 q 399 701 338 718 q 492 642 460 683 q 525 528 525 601 q 528 428 525 461 q 551 385 531 396 q 624 374 571 374 q 624 351 624 371 q 624 312 624 332 q 624 289 624 292 q 556 281 576 289 q 530 242 535 272 q 525 144 525 211 q 501 30 525 71 q 424 -28 478 -11 q 277 -49 369 -46 q 49 -53 185 -53 q 49 -28 49 -49 q 49 15 49 -7 q 49 40 49 38 q 72 40 61 40 q 92 40 82 40 q 167 62 136 40 q 199 144 199 83 z "},"[":{"ha":569,"x_min":49,"x_max":521,"o":"m 378 24 q 400 -18 378 -6 q 468 -31 422 -31 l 521 -31 l 521 -135 q 486 -135 521 -135 q 398 -136 451 -136 q 284 -136 344 -136 q 170 -136 224 -136 q 83 -136 117 -136 q 49 -136 49 -136 l 49 742 l 521 742 l 521 639 l 468 639 q 400 626 422 639 q 378 583 378 613 l 378 24 z "},"]":{"ha":569,"x_min":49,"x_max":521,"o":"m 192 583 q 169 625 192 613 q 101 638 147 638 l 49 638 l 49 742 l 521 742 l 521 -136 l 49 -136 l 49 -32 l 101 -32 q 169 -19 147 -32 q 192 24 192 -6 l 192 583 z "},"˘":{"ha":371,"x_min":0,"x_max":371,"o":"m 186 636 q 67 653 107 636 q 13 714 26 669 q 0 840 0 758 l 103 840 q 119 760 103 782 q 186 738 135 738 q 255 761 242 738 q 268 840 268 785 l 371 840 q 357 713 371 757 q 303 652 343 668 q 186 636 264 636 z "},"̮":{"ha":0,"x_min":0,"x_max":371,"o":"m 186 -272 q 67 -256 107 -272 q 13 -194 26 -239 q 0 -68 0 -150 l 103 -68 q 119 -149 103 -126 q 186 -171 135 -171 q 255 -147 242 -171 q 268 -68 268 -124 l 371 -68 q 357 -196 371 -151 q 303 -256 343 -240 q 186 -272 264 -272 z "},"̆":{"ha":0,"x_min":0,"x_max":371,"o":"m 186 636 q 67 653 107 636 q 13 714 26 669 q 0 840 0 758 l 103 840 q 119 760 103 782 q 186 738 135 738 q 255 761 242 738 q 268 840 268 785 l 371 840 q 357 713 371 757 q 303 652 343 668 q 186 636 264 636 z "},"̑":{"ha":0,"x_min":0,"x_max":371,"o":"m 186 840 q 303 824 264 840 q 357 765 343 808 q 371 636 371 721 l 268 636 q 255 716 268 693 q 186 739 242 739 q 119 717 135 739 q 103 636 103 694 l 0 636 q 13 763 0 718 q 67 824 26 807 q 186 840 107 840 z "},"¦":{"ha":364,"x_min":49,"x_max":315,"o":"m 315 150 l 315 -221 l 49 -221 l 49 150 l 315 150 m 315 639 l 315 289 l 49 289 l 49 639 l 315 639 z "},"•":{"ha":689,"x_min":72,"x_max":611,"o":"m 72 368 q 108 494 72 438 q 206 584 144 550 q 342 618 268 618 q 478 584 417 618 q 575 494 539 550 q 611 368 611 438 q 575 242 611 299 q 478 151 539 185 q 342 118 417 118 q 206 151 268 118 q 108 242 144 185 q 72 368 72 299 z "},"∙":{"ha":422,"x_min":76,"x_max":346,"o":"m 76 285 q 94 347 76 318 q 143 392 113 375 q 211 410 174 410 q 279 392 249 410 q 328 347 310 375 q 346 285 346 318 q 328 222 346 250 q 279 176 310 193 q 211 160 249 160 q 143 176 174 160 q 94 222 113 193 q 76 285 76 250 z "},"c":{"ha":694,"x_min":33,"x_max":664,"o":"m 408 -10 q 190 12 272 -10 q 70 92 107 33 q 33 260 33 150 q 70 450 33 385 q 190 539 107 515 q 408 563 272 563 q 481 559 444 563 q 572 549 517 556 q 622 534 601 546 q 653 493 642 522 q 664 406 664 464 q 617 415 649 411 q 551 420 586 418 q 488 422 515 422 q 390 409 426 422 q 340 365 354 396 q 325 281 325 335 q 340 197 325 228 q 390 152 354 165 q 488 139 426 139 q 551 141 515 139 q 617 147 586 143 q 664 156 649 151 l 664 82 q 628 17 664 36 q 534 -6 592 -1 q 408 -10 476 -10 z "},"ć":{"ha":694,"x_min":33,"x_max":664,"o":"m 408 -10 q 190 12 272 -10 q 70 92 107 33 q 33 260 33 150 q 70 450 33 385 q 190 539 107 515 q 408 563 272 563 q 481 559 444 563 q 572 549 517 556 q 622 534 601 546 q 653 493 642 522 q 664 406 664 464 q 617 415 649 411 q 551 420 586 418 q 488 422 515 422 q 390 409 426 422 q 340 365 354 396 q 325 281 325 335 q 340 197 325 228 q 390 152 354 165 q 488 139 426 139 q 551 141 515 139 q 617 147 586 143 q 664 156 649 151 l 664 82 q 628 17 664 36 q 534 -6 592 -1 q 408 -10 476 -10 m 306 639 l 519 835 l 644 767 l 419 639 l 306 639 z "},"ˇ":{"ha":403,"x_min":0,"x_max":403,"o":"m 0 842 l 111 842 l 200 756 l 283 842 l 403 842 l 236 639 l 164 639 l 0 842 z "},"̌":{"ha":0,"x_min":0,"x_max":403,"o":"m 0 842 l 111 842 l 200 756 l 283 842 l 403 842 l 236 639 l 164 639 l 0 842 z "},"č":{"ha":694,"x_min":33,"x_max":664,"o":"m 176 842 l 288 842 l 376 756 l 460 842 l 579 842 l 413 639 l 340 639 l 176 842 m 408 -10 q 190 12 272 -10 q 70 92 107 33 q 33 260 33 150 q 70 450 33 385 q 190 539 107 515 q 408 563 272 563 q 481 559 444 563 q 572 549 517 556 q 622 534 601 546 q 653 493 642 522 q 664 406 664 464 q 617 415 649 411 q 551 420 586 418 q 488 422 515 422 q 390 409 426 422 q 340 365 354 396 q 325 281 325 335 q 340 197 325 228 q 390 152 354 165 q 488 139 426 139 q 551 141 515 139 q 617 147 586 143 q 664 156 649 151 l 664 82 q 628 17 664 36 q 534 -6 592 -1 q 408 -10 476 -10 z "},"ç":{"ha":694,"x_min":33,"x_max":664,"o":"m 408 -10 q 190 12 272 -10 q 70 92 107 33 q 33 260 33 150 q 70 450 33 385 q 190 539 107 515 q 408 563 272 563 q 481 559 444 563 q 572 549 517 556 q 622 534 601 546 q 653 493 642 522 q 664 406 664 464 q 617 415 649 411 q 551 420 586 418 q 488 422 515 422 q 390 409 426 422 q 340 365 354 396 q 325 281 325 335 q 340 197 325 228 q 390 152 354 165 q 488 139 426 139 q 551 141 515 139 q 617 147 586 143 q 664 156 649 151 l 664 82 q 628 17 664 36 q 534 -6 592 -1 q 408 -10 476 -10 m 324 -244 q 255 -233 268 -244 q 242 -182 242 -221 q 257 -182 244 -182 q 300 -182 269 -182 q 349 -179 336 -182 q 363 -162 363 -176 q 349 -144 363 -147 q 301 -142 336 -142 l 235 -142 q 236 -131 236 -142 q 244 -101 236 -121 q 278 -57 253 -82 q 301 -35 290 -44 q 322 -18 311 -25 q 345 -6 333 -11 q 371 1 357 -1 l 453 1 l 378 -83 q 465 -88 436 -83 q 502 -110 493 -93 q 511 -165 511 -128 q 499 -219 511 -203 q 448 -240 488 -236 q 324 -244 408 -244 z "},"ĉ":{"ha":694,"x_min":33,"x_max":664,"o":"m 408 -10 q 190 12 272 -10 q 70 92 107 33 q 33 260 33 150 q 70 450 33 385 q 190 539 107 515 q 408 563 272 563 q 481 559 444 563 q 572 549 517 556 q 622 534 601 546 q 653 493 642 522 q 664 406 664 464 q 617 415 649 411 q 551 420 586 418 q 488 422 515 422 q 390 409 426 422 q 340 365 354 396 q 325 281 325 335 q 340 197 325 228 q 390 152 354 165 q 488 139 426 139 q 551 141 515 139 q 617 147 586 143 q 664 156 649 151 l 664 82 q 628 17 664 36 q 534 -6 592 -1 q 408 -10 476 -10 m 176 639 l 340 842 l 413 842 l 579 639 l 460 639 l 376 725 l 288 639 l 176 639 z "},"ċ":{"ha":694,"x_min":33,"x_max":664,"o":"m 408 -10 q 190 12 272 -10 q 70 92 107 33 q 33 260 33 150 q 70 450 33 385 q 190 539 107 515 q 408 563 272 563 q 481 559 444 563 q 572 549 517 556 q 622 534 601 546 q 653 493 642 522 q 664 406 664 464 q 617 415 649 411 q 551 420 586 418 q 488 422 515 422 q 390 409 426 422 q 340 365 354 396 q 325 281 325 335 q 340 197 325 228 q 390 152 354 165 q 488 139 426 139 q 551 141 515 139 q 617 147 586 143 q 664 156 649 151 l 664 82 q 628 17 664 36 q 534 -6 592 -1 q 408 -10 476 -10 m 378 635 q 310 644 336 635 q 283 696 283 653 q 312 747 283 736 q 382 757 340 757 q 447 746 422 757 q 471 696 471 735 q 446 644 471 653 q 378 635 421 635 z "},"₵":{"ha":921,"x_min":28,"x_max":881,"o":"m 325 -106 l 550 724 l 749 724 l 522 -106 l 325 -106 m 28 319 q 52 478 28 415 q 135 578 76 542 q 296 629 194 614 q 550 644 397 644 q 659 641 608 644 q 767 631 710 638 q 858 596 836 622 q 881 521 881 569 l 881 425 q 773 452 831 442 q 660 468 715 463 q 564 474 606 474 q 444 466 492 474 q 374 426 397 458 q 351 318 351 393 q 376 216 351 249 q 453 174 400 183 q 589 165 506 165 q 669 170 628 165 q 762 184 711 175 q 881 206 813 193 l 881 117 q 857 44 881 72 q 760 8 833 17 q 651 -3 706 0 q 538 -6 596 -6 q 285 10 385 -6 q 130 61 186 25 q 51 160 74 97 q 28 319 28 224 z "},"¸":{"ha":340,"x_min":-6,"x_max":271,"o":"m 83 -244 q 15 -233 28 -244 q 1 -182 1 -221 q 17 -182 4 -182 q 60 -182 29 -182 q 109 -179 96 -182 q 122 -162 122 -176 q 109 -144 122 -147 q 61 -142 96 -142 l -6 -142 q -4 -131 -4 -142 q 4 -101 -4 -121 q 38 -57 13 -82 q 60 -35 50 -44 q 82 -18 71 -25 q 105 -6 93 -11 q 131 1 117 -1 l 213 1 l 138 -83 q 224 -88 196 -83 q 262 -110 253 -93 q 271 -165 271 -128 q 259 -219 271 -203 q 208 -240 247 -236 q 83 -244 168 -244 z "},"̧":{"ha":0,"x_min":-6,"x_max":271,"o":"m 83 -244 q 15 -233 28 -244 q 1 -182 1 -221 q 17 -182 4 -182 q 60 -182 29 -182 q 109 -179 96 -182 q 122 -162 122 -176 q 109 -144 122 -147 q 61 -142 96 -142 l -6 -142 q -4 -131 -4 -142 q 4 -101 -4 -121 q 38 -57 13 -82 q 60 -35 50 -44 q 82 -18 71 -25 q 105 -6 93 -11 q 131 1 117 -1 l 213 1 l 138 -83 q 224 -88 196 -83 q 262 -110 253 -93 q 271 -165 271 -128 q 259 -219 271 -203 q 208 -240 247 -236 q 83 -244 168 -244 z "},"¢":{"ha":810,"x_min":33,"x_max":779,"o":"m 426 75 q 226 92 304 75 q 107 143 149 108 q 49 233 65 178 q 33 365 33 289 q 70 529 35 468 q 189 617 106 590 q 414 643 272 643 q 610 629 538 643 q 717 588 682 615 q 762 520 751 561 q 772 426 772 479 l 544 426 q 517 506 546 481 q 438 532 489 532 q 370 518 400 532 q 324 468 340 504 q 308 365 308 432 q 323 261 310 299 q 366 209 336 224 q 446 194 396 194 q 502 207 481 194 q 534 244 524 219 q 544 306 544 269 l 779 306 q 766 199 779 243 q 717 128 753 156 q 610 88 681 100 q 426 75 540 75 m 233 0 l 539 726 l 622 726 l 317 0 l 233 0 z "},"":{"ha":818,"x_min":33,"x_max":779,"o":"m 426 -19 q 226 -3 304 -19 q 107 49 149 14 q 49 139 65 83 q 33 271 33 194 q 70 435 35 374 q 189 522 106 496 q 414 549 272 549 q 610 535 538 549 q 717 494 682 521 q 762 426 751 467 q 772 332 772 385 l 544 332 q 517 412 546 386 q 438 438 489 438 q 370 424 400 438 q 324 374 340 410 q 308 271 308 338 q 323 167 310 204 q 366 115 336 129 q 446 100 396 100 q 502 113 481 100 q 534 150 524 125 q 544 211 544 175 l 779 211 q 766 105 779 149 q 717 33 753 61 q 610 -7 681 6 q 426 -19 540 -19 m 233 -94 l 539 632 l 622 632 l 317 -94 l 233 -94 z "},"":{"ha":628,"x_min":29,"x_max":588,"o":"m 324 56 q 174 68 232 56 q 84 107 115 81 q 41 174 53 133 q 29 274 29 215 q 56 396 29 350 q 146 462 83 442 q 314 482 208 482 q 460 472 406 482 q 540 440 514 461 q 574 389 567 419 q 582 319 582 358 l 411 319 q 391 379 413 360 q 332 399 369 399 q 281 388 303 399 q 247 351 258 378 q 235 274 235 324 q 246 196 236 224 q 278 157 256 168 q 338 146 300 146 q 380 156 364 146 q 403 183 396 165 q 411 229 411 201 l 588 229 q 578 149 588 182 q 541 96 568 117 q 461 65 514 75 q 324 56 408 56 m 179 0 l 407 543 l 469 543 l 242 0 l 179 0 z "},"":{"ha":617,"x_min":36,"x_max":569,"o":"m 318 406 q 174 417 229 406 q 89 454 119 429 q 47 518 58 479 q 36 613 36 557 q 63 730 38 686 q 148 792 89 774 q 308 811 207 811 q 448 801 396 811 q 525 772 500 792 q 558 724 550 753 q 565 657 565 694 l 401 657 q 383 713 403 694 q 325 732 363 732 q 277 722 299 732 q 244 686 256 713 q 233 613 232 660 q 243 538 233 564 q 274 501 253 511 q 332 490 294 490 q 372 499 356 490 q 394 526 388 508 q 401 569 401 544 l 569 569 q 560 494 569 525 q 525 443 551 463 q 449 415 499 424 q 318 406 399 406 m 179 351 l 397 871 l 457 871 l 239 351 l 179 351 z "},"ˆ":{"ha":403,"x_min":0,"x_max":403,"o":"m 0 639 l 164 842 l 236 842 l 403 639 l 283 639 l 200 725 l 111 639 l 0 639 z "},"̂":{"ha":0,"x_min":0,"x_max":403,"o":"m 0 639 l 164 842 l 236 842 l 403 639 l 283 639 l 200 725 l 111 639 l 0 639 z "},":":{"ha":368,"x_min":49,"x_max":319,"o":"m 49 82 q 90 155 49 140 q 190 169 131 169 q 285 154 250 169 q 319 82 319 139 q 303 22 319 40 q 256 -1 286 4 q 185 -6 226 -6 q 114 -1 144 -6 q 66 22 83 4 q 49 82 49 40 m 49 438 q 67 494 49 476 q 119 518 86 513 q 190 524 151 524 q 285 508 250 524 q 319 438 319 493 q 303 377 319 396 q 256 353 286 358 q 185 349 226 349 q 114 353 144 349 q 66 377 83 358 q 49 438 49 396 z "},"₡":{"ha":921,"x_min":28,"x_max":881,"o":"m 28 319 q 52 478 28 415 q 135 578 76 542 q 296 629 194 614 q 550 644 397 644 q 659 641 608 644 q 767 631 710 638 q 858 596 836 622 q 881 521 881 569 l 881 425 q 773 452 831 442 q 660 468 715 463 q 564 474 606 474 q 444 466 492 474 q 374 426 397 458 q 351 318 351 393 q 376 216 351 249 q 453 174 400 183 q 589 165 506 165 q 669 170 628 165 q 762 184 711 175 q 881 206 813 193 l 881 117 q 857 44 881 72 q 760 8 833 17 q 651 -3 706 0 q 538 -6 596 -6 q 285 10 385 -6 q 130 61 186 25 q 51 160 74 97 q 28 319 28 224 m 319 -106 l 546 724 l 656 724 l 428 -106 l 319 -106 m 492 -106 l 718 724 l 828 724 l 600 -106 l 492 -106 z "},",":{"ha":392,"x_min":49,"x_max":343,"o":"m 49 -197 q 108 -99 78 -149 q 164 0 138 -49 q 152 1 158 0 q 139 1 146 1 q 85 22 106 6 q 65 83 65 39 q 85 140 65 122 q 138 164 104 158 q 211 169 171 169 q 308 155 272 169 q 343 83 343 140 q 322 -8 343 44 q 269 -112 300 -61 q 211 -197 239 -162 l 49 -197 z "},"̦":{"ha":0,"x_min":0,"x_max":226,"o":"m 0 -408 q 33 -353 19 -375 q 59 -308 46 -331 q 89 -254 72 -286 q 76 -253 83 -254 q 61 -251 68 -253 q 20 -231 38 -247 q 3 -171 3 -215 q 37 -99 3 -114 q 131 -85 71 -85 q 176 -90 154 -85 q 212 -115 197 -96 q 226 -171 226 -133 q 212 -251 226 -210 q 173 -333 197 -293 q 121 -408 149 -374 l 0 -408 z "},"":{"ha":417,"x_min":83,"x_max":333,"o":"m 83 -196 q 134 -112 108 -154 q 181 -28 160 -69 q 171 -27 176 -28 q 160 -26 165 -26 q 115 -9 132 -24 q 97 43 97 6 q 114 92 97 76 q 159 112 131 107 q 221 117 188 117 q 303 104 274 117 q 333 43 333 92 q 315 -35 333 10 q 271 -123 297 -79 q 221 -196 244 -167 l 83 -196 z "},"":{"ha":443,"x_min":76,"x_max":371,"o":"m 76 168 q 135 267 106 217 q 192 365 165 317 q 180 366 186 365 q 167 367 174 367 q 113 388 133 371 q 93 449 93 404 q 113 506 93 488 q 165 529 132 524 q 239 535 199 535 q 335 520 300 535 q 371 449 371 506 q 349 357 371 410 q 297 253 328 304 q 239 168 267 203 l 76 168 z "},"̒":{"ha":0,"x_min":0,"x_max":226,"o":"m 96 639 q 51 645 74 639 q 15 669 29 651 q 0 725 0 688 q 15 806 0 765 q 53 888 29 847 q 106 963 78 928 l 226 963 q 194 908 207 931 q 168 864 181 886 q 138 808 156 842 q 152 808 144 808 q 165 806 160 807 q 206 785 189 801 q 224 725 224 769 q 190 653 224 668 q 96 639 157 639 z "},"⁒":{"ha":882,"x_min":76,"x_max":847,"o":"m 578 190 q 596 252 578 224 q 644 298 614 281 q 713 315 675 315 q 781 298 750 315 q 829 252 811 281 q 847 190 847 224 q 829 127 847 156 q 781 82 811 99 q 713 65 750 65 q 644 82 675 65 q 596 127 614 99 q 578 190 578 156 m 76 503 q 94 565 76 536 q 143 610 113 593 q 211 628 174 628 q 279 610 249 628 q 328 565 310 593 q 346 503 346 536 q 328 440 346 468 q 279 394 310 411 q 211 378 249 378 q 143 394 174 378 q 94 440 113 411 q 76 503 76 468 m 178 -53 l 549 776 l 747 776 l 375 -53 l 178 -53 z "},"©":{"ha":815,"x_min":51,"x_max":765,"o":"m 51 342 q 99 515 51 440 q 228 632 147 590 q 408 674 310 674 q 589 632 508 674 q 717 515 669 590 q 765 342 765 440 q 717 167 765 244 q 589 44 669 89 q 408 -1 508 -1 q 228 44 310 -1 q 99 167 147 89 q 51 342 51 244 m 140 342 q 176 210 140 268 q 273 119 213 153 q 408 86 333 86 q 541 119 481 86 q 638 210 601 153 q 674 342 674 268 q 638 471 674 417 q 541 554 601 525 q 408 583 481 583 q 273 554 333 583 q 176 471 213 525 q 140 342 140 417 m 422 492 q 512 486 474 492 q 571 463 550 481 q 592 407 592 444 q 592 394 592 401 q 592 381 592 388 l 475 381 q 474 394 475 388 q 472 407 474 401 q 454 428 468 422 q 417 435 440 435 q 383 428 400 435 q 363 404 367 422 q 356 379 358 393 q 354 351 354 365 q 355 330 354 340 q 358 308 356 319 q 415 264 365 264 q 449 269 433 264 q 472 292 465 275 q 474 301 474 296 q 475 313 475 306 q 475 317 475 315 q 475 321 475 318 l 594 321 q 594 301 594 311 q 594 281 594 290 q 567 228 594 243 q 499 209 540 213 q 414 206 458 206 q 298 214 342 206 q 235 252 254 222 q 215 346 215 282 q 238 438 215 407 q 308 481 261 469 q 422 492 354 492 z "},"¤":{"ha":678,"x_min":72,"x_max":603,"o":"m 504 651 q 544 566 535 619 q 546 458 554 513 q 513 368 538 404 l 603 260 l 536 260 l 465 332 q 387 315 433 319 q 294 316 340 311 q 211 333 247 321 l 139 260 l 72 260 l 164 372 q 134 458 142 407 q 136 560 126 508 q 172 646 146 611 l 72 771 l 139 771 l 225 682 q 333 699 275 700 q 451 685 392 699 l 536 771 l 603 771 l 504 651 m 233 506 q 247 431 233 456 q 286 399 261 407 q 343 392 311 392 q 397 399 374 392 q 433 432 419 407 q 446 506 446 457 q 433 580 446 556 q 397 612 419 604 q 343 619 374 619 q 286 612 311 619 q 247 581 261 604 q 233 506 233 557 z "},"d":{"ha":771,"x_min":33,"x_max":742,"o":"m 33 275 q 69 451 33 389 q 169 538 104 514 q 319 563 233 563 q 381 559 350 563 q 438 549 411 556 q 487 532 465 542 q 522 510 508 522 l 457 485 l 457 701 l 742 701 l 742 279 q 722 127 742 183 q 657 43 701 71 q 540 6 613 15 q 364 -3 468 -3 q 204 10 268 -3 q 103 53 140 22 q 49 138 65 85 q 33 275 33 192 m 386 142 q 419 148 406 142 q 442 167 433 154 q 453 199 450 179 q 457 247 457 219 l 454 403 q 447 403 451 403 q 438 403 443 403 q 424 403 432 403 q 358 394 381 403 q 329 358 336 385 q 322 275 322 331 q 330 191 322 219 q 352 152 338 163 q 386 142 367 142 z "},"†":{"ha":586,"x_min":38,"x_max":499,"o":"m 38 574 l 147 574 l 147 744 l 388 744 l 388 574 l 499 574 l 499 438 l 388 438 l 388 -21 l 147 -21 l 147 438 l 38 438 l 38 574 z "},"‡":{"ha":636,"x_min":49,"x_max":588,"o":"m 49 615 l 172 615 l 172 833 l 463 833 l 463 615 l 588 615 l 588 531 l 463 531 l 463 419 l 588 419 l 588 335 l 463 335 l 463 -26 l 172 -26 l 172 335 l 49 335 l 49 419 l 172 419 l 172 531 l 49 531 l 49 615 z "},"̏":{"ha":0,"x_min":0,"x_max":464,"o":"m 189 639 l 0 767 l 144 835 l 303 639 l 189 639 m 363 639 l 217 810 l 361 876 l 464 639 l 363 639 z "},"ď":{"ha":771,"x_min":33,"x_max":958,"o":"m 33 275 q 69 451 33 389 q 169 538 104 514 q 319 563 233 563 q 381 559 350 563 q 438 549 411 556 q 487 532 465 542 q 522 510 508 522 l 457 485 l 457 701 l 742 701 l 742 279 q 722 127 742 183 q 657 43 701 71 q 540 6 613 15 q 364 -3 468 -3 q 204 10 268 -3 q 103 53 140 22 q 49 138 65 85 q 33 275 33 192 m 386 142 q 419 148 406 142 q 442 167 433 154 q 453 199 450 179 q 457 247 457 219 l 454 403 q 447 403 451 403 q 438 403 443 403 q 424 403 432 403 q 358 394 381 403 q 329 358 336 385 q 322 275 322 331 q 330 191 322 219 q 352 152 338 163 q 386 142 367 142 m 833 481 l 835 701 l 958 701 l 929 481 l 833 481 z "},"đ":{"ha":796,"x_min":33,"x_max":832,"o":"m 385 753 l 465 753 l 465 869 l 754 869 l 754 753 l 832 753 l 832 651 l 754 651 l 754 279 q 739 147 754 201 q 684 60 724 93 q 572 12 644 26 q 385 -3 500 -3 q 209 8 278 -3 q 102 47 140 18 q 49 131 64 75 q 33 275 33 186 q 65 440 33 379 q 172 528 97 501 q 372 556 246 556 q 393 556 381 556 q 419 554 406 556 q 444 551 432 553 q 465 547 457 550 l 465 651 l 385 651 l 385 753 m 394 142 q 424 147 411 142 q 447 165 438 153 q 460 197 456 176 q 465 247 465 218 l 465 403 q 463 403 464 403 q 457 403 461 403 q 446 403 453 403 q 428 403 439 403 q 362 393 385 403 q 330 355 339 383 q 321 268 321 326 q 328 190 321 217 q 353 152 336 163 q 394 142 369 142 z "},"°":{"ha":483,"x_min":49,"x_max":435,"o":"m 49 719 q 76 832 49 796 q 149 878 103 868 q 251 889 196 889 q 348 877 307 889 q 412 829 389 865 q 435 719 435 793 q 411 599 435 638 q 344 550 388 561 q 242 539 300 539 q 141 550 185 539 q 73 599 97 561 q 49 719 49 638 m 157 722 q 180 653 157 667 q 240 639 203 639 q 302 653 279 639 q 325 722 325 667 q 303 787 325 774 q 244 800 281 800 q 183 788 208 800 q 157 722 157 775 z "},"¨":{"ha":490,"x_min":0,"x_max":490,"o":"m 394 636 q 324 648 351 636 q 297 707 297 660 q 326 762 297 751 q 399 772 356 772 q 465 760 440 772 q 490 707 490 749 q 465 648 490 660 q 394 636 439 636 m 97 636 q 27 648 54 636 q 0 707 0 660 q 29 762 0 751 q 101 772 58 772 q 167 760 143 772 q 192 707 192 749 q 166 648 192 660 q 97 636 140 636 z "},"̤":{"ha":0,"x_min":0,"x_max":490,"o":"m 394 -143 q 324 -131 351 -143 q 297 -72 297 -119 q 326 -17 297 -28 q 399 -7 356 -7 q 465 -19 440 -7 q 490 -72 490 -31 q 465 -131 490 -119 q 394 -143 439 -143 m 97 -143 q 27 -131 54 -143 q 0 -72 0 -119 q 29 -17 0 -28 q 101 -7 58 -7 q 167 -19 143 -7 q 192 -72 192 -31 q 166 -131 192 -119 q 97 -143 140 -143 z "},"̈":{"ha":0,"x_min":0,"x_max":490,"o":"m 394 636 q 324 648 351 636 q 297 707 297 660 q 326 762 297 751 q 399 772 356 772 q 465 760 440 772 q 490 707 490 749 q 465 648 490 660 q 394 636 439 636 m 97 636 q 27 648 54 636 q 0 707 0 660 q 29 762 0 751 q 101 772 58 772 q 167 760 143 772 q 192 707 192 749 q 166 648 192 660 q 97 636 140 636 z "},"÷":{"ha":836,"x_min":65,"x_max":697,"o":"m 65 311 l 697 311 l 697 218 l 65 218 l 65 311 m 278 83 q 310 158 278 143 q 389 172 343 172 q 463 156 436 172 q 490 83 490 140 q 478 22 490 40 q 442 -1 465 4 q 385 -6 418 -6 q 330 -1 354 -6 q 292 22 306 4 q 278 83 278 40 m 278 446 q 310 519 278 506 q 389 533 343 533 q 463 518 436 533 q 490 446 490 503 q 478 385 490 404 q 442 360 465 365 q 385 356 418 356 q 330 360 354 356 q 292 385 306 365 q 278 446 278 404 z "},"∕":{"ha":667,"x_min":49,"x_max":618,"o":"m 49 -53 l 419 776 l 618 776 l 246 -53 l 49 -53 z "},"$":{"ha":832,"x_min":39,"x_max":793,"o":"m 100 -115 q 137 -48 118 -82 q 174 19 156 -14 q 210 86 192 53 q 107 110 144 93 q 54 164 69 126 q 39 269 39 201 q 158 269 99 269 q 278 269 218 269 q 289 244 274 254 q 331 228 304 233 q 385 221 357 222 q 422 224 404 221 q 455 231 440 226 q 478 244 469 236 q 488 264 488 253 q 481 282 488 276 q 463 288 474 288 q 373 288 418 288 q 283 288 328 288 q 181 290 226 288 q 104 308 136 293 q 56 356 72 322 q 39 449 39 389 q 85 579 39 538 q 221 633 132 621 q 433 646 310 646 q 471 645 453 646 q 507 644 489 644 q 548 723 529 685 q 589 800 567 761 l 681 800 q 638 719 658 758 q 596 639 618 681 q 711 617 672 635 q 764 561 750 599 q 778 458 778 524 q 662 458 719 458 q 546 458 604 458 q 528 484 544 474 q 489 499 513 494 q 439 504 465 504 q 389 501 413 506 q 350 489 365 497 q 335 467 335 481 q 344 447 335 450 q 372 443 354 443 q 463 443 418 443 q 554 443 508 443 q 674 432 619 443 q 760 385 728 421 q 793 272 793 349 q 763 169 793 207 q 685 113 732 131 q 585 90 638 96 q 472 83 535 85 q 299 81 408 81 l 190 -115 l 100 -115 z "},"":{"ha":879,"x_min":39,"x_max":793,"o":"m 100 -194 q 137 -127 118 -161 q 174 -60 156 -93 q 210 7 192 -26 q 107 31 144 14 q 54 85 69 47 q 39 190 39 122 q 158 190 99 190 q 278 190 218 190 q 289 165 274 175 q 331 149 304 154 q 385 142 357 143 q 422 144 404 142 q 455 152 440 147 q 478 165 469 157 q 488 185 488 174 q 481 203 488 197 q 463 208 474 208 q 373 208 418 208 q 283 208 328 208 q 181 211 226 208 q 104 228 136 214 q 56 276 72 243 q 39 369 39 310 q 85 500 39 458 q 221 554 132 542 q 433 567 310 567 q 471 566 453 567 q 507 565 489 565 q 548 644 529 606 q 589 721 567 682 l 681 721 q 638 640 658 679 q 596 560 618 601 q 711 538 672 556 q 764 482 750 519 q 778 379 778 444 q 662 379 719 379 q 546 379 604 379 q 528 405 544 394 q 489 420 513 415 q 439 425 465 425 q 389 422 413 426 q 350 410 365 418 q 335 388 335 401 q 344 367 335 371 q 372 364 354 364 q 463 364 418 364 q 554 364 508 364 q 674 353 619 364 q 760 306 728 342 q 793 193 793 269 q 763 90 793 128 q 685 34 732 51 q 585 11 638 17 q 472 3 535 6 q 299 1 408 1 l 190 -194 l 100 -194 z "},"":{"ha":647,"x_min":24,"x_max":588,"o":"m 69 -86 q 97 -36 83 -61 q 124 14 110 -11 q 151 64 138 39 q 75 82 103 69 q 35 122 47 94 q 24 201 24 150 q 113 201 68 201 q 203 201 158 201 q 210 182 199 190 q 242 169 222 174 q 282 165 261 165 q 310 167 296 165 q 335 173 324 169 q 352 183 346 176 q 358 197 358 189 q 353 211 358 207 q 340 215 349 215 q 274 215 307 215 q 207 215 240 215 q 130 217 164 215 q 72 230 96 219 q 36 265 49 240 q 24 335 24 290 q 58 433 24 401 q 159 474 93 464 q 318 483 225 483 q 346 483 332 483 q 374 482 360 482 q 404 540 390 511 q 435 599 418 568 l 503 599 q 472 538 488 567 q 440 478 457 508 q 526 460 496 474 q 566 419 556 447 q 576 343 576 390 q 489 343 532 343 q 403 343 446 343 q 390 362 401 354 q 360 373 378 369 q 322 376 342 376 q 285 375 303 378 q 256 365 267 372 q 244 349 244 358 q 252 334 244 336 q 272 332 260 332 q 341 332 307 332 q 408 332 375 332 q 498 323 457 332 q 563 287 539 314 q 588 204 588 260 q 565 126 588 154 q 506 85 542 97 q 432 68 471 72 q 347 61 394 63 q 218 60 300 60 l 136 -86 l 69 -86 z "},"":{"ha":732,"x_min":65,"x_max":631,"o":"m 111 263 q 139 313 125 288 q 167 363 153 338 q 193 414 181 389 q 117 431 144 418 q 77 472 89 444 q 65 551 65 500 q 155 551 110 551 q 244 551 200 551 q 253 531 242 539 q 283 519 264 524 q 325 514 303 515 q 353 516 339 514 q 378 522 367 518 q 395 532 389 526 q 401 547 401 538 q 397 560 401 556 q 383 564 392 564 q 316 564 350 564 q 249 564 282 564 q 172 566 206 564 q 115 579 139 568 q 78 615 90 590 q 65 685 65 640 q 101 783 65 751 q 202 824 136 814 q 361 833 268 833 q 389 833 375 833 q 417 832 403 832 q 447 890 433 861 q 478 949 461 919 l 547 949 q 515 889 531 918 q 483 828 500 860 q 569 810 540 824 q 609 769 599 797 q 619 693 619 740 q 533 693 576 693 q 446 693 489 693 q 433 712 444 704 q 403 723 421 719 q 365 726 385 726 q 328 724 346 728 q 299 715 310 721 q 288 699 288 708 q 294 683 288 686 q 315 681 301 681 q 384 681 350 681 q 451 681 418 681 q 542 672 501 681 q 606 637 582 664 q 631 553 631 610 q 608 475 631 503 q 550 434 586 447 q 475 417 514 421 q 390 410 438 411 q 260 410 342 410 l 179 263 l 111 263 z "},"₫":{"ha":796,"x_min":33,"x_max":832,"o":"m 385 753 l 465 753 l 465 869 l 754 869 l 754 753 l 832 753 l 832 651 l 754 651 l 754 279 q 739 147 754 201 q 684 60 724 93 q 572 12 644 26 q 385 -3 500 -3 q 209 8 278 -3 q 102 47 140 18 q 49 131 64 75 q 33 275 33 186 q 65 440 33 379 q 172 528 97 501 q 372 556 246 556 q 393 556 381 556 q 419 554 406 556 q 444 551 432 553 q 465 547 457 550 l 465 651 l 385 651 l 385 753 m 394 142 q 424 147 411 142 q 447 165 438 153 q 460 197 456 176 q 465 247 465 218 l 465 403 q 463 403 464 403 q 457 403 461 403 q 446 403 453 403 q 428 403 439 403 q 362 393 385 403 q 330 355 339 383 q 321 268 321 326 q 328 190 321 217 q 353 152 336 163 q 394 142 369 142 m 185 -86 l 617 -86 l 617 -154 l 185 -154 l 185 -86 z "},"˙":{"ha":188,"x_min":0,"x_max":188,"o":"m 94 635 q 26 644 53 635 q 0 696 0 653 q 28 747 0 736 q 99 757 57 757 q 163 746 139 757 q 188 696 188 735 q 163 644 188 653 q 94 635 138 635 z "},"̇":{"ha":0,"x_min":0,"x_max":188,"o":"m 94 635 q 26 644 53 635 q 0 696 0 653 q 28 747 0 736 q 99 757 57 757 q 163 746 139 757 q 188 696 188 735 q 163 644 188 653 q 94 635 138 635 z "},"̣":{"ha":0,"x_min":0,"x_max":271,"o":"m 136 -254 q 65 -249 96 -254 q 17 -226 35 -244 q 0 -167 0 -208 q 41 -94 0 -108 q 142 -79 82 -79 q 236 -94 201 -79 q 271 -167 271 -110 q 254 -226 271 -208 q 208 -249 238 -244 q 136 -254 178 -254 z "},"ʺ":{"ha":418,"x_min":0,"x_max":418,"o":"m 60 767 l 218 767 l 124 554 l 0 554 l 60 767 m 260 767 l 418 767 l 324 554 l 200 554 l 260 767 z "},"ǆ":{"ha":1483,"x_min":33,"x_max":1463,"o":"m 929 842 l 1040 842 l 1129 756 l 1213 842 l 1332 842 l 1165 639 l 1093 639 l 929 842 m 33 275 q 69 451 33 389 q 169 538 104 514 q 319 563 233 563 q 381 559 350 563 q 438 549 411 556 q 487 532 465 542 q 522 510 508 522 l 457 485 l 457 701 l 742 701 l 742 279 q 722 127 742 183 q 657 43 701 71 q 540 6 613 15 q 364 -3 468 -3 q 204 10 268 -3 q 103 53 140 22 q 49 138 65 85 q 33 275 33 192 m 386 142 q 419 148 406 142 q 442 167 433 154 q 453 199 450 179 q 457 247 457 219 l 454 403 q 447 403 451 403 q 438 403 443 403 q 424 403 432 403 q 358 394 381 403 q 329 358 336 385 q 322 275 322 331 q 330 191 322 219 q 352 152 338 163 q 386 142 367 142 m 1167 149 l 1463 149 l 1463 86 q 1442 17 1463 35 q 1368 0 1421 0 l 799 0 l 799 135 l 1053 406 l 807 406 l 807 479 q 827 534 807 514 q 872 554 847 554 l 1446 554 q 1438 485 1454 525 q 1397 408 1422 446 q 1349 344 1371 369 l 1167 149 z "},"e":{"ha":763,"x_min":33,"x_max":738,"o":"m 386 -7 q 209 4 278 -7 q 102 44 140 15 q 49 124 64 72 q 33 257 33 175 q 67 435 33 371 q 185 528 101 500 q 419 556 269 556 q 606 534 538 556 q 705 467 675 513 q 735 351 735 422 l 735 224 l 353 224 q 369 288 353 263 q 432 314 386 314 l 479 314 l 479 336 q 466 392 479 372 q 407 413 453 413 q 353 401 371 413 q 328 358 335 390 q 322 263 322 326 q 331 190 322 214 q 368 160 340 167 q 451 153 396 153 q 518 153 474 153 q 611 155 563 154 q 696 157 660 156 q 738 158 732 158 l 738 126 q 732 74 738 103 q 713 31 726 46 q 614 -1 692 6 q 386 -7 536 -7 z "},"é":{"ha":763,"x_min":33,"x_max":738,"o":"m 386 -7 q 209 4 278 -7 q 102 44 140 15 q 49 124 64 72 q 33 257 33 175 q 67 435 33 371 q 185 528 101 500 q 419 556 269 556 q 606 534 538 556 q 705 467 675 513 q 735 351 735 422 l 735 224 l 353 224 q 369 288 353 263 q 432 314 386 314 l 479 314 l 479 336 q 466 392 479 372 q 407 413 453 413 q 353 401 371 413 q 328 358 335 390 q 322 263 322 326 q 331 190 322 214 q 368 160 340 167 q 451 153 396 153 q 518 153 474 153 q 611 155 563 154 q 696 157 660 156 q 738 158 732 158 l 738 126 q 732 74 738 103 q 713 31 726 46 q 614 -1 692 6 q 386 -7 536 -7 m 321 639 l 535 835 l 660 767 l 435 639 l 321 639 z "},"ĕ":{"ha":763,"x_min":33,"x_max":738,"o":"m 386 -7 q 209 4 278 -7 q 102 44 140 15 q 49 124 64 72 q 33 257 33 175 q 67 435 33 371 q 185 528 101 500 q 419 556 269 556 q 606 534 538 556 q 705 467 675 513 q 735 351 735 422 l 735 224 l 353 224 q 369 288 353 263 q 432 314 386 314 l 479 314 l 479 336 q 466 392 479 372 q 407 413 453 413 q 353 401 371 413 q 328 358 335 390 q 322 263 322 326 q 331 190 322 214 q 368 160 340 167 q 451 153 396 153 q 518 153 474 153 q 611 155 563 154 q 696 157 660 156 q 738 158 732 158 l 738 126 q 732 74 738 103 q 713 31 726 46 q 614 -1 692 6 q 386 -7 536 -7 m 393 636 q 274 653 314 636 q 220 714 233 669 q 207 840 207 758 l 310 840 q 326 760 310 782 q 393 738 342 738 q 462 761 449 738 q 475 840 475 785 l 578 840 q 564 713 578 757 q 510 652 550 668 q 393 636 471 636 z "},"ě":{"ha":763,"x_min":33,"x_max":738,"o":"m 192 842 l 303 842 l 392 756 l 475 842 l 594 842 l 428 639 l 356 639 l 192 842 m 386 -7 q 209 4 278 -7 q 102 44 140 15 q 49 124 64 72 q 33 257 33 175 q 67 435 33 371 q 185 528 101 500 q 419 556 269 556 q 606 534 538 556 q 705 467 675 513 q 735 351 735 422 l 735 224 l 353 224 q 369 288 353 263 q 432 314 386 314 l 479 314 l 479 336 q 466 392 479 372 q 407 413 453 413 q 353 401 371 413 q 328 358 335 390 q 322 263 322 326 q 331 190 322 214 q 368 160 340 167 q 451 153 396 153 q 518 153 474 153 q 611 155 563 154 q 696 157 660 156 q 738 158 732 158 l 738 126 q 732 74 738 103 q 713 31 726 46 q 614 -1 692 6 q 386 -7 536 -7 z "},"ê":{"ha":763,"x_min":33,"x_max":738,"o":"m 386 -7 q 209 4 278 -7 q 102 44 140 15 q 49 124 64 72 q 33 257 33 175 q 67 435 33 371 q 185 528 101 500 q 419 556 269 556 q 606 534 538 556 q 705 467 675 513 q 735 351 735 422 l 735 224 l 353 224 q 369 288 353 263 q 432 314 386 314 l 479 314 l 479 336 q 466 392 479 372 q 407 413 453 413 q 353 401 371 413 q 328 358 335 390 q 322 263 322 326 q 331 190 322 214 q 368 160 340 167 q 451 153 396 153 q 518 153 474 153 q 611 155 563 154 q 696 157 660 156 q 738 158 732 158 l 738 126 q 732 74 738 103 q 713 31 726 46 q 614 -1 692 6 q 386 -7 536 -7 m 192 639 l 356 842 l 428 842 l 594 639 l 475 639 l 392 725 l 303 639 l 192 639 z "},"ế":{"ha":763,"x_min":33,"x_max":900,"o":"m 386 -7 q 209 4 278 -7 q 102 44 140 15 q 49 124 64 72 q 33 257 33 175 q 67 435 33 371 q 185 528 101 500 q 419 556 269 556 q 606 534 538 556 q 705 467 675 513 q 735 351 735 422 l 735 224 l 353 224 q 369 288 353 263 q 432 314 386 314 l 479 314 l 479 336 q 466 392 479 372 q 407 413 453 413 q 353 401 371 413 q 328 358 335 390 q 322 263 322 326 q 331 190 322 214 q 368 160 340 167 q 451 153 396 153 q 518 153 474 153 q 611 155 563 154 q 696 157 660 156 q 738 158 732 158 l 738 126 q 732 74 738 103 q 713 31 726 46 q 614 -1 692 6 q 386 -7 536 -7 m 192 639 l 356 842 l 428 842 l 594 639 l 475 639 l 392 725 l 303 639 l 192 639 m 561 790 l 775 986 l 900 918 l 675 790 l 561 790 z "},"ệ":{"ha":763,"x_min":33,"x_max":738,"o":"m 386 -7 q 209 4 278 -7 q 102 44 140 15 q 49 124 64 72 q 33 257 33 175 q 67 435 33 371 q 185 528 101 500 q 419 556 269 556 q 606 534 538 556 q 705 467 675 513 q 735 351 735 422 l 735 224 l 353 224 q 369 288 353 263 q 432 314 386 314 l 479 314 l 479 336 q 466 392 479 372 q 407 413 453 413 q 353 401 371 413 q 328 358 335 390 q 322 263 322 326 q 331 190 322 214 q 368 160 340 167 q 451 153 396 153 q 518 153 474 153 q 611 155 563 154 q 696 157 660 156 q 738 158 732 158 l 738 126 q 732 74 738 103 q 713 31 726 46 q 614 -1 692 6 q 386 -7 536 -7 m 393 -254 q 322 -249 353 -254 q 274 -226 292 -244 q 257 -167 257 -208 q 298 -94 257 -108 q 399 -79 339 -79 q 493 -94 458 -79 q 528 -167 528 -110 q 511 -226 528 -208 q 465 -249 494 -244 q 393 -254 435 -254 m 192 639 l 356 842 l 428 842 l 594 639 l 475 639 l 392 725 l 303 639 l 192 639 z "},"ề":{"ha":763,"x_min":33,"x_max":743,"o":"m 386 -7 q 209 4 278 -7 q 102 44 140 15 q 49 124 64 72 q 33 257 33 175 q 67 435 33 371 q 185 528 101 500 q 419 556 269 556 q 606 534 538 556 q 705 467 675 513 q 735 351 735 422 l 735 224 l 353 224 q 369 288 353 263 q 432 314 386 314 l 479 314 l 479 336 q 466 392 479 372 q 407 413 453 413 q 353 401 371 413 q 328 358 335 390 q 322 263 322 326 q 331 190 322 214 q 368 160 340 167 q 451 153 396 153 q 518 153 474 153 q 611 155 563 154 q 696 157 660 156 q 738 158 732 158 l 738 126 q 732 74 738 103 q 713 31 726 46 q 614 -1 692 6 q 386 -7 536 -7 m 192 639 l 356 842 l 428 842 l 594 639 l 475 639 l 392 725 l 303 639 l 192 639 m 629 790 l 404 918 l 529 986 l 743 790 l 629 790 z "},"ể":{"ha":763,"x_min":33,"x_max":756,"o":"m 386 -7 q 209 4 278 -7 q 102 44 140 15 q 49 124 64 72 q 33 257 33 175 q 67 435 33 371 q 185 528 101 500 q 419 556 269 556 q 606 534 538 556 q 705 467 675 513 q 735 351 735 422 l 735 224 l 353 224 q 369 288 353 263 q 432 314 386 314 l 479 314 l 479 336 q 466 392 479 372 q 407 413 453 413 q 353 401 371 413 q 328 358 335 390 q 322 263 322 326 q 331 190 322 214 q 368 160 340 167 q 451 153 396 153 q 518 153 474 153 q 611 155 563 154 q 696 157 660 156 q 738 158 732 158 l 738 126 q 732 74 738 103 q 713 31 726 46 q 614 -1 692 6 q 386 -7 536 -7 m 192 639 l 356 842 l 428 842 l 594 639 l 475 639 l 392 725 l 303 639 l 192 639 m 589 790 l 589 810 q 601 838 589 831 q 624 852 613 846 q 635 874 635 858 l 635 890 q 632 911 635 904 q 619 918 629 918 q 608 911 611 918 q 604 890 604 904 l 511 904 q 629 993 515 993 q 724 972 692 993 q 756 899 756 951 l 756 893 q 742 847 756 861 q 716 824 729 832 q 703 801 703 817 l 703 790 l 589 790 z "}}}
